<?xml version="1.0" encoding="UTF-8"?>
<svg width="30px" height="30px" viewBox="0 0 30 30" version="1.1" xmlns="http://www.w3.org/2000/svg" xmlns:xlink="http://www.w3.org/1999/xlink">
    <!-- Generator: sketchtool 51.2 (57519) - http://www.bohemiancoding.com/sketch -->
    <title>2B34924D-CA74-454E-815E-5DEF0E1DC5A0</title>
    <desc>Created with sketchtool.</desc>
    <defs></defs>
    <g id="FRONTEND" stroke="none" stroke-width="1" fill="none" fill-rule="evenodd">
        <g id="ICONOS" transform="translate(-558.000000, -127.000000)" fill-rule="nonzero">
            <g id="Categorías" transform="translate(64.000000, 50.000000)">
                <g id="acuaticas" transform="translate(494.000000, 77.000000)">
                    <g id="Capa_2" fill="#41589D">
                        <rect id="Rectangle-path" x="0" y="0" width="30" height="30"></rect>
                    </g>
                    <g id="Capa_1" transform="translate(4.000000, 7.000000)" fill="#FFFFFF">
                        <path d="M18.64,1.26 C18.3676464,1.67058843 17.9077061,1.91742693 17.415,1.91742693 C16.9222939,1.91742693 16.4623536,1.67058843 16.19,1.26 C15.7034954,0.647949676 14.971543,0.281973464 14.19,0.26 C13.4070729,0.276416049 12.6728891,0.643507935 12.19,1.26 C11.9141692,1.6478806 11.4754252,1.88753068 11,1.91 C10.5154948,1.89069476 10.0662798,1.6513589 9.78,1.26 C9.28917507,0.653300285 8.55985473,0.288640117 7.78,0.26 C6.99879833,0.283331102 6.26738588,0.649037329 5.78,1.26 C5.49781542,1.65605167 5.0461157,1.89671136 4.56,1.91 C4.07549485,1.89069476 3.62627984,1.6513589 3.34,1.26 C2.84917507,0.653300285 2.11985473,0.288640117 1.34,0.26 L0.83,0.26 L0.83,1.39 L1.37,1.39 C1.85118567,1.39671896 2.30343815,1.62100678 2.6,2 C3.09082493,2.60669972 3.82014527,2.97135988 4.6,3 C5.38120167,2.9766689 6.11261412,2.61096267 6.6,2 C6.88218458,1.60394833 7.3338843,1.36328864 7.82,1.35 C8.29022265,1.38109457 8.72242657,1.619173 9,2 C9.49082493,2.60669972 10.2201453,2.97135988 11,3 C11.7812017,2.9766689 12.5126141,2.61096267 13,2 C13.2821846,1.60394833 13.7338843,1.36328864 14.22,1.35 C14.7009425,1.37229523 15.1458804,1.61131146 15.43,2 C15.9208249,2.60669972 16.6501453,2.97135988 17.43,3 C18.2112017,2.9766689 18.9426141,2.61096267 19.43,2 C19.7121846,1.60394833 20.1638843,1.36328864 20.65,1.35 L21.19,1.35 L21.19,0.31 L20.65,0.31 C19.8718859,0.311215796 19.1348922,0.659546153 18.64,1.26 Z" id="Shape"></path>
                        <path d="M18.64,7.62 C18.3676464,8.03058843 17.9077061,8.27742693 17.415,8.27742693 C16.9222939,8.27742693 16.4623536,8.03058843 16.19,7.62 C15.7034954,7.00794968 14.971543,6.64197346 14.19,6.62 C13.4070729,6.63641605 12.6728891,7.00350793 12.19,7.62 C11.9078154,8.01605167 11.4561157,8.25671136 10.97,8.27 C10.4854948,8.25069476 10.0362798,8.0113589 9.75,7.62 C9.25917507,7.01330028 8.52985473,6.64864012 7.75,6.62 C6.96879833,6.6433311 6.23738588,7.00903733 5.75,7.62 C5.46781542,8.01605167 5.0161157,8.25671136 4.53,8.27 C4.04549485,8.25069476 3.59627984,8.0113589 3.31,7.62 C2.81917507,7.01330028 2.08985473,6.64864012 1.31,6.62 L0.83,6.62 L0.83,7.71 L1.37,7.71 C1.85450515,7.72930524 2.30372016,7.9686411 2.59,8.36 C3.08082493,8.96669972 3.81014527,9.33135988 4.59,9.36 C5.37120167,9.3366689 6.10261412,8.97096267 6.59,8.36 C6.87218458,7.96394833 7.3238843,7.72328864 7.81,7.71 C8.29450515,7.72930524 8.74372016,7.9686411 9.03,8.36 C9.52082493,8.96669972 10.2501453,9.33135988 11.03,9.36 C11.8112017,9.3366689 12.5426141,8.97096267 13.03,8.36 C13.3121846,7.96394833 13.7638843,7.72328864 14.25,7.71 C14.7345052,7.72930524 15.1837202,7.9686411 15.47,8.36 C15.9608249,8.96669972 16.6901453,9.33135988 17.47,9.36 C18.2512017,9.3366689 18.9826141,8.97096267 19.47,8.36 C19.7521846,7.96394833 20.2038843,7.72328864 20.69,7.71 L21.23,7.71 L21.23,6.67 L20.69,6.67 C19.8953639,6.64700768 19.1361301,6.99884771 18.64,7.62 Z" id="Shape"></path>
                        <path d="M18.64,14 C18.3676464,14.4105884 17.9077061,14.6574269 17.415,14.6574269 C16.9222939,14.6574269 16.4623536,14.4105884 16.19,14 C15.7034954,13.3879497 14.971543,13.0219735 14.19,13 C13.4070729,13.016416 12.6728891,13.3835079 12.19,14 C11.9078154,14.3960517 11.4561157,14.6367114 10.97,14.65 C10.4961989,14.6218102 10.0597663,14.3834227 9.78,14 C9.28917507,13.3933003 8.55985473,13.0286401 7.78,13 C6.99879833,13.0233311 6.26738588,13.3890373 5.78,14 C5.49781542,14.3960517 5.0461157,14.6367114 4.56,14.65 C4.08262557,14.6247433 3.64194842,14.3860432 3.36,14 C2.86917507,13.3933003 2.13985473,13.0286401 1.36,13 L0.83,13 L0.83,14.09 L1.37,14.09 C1.85450515,14.1093052 2.30372016,14.3486411 2.59,14.74 C3.08082493,15.3466997 3.81014527,15.7113599 4.59,15.74 C5.37120167,15.7166689 6.10261412,15.3509627 6.59,14.74 C6.87218458,14.3439483 7.3238843,14.1032886 7.81,14.09 C8.29450515,14.1093052 8.74372016,14.3486411 9.03,14.74 C9.52082493,15.3466997 10.2501453,15.7113599 11.03,15.74 C11.8112017,15.7166689 12.5426141,15.3509627 13.03,14.74 C13.3121846,14.3439483 13.7638843,14.1032886 14.25,14.09 C14.7345052,14.1093052 15.1837202,14.3486411 15.47,14.74 C15.9608249,15.3466997 16.6901453,15.7113599 17.47,15.74 C18.2512017,15.7166689 18.9826141,15.3509627 19.47,14.74 C19.7521846,14.3439483 20.2038843,14.1032886 20.69,14.09 L21.23,14.09 L21.23,13 L20.69,13 C19.8894682,13.0013086 19.1338142,13.3699203 18.64,14 Z" id="Shape"></path>
                    </g>
                </g>
            </g>
        </g>
    </g>
</svg>