<?xml version="1.0" encoding="UTF-8"?>
<svg width="30px" height="30px" viewBox="0 0 30 30" version="1.1" xmlns="http://www.w3.org/2000/svg" xmlns:xlink="http://www.w3.org/1999/xlink">
    <!-- Generator: sketchtool 51.2 (57519) - http://www.bohemiancoding.com/sketch -->
    <title>B52B2CBF-B5E2-4668-A573-A72ED7D3A4AF</title>
    <desc>Created with sketchtool.</desc>
    <defs></defs>
    <g id="FRONTEND" stroke="none" stroke-width="1" fill="none" fill-rule="evenodd">
        <g id="ICONOS" transform="translate(-805.000000, -126.000000)" fill-rule="nonzero">
            <g id="Categorías" transform="translate(64.000000, 50.000000)">
                <g id="afterschool" transform="translate(741.000000, 76.000000)">
                    <g id="Capa_2" fill="#2E2A59">
                        <rect id="Rectangle-path" x="0" y="0" width="30" height="30"></rect>
                    </g>
                    <g id="Capa_1" transform="translate(3.000000, 3.000000)" fill="#FFFFFF">
                        <path d="M22.48,13.87 C21.3120578,13.041737 19.6955095,13.3044818 18.85,14.46 C18.3635496,15.2245754 18.0717182,16.0966362 18,17 L18,17.07 L17.94,17.07 C17.5457695,16.8016177 17.1774996,16.4969581 16.84,16.16 L16,15.31 L12.23,1.14 C12.1738759,0.935153873 11.9921698,0.789789024 11.78,0.78 L0.91,0.4 L0.82,0.4 C0.63905344,0.424807942 0.489922758,0.554316165 0.44,0.73 L0.44,0.8 L0.8,11.76 C0.806589354,11.9733618 0.953288581,12.1567358 1.16,12.21 L15.32,16 L16.16,16.84 C16.7077145,17.3787577 17.3268336,17.8397323 18,18.21 C18.0347503,19.8959204 18.2560994,21.5728074 18.66,23.21 C18.7151971,23.4238318 18.9091721,23.5724084 19.13,23.57 L19.25,23.57 C19.5037974,23.4970764 19.6541599,23.2361532 19.59,22.98 C19.2519877,21.5788529 19.0444351,20.1494183 18.97,18.71 L18.97,18.65 L19.03,18.65 C19.460458,18.8030369 19.9131851,18.8841224 20.37,18.89 L20.47,18.89 C21.5011393,18.8451471 22.4599108,18.3474642 23.09,17.53 C23.9197216,16.3492848 23.6430543,14.7205176 22.47,13.88 L22.48,13.87 Z M10.57,1.7 L10.51,1.77 L6.51,5.85 L2.11,1.41 L10.57,1.7 Z M1.72,10.7 L1.42,2.08 L1.49,2.15 L5.88,6.54 L1.73,10.81 L1.72,10.7 Z M2.36,11.52 L6.5,7.25 L14,14.63 L2.36,11.52 Z M14.53,13.82 L7.23,6.53 L11.5,2.14 L11.5,2.21 L14.63,13.95 L14.53,13.82 Z M22.32,16.92 C21.8606821,17.5171755 21.1624645,17.8827345 20.41,17.92 L20.33,17.92 C19.8725149,17.9155159 19.4204614,17.8203467 19,17.64 C18.9620701,16.721142 19.1728123,15.8090771 19.61,15 C20.147607,14.2859967 21.1540158,14.1258162 21.8867253,14.6376354 C22.6194348,15.1494545 22.8153809,16.1495152 22.33,16.9 L22.32,16.92 Z" id="Shape"></path>
                    </g>
                </g>
            </g>
        </g>
    </g>
</svg>