<?xml version="1.0" encoding="UTF-8"?>
<svg width="30px" height="30px" viewBox="0 0 30 30" version="1.1" xmlns="http://www.w3.org/2000/svg" xmlns:xlink="http://www.w3.org/1999/xlink">
    <!-- Generator: sketchtool 51.2 (57519) - http://www.bohemiancoding.com/sketch -->
    <title>2D39B013-528D-473F-9D18-7EC0D2DEE87C</title>
    <desc>Created with sketchtool.</desc>
    <defs></defs>
    <g id="FRONTEND" stroke="none" stroke-width="1" fill="none" fill-rule="evenodd">
        <g id="ICONOS" transform="translate(-64.000000, -127.000000)" fill-rule="nonzero">
            <g id="Categorías" transform="translate(64.000000, 50.000000)">
                <g id="animales" transform="translate(0.000000, 77.000000)">
                    <g id="Capa_2" fill="#724F2B">
                        <rect id="Rectangle-path" x="0" y="0" width="30" height="30"></rect>
                    </g>
                    <g id="Capa_1" transform="translate(3.000000, 5.000000)" fill="#FFFFFF">
                        <path d="M12,8 C8.5,8 5.43,12.94 5.43,15.93 C5.43,18 6.65,19.63 8.22,19.63 C8.91066504,19.5541753 9.56757036,19.2914132 10.12,18.87 C10.6686539,18.4586436 11.3181584,18.2029875 12,18.13 C12.6823432,18.2078465 13.331443,18.4667959 13.88,18.88 C14.4393536,19.3025538 15.1029785,19.5652387 15.8,19.64 C17.36,19.64 18.59,18.02 18.59,15.94 C18.59,13 15.52,8 12,8 Z M15.8,18.58 C15.3021266,18.4917619 14.8324711,18.2860734 14.43,17.98 C13.7194969,17.4613102 12.8774378,17.1529018 12,17.09 C11.123529,17.1584686 10.284424,17.4739998 9.58,18 C9.18122292,18.3059677 8.7148215,18.511733 8.22,18.6 C7.27,18.6 6.47,17.39 6.47,15.95 C6.47,13.23 9.47,9.07 11.99,9.07 C14.51,9.07 17.53,13.24 17.53,15.95 C17.55,17.38 16.75,18.6 15.81,18.6 L15.8,18.58 Z" id="Shape"></path>
                        <path d="M8.94,6.62 C9.11900318,6.62048982 9.29726195,6.5969462 9.47,6.55 C10.177794,6.34867738 10.7465251,5.82083546 11,5.13 C11.2783718,4.39720886 11.3134347,3.5942674 11.1,2.84 C10.8485286,1.50275123 9.74425132,0.492194917 8.39,0.36 C8.21099682,0.359510184 8.03273805,0.383053795 7.86,0.43 C7.16362565,0.639576112 6.60739061,1.16614529 6.36,1.85 C6.08162822,2.58279114 6.04656528,3.3857326 6.26,4.14 C6.50820028,5.4674858 7.59728535,6.47529587 8.94,6.62 Z M7.29,2.24 C7.42136142,1.86217094 7.72056833,1.56665793 8.1,1.44 C8.18629737,1.42868533 8.27370263,1.42868533 8.36,1.44 C9.07,1.44 9.8,2.17 10.06,3.15 C10.2039925,3.67355833 10.1830406,4.22878254 10,4.74 C9.86863858,5.11782906 9.56943167,5.41334207 9.19,5.54 C9.10370263,5.55131467 9.01629737,5.55131467 8.93,5.54 C8.22,5.54 7.49,4.81 7.23,3.83 C7.08600754,3.30644167 7.10695939,2.75121746 7.29,2.24 Z" id="Shape"></path>
                        <path d="M5.88,7.67 C5.62852859,6.33275123 4.52425132,5.32219492 3.17,5.19 C2.99099682,5.18951018 2.81273805,5.2130538 2.64,5.26 C1.94362565,5.46957611 1.38739061,5.99614529 1.14,6.68 C0.84105806,7.41725494 0.791883557,8.23214671 1,9 C1.25147141,10.3372488 2.35574868,11.3478051 3.71,11.48 C3.88900318,11.4804898 4.06726195,11.4569462 4.24,11.41 C5.61,11 6.33,9.35 5.88,7.67 Z M4,10.37 C3.91699476,10.3804577 3.83300524,10.3804577 3.75,10.37 C2.86809965,10.2404738 2.16539927,9.56588146 2,8.69 C1.84744362,8.15395433 1.86844639,7.58337905 2.06,7.06 C2.18926794,6.68438222 2.48438222,6.38926794 2.86,6.26 C3.63,6.06 4.53,6.84 4.86,7.93 C5.19,9.02 4.77,10.16 4,10.37 Z" id="Shape"></path>
                        <path d="M21.36,5.48 C21.187262,5.4330538 21.0090032,5.40951018 20.83,5.41 C19.4757487,5.54219492 18.3714714,6.55275123 18.12,7.89 C17.67,9.58 18.39,11.24 19.72,11.6 C19.892738,11.6469462 20.0709968,11.6704898 20.25,11.67 C21.6196044,11.5547486 22.7443249,10.5404552 23,9.19 C23.42,7.5 22.7,5.84 21.36,5.48 Z M22,8.92 C21.8511245,9.79537768 21.1653777,10.4811245 20.29,10.63 C20.2069948,10.6404577 20.1230052,10.6404577 20.04,10.63 C19.27,10.42 18.88,9.31 19.18,8.2 C19.48,7.09 20.36,6.32 21.18,6.53 C22,6.74 22.25,7.81 22,8.92 Z" id="Shape"></path>
                        <path d="M14.55,6.55 C14.722738,6.5969462 14.9009968,6.62048982 15.08,6.62 C16.4342513,6.48780508 17.5385286,5.47724877 17.79,4.14 C18.0135039,3.36112153 17.9677007,2.5296172 17.66,1.78 C17.4080837,1.1285732 16.8691262,0.630222072 16.2,0.43 C16.027262,0.383053795 15.8490032,0.359510184 15.67,0.36 C14.3311349,0.508836509 13.2470877,1.51574179 13,2.84 C12.7858486,3.59418368 12.8209215,4.39735474 13.1,5.13 C13.3370757,5.80251614 13.8726751,6.32703418 14.55,6.55 Z M14,3.11 C14.26,2.11 15,1.4 15.7,1.4 C15.7862974,1.38868533 15.8737026,1.38868533 15.96,1.4 C16.72,1.61 17.12,2.72 16.82,3.83 C16.6867812,4.35144029 16.4013202,4.82140651 16,5.18 C15.7512252,5.4179501 15.4239933,5.55666796 15.08,5.57 C14.9937026,5.58131467 14.9062974,5.58131467 14.82,5.57 C14.4405683,5.44334207 14.1413614,5.14782906 14.01,4.77 C13.8282599,4.23213647 13.8247532,3.65001406 14,3.11 Z" id="Shape"></path>
                    </g>
                </g>
            </g>
        </g>
    </g>
</svg>