<?xml version="1.0" encoding="UTF-8"?>
<svg width="30px" height="30px" viewBox="0 0 30 30" version="1.1" xmlns="http://www.w3.org/2000/svg" xmlns:xlink="http://www.w3.org/1999/xlink">
    <!-- Generator: sketchtool 51.2 (57519) - http://www.bohemiancoding.com/sketch -->
    <title>9B6E232F-362B-4605-AC59-457D40FB48BB</title>
    <desc>Created with sketchtool.</desc>
    <defs></defs>
    <g id="FRONTEND" stroke="none" stroke-width="1" fill="none" fill-rule="evenodd">
        <g id="ICONOS" transform="translate(-953.000000, -128.000000)" fill-rule="nonzero">
            <g id="Categorías" transform="translate(64.000000, 50.000000)">
                <g id="diversion" transform="translate(889.000000, 78.000000)">
                    <g id="Capa_2" fill="#C1428C">
                        <rect id="Rectangle-path" x="0" y="0" width="30" height="30"></rect>
                    </g>
                    <g id="Capa_1" transform="translate(4.000000, 4.000000)" fill="#FFFFFF">
                        <path d="M11,0.78 C5.35564986,0.78 0.78,5.35564986 0.78,11 C0.78,16.6443501 5.35564986,21.22 11,21.22 C16.6443501,21.22 21.22,16.6443501 21.22,11 C21.2089955,5.36021436 16.6397856,0.791004491 11,0.78 Z M16,3.55 L16.13,3.5 L16.25,3.58 C18.2493884,4.99889696 19.5965273,7.16008228 19.99,9.58 L20.08,10.14 L19.6,9.84 C17.2168897,8.48512578 14.5963602,7.59916953 11.88,7.23 L11.72,7.23 L11.66,7.08 C11.6088271,6.94441977 11.5452228,6.81386362 11.47,6.69 L11.37,6.52 L11.51,6.37 C12.06,5.83 14,4 15.92,3.58 L16,3.55 Z M8.22,2.33 C10.1796412,1.70161882 12.2942062,1.75448295 14.22,2.48 L14.8,2.7 L14.23,3 C12.8879497,3.6832695 11.6789158,4.60105153 10.66,5.71 L10.53,5.84 L10.36,5.77 C10.0684553,5.64908354 9.75561784,5.58787622 9.44,5.59 L9.28,5.59 L9.17,5.45 C8.67638279,4.5599186 8.28393988,3.61738477 8,2.64 L8,2.41 L8.22,2.33 Z M10.71,7.93 C10.71,8.62587878 10.1458788,9.19 9.45,9.19 C8.75412122,9.19 8.19,8.62587878 8.19,7.93 C8.19,7.23412122 8.75412122,6.67 9.45,6.67 C9.78591263,6.66998942 10.1079234,6.80411087 10.3445088,7.04257395 C10.5810942,7.28103702 10.712666,7.60409795 10.71,7.94 L10.71,7.93 Z M2.77,7.12 C3.5988766,5.37348829 4.95631706,3.93208244 6.65,3 L6.94,2.84 L7.03,3.16 C7.28429007,4.04213721 7.61902812,4.89906662 8.03,5.72 L8.13,5.91 L7.96,6.04 C7.61836731,6.29831791 7.35242759,6.64369417 7.19,7.04 L7.12,7.23 L6.92,7.23 C5.61879012,7.08108955 4.30144391,7.16575191 3.03,7.48 L2.49,7.61 L2.77,7.12 Z M4,16.88 L3.7,16.49 C2.51295844,14.9075491 1.88034828,12.9780881 1.9,11 C1.89996315,10.3614113 1.96699753,9.72458461 2.1,9.1 L2.1,8.96 L2.24,8.96 C3.73245434,8.41483222 5.33333355,8.23314786 6.91,8.43 L7.08,8.43 L7.08,8.6 C7.16256583,8.90521302 7.30536908,9.19081953 7.5,9.44 L7.62,9.59 L7.51,9.75 C6.09225649,11.8257071 4.95255882,14.0782069 4.12,16.45 L4,16.88 Z M13.47,19.74 C10.5387067,20.5773123 7.38284715,19.8860287 5.07,17.9 L4.94,17.79 L4.94,17.63 C5.75213173,15.0379651 6.94517792,12.5810988 8.48,10.34 L8.59,10.19 L8.77,10.19 C9.09525012,10.2810263 9.43619931,10.3014832 9.77,10.25 L9.97,10.25 L10.05,10.44 C10.81,12.2 12.7,16.61 13.64,19.44 L13.73,19.7 L13.47,19.74 Z M20.03,11.74 C19.7582631,14.9064439 17.8663837,17.7064255 15.03,19.14 L14.76,19.28 L14.66,18.99 C13.66,15.99 11.66,11.29 11.02,9.91 L11,9.73 L11.13,9.6 C11.4058755,9.32023131 11.6085218,8.97676306 11.72,8.6 L11.79,8.38 L12.02,8.38 C14.883575,8.78993856 17.6142004,9.85412967 20,11.49 L20.11,11.58 L20.03,11.74 Z" id="Shape"></path>
                    </g>
                </g>
            </g>
        </g>
    </g>
</svg>