<?xml version="1.0" encoding="UTF-8"?>
<svg width="30px" height="30px" viewBox="0 0 30 30" version="1.1" xmlns="http://www.w3.org/2000/svg" xmlns:xlink="http://www.w3.org/1999/xlink">
    <!-- Generator: sketchtool 51.2 (57519) - http://www.bohemiancoding.com/sketch -->
    <title>2CB848AB-F800-4C3B-A2DE-6CEDED206827</title>
    <desc>Created with sketchtool.</desc>
    <defs></defs>
    <g id="FRONTEND" stroke="none" stroke-width="1" fill="none" fill-rule="evenodd">
        <g id="ICONOS" transform="translate(-213.000000, -127.000000)" fill-rule="nonzero">
            <g id="Categorías" transform="translate(64.000000, 50.000000)">
                <g id="guardería" transform="translate(149.000000, 77.000000)">
                    <rect id="Rectangle-path" fill="#DC911B" x="0" y="0" width="30" height="30"></rect>
                    <g id="Capa_1" transform="translate(3.000000, 4.000000)" fill="#FFFFFF">
                        <path d="M14.09,12.1 C14.3882338,12.1 14.63,11.8582338 14.63,11.56 C14.5880277,11.0959246 14.811901,10.6479758 15.2082563,10.4029653 C15.6046116,10.1579548 16.1053884,10.1579548 16.5017437,10.4029653 C16.898099,10.6479758 17.1219723,11.0959246 17.08,11.56 C17.08,11.8582338 17.3217662,12.1 17.62,12.1 C17.9182338,12.1 18.16,11.8582338 18.16,11.56 C18.16,10.9500021 17.9176793,10.3649881 17.4863456,9.9336544 C17.0550119,9.50232073 16.4699979,9.26 15.86,9.26 C14.5920208,9.26547731 13.5654773,10.2920208 13.56,11.56 C13.5599495,11.8543718 13.7956787,12.0945487 14.09,12.1 Z" id="Shape"></path>
                        <path d="M7.93,9.26 C6.66202078,9.26547731 5.63547731,10.2920208 5.63,11.56 C5.63,11.8582338 5.87176624,12.1 6.17,12.1 C6.46823376,12.1 6.71,11.8582338 6.71,11.56 C6.66802765,11.0959246 6.89190097,10.6479758 7.28825629,10.4029653 C7.68461161,10.1579548 8.18538839,10.1579548 8.58174371,10.4029653 C8.97809903,10.6479758 9.20197235,11.0959246 9.16,11.56 C9.16,11.8582338 9.40176624,12.1 9.7,12.1 C9.99823376,12.1 10.24,11.8582338 10.24,11.56 C10.2345227,10.2920208 9.20797922,9.26547731 7.94,9.26 L7.93,9.26 Z" id="Shape"></path>
                        <path d="M20.95,7.84 L20.84,7.84 C20.0813887,5.36134473 18.3288538,3.30827187 16,2.17 C15.843803,2.08963166 15.6579337,2.09187534 15.5037222,2.1759907 C15.3495107,2.26010606 15.2469944,2.4151636 15.23,2.59 L15.23,0.59 C15.23,0.291766235 14.9882338,0.05 14.69,0.05 C14.6030514,0.0495811118 14.5172875,0.0701644626 14.44,0.11 L12.62,1.05 C12.165669,0.827998982 11.634331,0.827998982 11.18,1.05 L9.36,0.11 C9.2288673,0.0549978687 9.0811327,0.0549978687 8.95,0.11 C8.72999092,0.182969687 8.5810923,0.388208333 8.58,0.62 L8.58,2.4 C8.44657955,2.14145132 8.12967918,2.03879345 7.87,2.17 C5.52763072,3.30398439 3.76312009,5.36197626 3,7.85 C1.48673979,7.85 0.26,9.07673979 0.26,10.59 C0.26,12.1032602 1.48673979,13.33 3,13.33 C3.88532878,16.1547941 6.04319917,18.4014962 8.83,19.4 C9.12372627,20.8905669 10.4307683,21.965183 11.95,21.965183 C13.4692317,21.965183 14.7762737,20.8905669 15.07,19.4 C17.8599471,18.4007829 20.0187377,16.1494198 20.9,13.32 L21,13.32 C21.9806941,13.32 22.8868928,12.796806 23.3772398,11.9475 C23.8675868,11.0981941 23.8675868,10.0518059 23.3772398,9.20249998 C22.8868928,8.35319401 21.9806941,7.82999997 21,7.83 L20.95,7.84 Z M9.79,18.78 C9.79,17.6174406 10.7324406,16.675 11.895,16.675 C13.0575594,16.675 14,17.6174406 14,18.78 L14,19 C13.9020736,20.0884342 12.9928145,20.9240866 11.9,20.93 C10.8015012,20.9340038 9.88370413,20.0945023 9.79,19 L9.79,18.78 Z M10.36,3.21 L9.62,3.6 L9.62,1.47 L10.36,1.85 C10.1631742,2.28196914 10.1631742,2.77803086 10.36,3.21 Z M11.29,2.54 C11.29,2.22519769 11.5451977,1.97 11.86,1.97 C12.1748023,1.97 12.43,2.22519769 12.43,2.54 C12.43,2.85480231 12.1748023,3.11 11.86,3.11 C11.7088266,3.11 11.5638449,3.0499466 11.4569491,2.94305087 C11.3500534,2.83615513 11.29,2.6911734 11.29,2.54 Z M13.37,1.86 L14.11,1.47 L14.11,3.6 L13.37,3.22 C13.5668258,2.78803086 13.5668258,2.29196914 13.37,1.86 Z M8.81,4.95 C8.97451686,5.04265994 9.17548314,5.04265994 9.34,4.95 L11.15,4 C11.601568,4.21875745 12.128432,4.21875745 12.58,4 L14.4,5 C14.4772875,5.03983554 14.5630514,5.06041889 14.65,5.06 L14.81,5.06 C15.0339617,4.99053573 15.1874982,4.78447361 15.19,4.55 L15.19,2.67 C15.1893055,2.86944323 15.3072056,3.05022344 15.49,3.13 C17.7034116,4.1927496 19.3275806,6.18721452 19.92,8.57 C19.9892858,8.8550271 20.2734347,9.03262019 20.56,8.97 C21.4182049,8.84432556 22.2297636,9.39656256 22.4278415,10.2410001 C22.6259195,11.0854377 22.1445733,11.9409487 21.32,12.21 C21.0699523,12.2677013 20.8100477,12.2677013 20.56,12.21 C20.276494,12.1466987 19.9937098,12.3190203 19.92,12.6 C19.2615617,15.1508798 17.4379011,17.2414175 15,18.24 C14.897079,17.6434614 14.6265458,17.0885215 14.22,16.64 C14.4661472,16.5547436 14.6163438,16.3059152 14.5771024,16.0483939 C14.5378611,15.7908726 14.3203688,15.598073 14.06,15.59 L9.7,15.59 C9.4396312,15.598073 9.22213889,15.7908726 9.18289756,16.0483939 C9.14365622,16.3059152 9.29385283,16.5547436 9.54,16.64 C9.13345419,17.0885215 8.86292099,17.6434614 8.76,18.24 C6.35167742,17.2356477 4.55042829,15.1643961 3.89,12.64 C3.8260987,12.3788616 3.57680179,12.2069327 3.31,12.24 L3.23,12.24 L3.08,12.24 C2.16044589,12.24 1.415,11.4945541 1.415,10.575 C1.415,9.65544589 2.16044589,8.91 3.08,8.91 L3.25,8.91 C3.51814791,8.93939451 3.76803698,8.7699782 3.84,8.51 C4.43942575,6.14107204 6.05817175,4.15975624 8.26,3.1 C8.36575433,3.04591515 8.45027489,2.9578729 8.5,2.85 L8.5,4.45 C8.49550687,4.66326638 8.61698044,4.85919149 8.81,4.95 Z" id="Shape"></path>
                    </g>
                </g>
            </g>
        </g>
    </g>
</svg>