<?xml version="1.0" encoding="UTF-8"?>
<svg width="30px" height="30px" viewBox="0 0 30 30" version="1.1" xmlns="http://www.w3.org/2000/svg" xmlns:xlink="http://www.w3.org/1999/xlink">
    <!-- Generator: sketchtool 51.2 (57519) - http://www.bohemiancoding.com/sketch -->
    <title>061B3E0B-46CC-4364-B5B5-2058FE5C50DA</title>
    <desc>Created with sketchtool.</desc>
    <defs></defs>
    <g id="FRONTEND" stroke="none" stroke-width="1" fill="none" fill-rule="evenodd">
        <g id="ICONOS" transform="translate(-113.000000, -127.000000)" fill-rule="nonzero">
            <g id="Categorías" transform="translate(64.000000, 50.000000)">
                <g id="heladeria" transform="translate(49.000000, 77.000000)">
                    <g id="Capa_2" fill="#D0663F">
                        <rect id="Rectangle-path" x="0" y="0" width="30" height="30"></rect>
                    </g>
                    <g id="Capa_1" transform="translate(8.000000, 3.000000)" fill="#FFFFFF">
                        <path d="M13,9.27 C13.4986926,8.27841351 13.4944705,7.10842072 12.9886342,6.12045929 C12.4827979,5.13249786 11.5360302,4.44508842 10.44,4.27 C10.44,4.27 10.44,4.17 10.44,4.12 C10.44,2.18700338 8.87299662,0.62 6.94,0.62 C5.00700338,0.62 3.44,2.18700338 3.44,4.12 C3.44,4.12 3.44,4.22 3.44,4.27 C2.34396982,4.44508842 1.39720205,5.13249786 0.891365799,6.12045929 C0.385529546,7.10842072 0.381307374,8.27841351 0.88,9.27 C0.815770886,9.31119391 0.761193911,9.36577089 0.72,9.43 C0.632886444,9.59238799 0.632886444,9.78761201 0.72,9.95 L6.5,23 C6.58959648,23.1955155 6.7849329,23.3208712 7,23.3208712 C7.2150671,23.3208712 7.41040352,23.1955155 7.5,23 L13.23,9.9 C13.3189515,9.73807874 13.3189515,9.54192126 13.23,9.38 C13.1634258,9.325165 13.084475,9.28740592 13,9.27 Z M11.86,10.27 L7,21.46 L2.11,10.27 L11.86,10.27 Z M4.08,5.13 L4.13,5.31 C5.22139537,5.33309814 6.15714815,6.09571604 6.4,7.16 C6.43971652,7.33725934 6.45983724,7.5183458 6.46,7.7 C6.46197167,8.24148682 6.27845901,8.7673212 5.94,9.19 L2.21,9.19 C1.63630146,8.47542758 1.52381372,7.494949 1.92077404,6.66901543 C2.31773436,5.84308187 3.15362604,5.31841354 4.07,5.32 L4.07,5.13 L4.08,5.13 Z M9.87,5.13 L9.93,5.3 C10.846374,5.29841354 11.6822656,5.82308187 12.079226,6.64901543 C12.4761863,7.474949 12.3636985,8.45542758 11.79,9.17 L8.07,9.17 C7.73154099,8.7473212 7.54802833,8.22148682 7.55,7.68 C7.55081026,7.50168547 7.57092752,7.32398296 7.61,7.15 C7.85285185,6.08571604 8.78860463,5.32309814 9.88,5.3 L9.88,5.14 L9.87,5.13 Z M7,1.72 C8.31996055,1.72 9.39,2.79003945 9.39,4.11 C9.39,4.16 9.39,4.21 9.39,4.26 C8.40646024,4.41313833 7.53604442,4.98127585 7,5.82 C6.46617942,4.98365321 5.59987704,4.41582476 4.62,4.26 C4.62,4.21 4.62,4.16 4.62,4.11 C4.61998848,2.79393485 5.68394637,1.72550655 7,1.72 Z" id="Shape"></path>
                        <path d="M9,13.39 C9.27618679,13.5092947 9.59697291,13.3845445 9.72,13.11 L10.32,11.74 C10.4273219,11.5573304 10.4201804,11.3292576 10.3016405,11.1536602 C10.1831005,10.9780629 9.97423965,10.8861641 9.76469181,10.9174028 C9.55514397,10.9486415 9.38216894,11.0974631 9.32,11.3 L8.72,12.67 C8.60070531,12.9461868 8.72545546,13.2669729 9,13.39 Z" id="Shape"></path>
                        <path d="M7.4,17.07 C7.67618679,17.1892947 7.99697291,17.0645445 8.12,16.79 L9.12,14.59 C9.22732188,14.4073304 9.22018044,14.1792576 9.10164047,14.0036602 C8.9831005,13.8280629 8.77423965,13.7361641 8.56469181,13.7674028 C8.35514397,13.7986415 8.18216894,13.9474631 8.12,14.15 L7.12,16.35 C7.00070531,16.6261868 7.12545546,16.9469729 7.4,17.07 Z" id="Shape"></path>
                    </g>
                </g>
            </g>
        </g>
    </g>
</svg>