<?xml version="1.0" encoding="UTF-8"?>
<svg width="30px" height="30px" viewBox="0 0 30 30" version="1.1" xmlns="http://www.w3.org/2000/svg" xmlns:xlink="http://www.w3.org/1999/xlink">
    <!-- Generator: sketchtool 51.2 (57519) - http://www.bohemiancoding.com/sketch -->
    <title>36E32191-7CED-4656-8058-6EC90A890B96</title>
    <desc>Created with sketchtool.</desc>
    <defs></defs>
    <g id="FRONTEND" stroke="none" stroke-width="1" fill="none" fill-rule="evenodd">
        <g id="ICONOS" transform="translate(-904.000000, -127.000000)" fill-rule="nonzero">
            <g id="Categorías" transform="translate(64.000000, 50.000000)">
                <g id="parques" transform="translate(840.000000, 77.000000)">
                    <g id="Capa_2" fill="#437038">
                        <rect id="Rectangle-path" x="0" y="0" width="30" height="30"></rect>
                    </g>
                    <g id="Capa_1" transform="translate(3.000000, 3.000000)" fill="#FFFFFF">
                        <path d="M8.5,6.39 C9.6045695,6.39 10.5,5.4945695 10.5,4.39 C10.5,3.2854305 9.6045695,2.39 8.5,2.39 C7.87906713,1.45506765 6.8220406,0.90390382 5.7,0.93 C4.77887415,0.931038353 3.90063643,1.31935007 3.28,2 L3.12,2 C2.23802132,2.00842563 1.44633302,2.54279146 1.10864255,3.35760587 C0.770952087,4.17242028 0.952546511,5.11015195 1.57,5.74 C1.9800327,6.15241462 2.53844714,6.38298575 3.12,6.38 L8.5,6.38 L8.5,6.39 Z M8.5,3.53 C8.98210084,3.53547877 9.37003113,3.92786803 9.37,4.41 C9.36880587,4.64293245 9.27530779,4.86588941 9.11,5.03 C8.94652219,5.19624424 8.72315689,5.28991356 8.49,5.29 L3.12,5.29 C2.51800962,5.29 2.03,4.80199038 2.03,4.2 C2.03,3.59800962 2.51800962,3.11 3.12,3.11 L3.53,3.11 L3.69,3.11 L4,2.89 C4.39758862,2.34529394 5.02582447,2.01639399 5.7,2 C6.51883682,2.00084196 7.26814315,2.46046801 7.64,3.19 L7.78,3.37 L8.5,3.53 Z" id="Shape"></path>
                        <path d="M11.49,17.32 C11.7661424,17.1819288 11.8780712,16.8461424 11.74,16.57 C11.6019288,16.2938576 11.2661424,16.1819288 10.99,16.32 L9.4,17.11 L9.4,15.11 C9.4,14.803482 9.15151804,14.555 8.845,14.555 C8.53848196,14.555 8.29,14.803482 8.29,15.11 L8.29,17.11 L7,16.34 C6.87273926,16.2681941 6.72213559,16.2499807 6.58142622,16.2893794 C6.44071686,16.328778 6.32146905,16.4225498 6.25,16.55 C6.17819415,16.6772607 6.15998074,16.8278644 6.19937936,16.9685738 C6.23877798,17.1092831 6.33254981,17.228531 6.46,17.3 L8.29,18.3 L8.29,22.47 C8.29,22.776518 8.53848196,23.025 8.845,23.025 C9.15151804,23.025 9.4,22.776518 9.4,22.47 L9.4,18.36 L11.48,17.36 L11.49,17.32 Z" id="Shape"></path>
                        <path d="M23,19.22 L17.11,1.29 L17,1.1 L16.87,1 L16.58,0.93 L16.58,1.13 L16.5,0.94 L16.23,1.07 L12.65,11.65 C12.3959708,11.0401407 12.0060648,10.4963244 11.51,10.06 C10.7335502,9.37646274 9.73445505,8.99957986 8.7,9 C7.56764062,9.01109996 6.48701333,9.4757697 5.7,10.29 C4.6852426,11.3349783 4.24471057,12.8096406 4.52,14.24 C3.69988658,14.8722105 3.21370036,15.844583 3.2,16.88 C3.20731177,17.7681241 3.56700346,18.6169965 4.2,19.24 C4.80790065,19.8769812 5.64949731,20.2381815 6.53,20.24 C6.83651804,20.24 7.085,19.991518 7.085,19.685 C7.085,19.378482 6.83651804,19.13 6.53,19.13 C5.94977526,19.1310656 5.39398795,18.89648 4.99,18.48 C4.5080934,17.9838542 4.27745906,17.2957757 4.36300971,16.6094261 C4.44856036,15.9230766 4.84104587,15.3126674 5.43,14.95 L5.56,14.84 L5.66,14.66 L5.66,14.45 L5.66,14.32 C5.57024234,14.0217048 5.52640709,13.7114861 5.53,13.4 C5.52648743,12.5332271 5.86413995,11.6998719 6.47,11.08 C7.63786711,9.87059311 9.55111017,9.7956504 10.81,10.91 C11.394105,11.4288292 11.7765317,12.1370269 11.89,12.91 L11.89,12.99 L11.99,13.15 L12.15,13.28 L12.28,13.12 L12.21,13.31 C13.4140547,13.8231513 14.1994198,15.001199 14.21,16.31 C14.2305384,18.0212397 12.9166706,19.4533556 11.21,19.58 C11.0135039,19.5925043 10.838605,19.7088881 10.751186,19.8853109 C10.663767,20.0617336 10.6771089,20.2713924 10.786186,20.4353109 C10.8952631,20.5992293 11.0835039,20.6925043 11.28,20.68 C12.1829215,20.6186631 13.0420435,20.268001 13.73,19.68 L16,19.56 L16,22.56 C16,22.866518 16.248482,23.115 16.555,23.115 C16.861518,23.115 17.11,22.866518 17.11,22.56 L17.11,19.56 L22.44,19.95 C22.6365953,19.9600332 22.8248604,19.869666 22.94,19.71 L23.02,19.55 C23.047334,19.440552 23.0403518,19.3253459 23,19.22 Z M16.59,15.1 C16.2862434,15.1 16.04,15.3462434 16.04,15.65 L16.04,18.45 L14.72,18.55 C15.8609491,16.5749203 15.3156859,14.0563236 13.46,12.73 L16.6,3.25 L21.74,18.79 L17.15,18.45 L17.15,15.65 C17.1500244,15.5023817 17.0907074,15.3609499 16.9853894,15.2575126 C16.8800714,15.1540752 16.7375939,15.097316 16.59,15.1 Z" id="Shape"></path>
                    </g>
                </g>
            </g>
        </g>
    </g>
</svg>