<?xml version="1.0" encoding="UTF-8"?>
<svg width="30px" height="30px" viewBox="0 0 30 30" version="1.1" xmlns="http://www.w3.org/2000/svg" xmlns:xlink="http://www.w3.org/1999/xlink">
    <!-- Generator: sketchtool 51.2 (57519) - http://www.bohemiancoding.com/sketch -->
    <title>97F38F64-E1C7-4B31-85A5-C6D5024F93C9</title>
    <desc>Created with sketchtool.</desc>
    <defs></defs>
    <g id="FRONTEND" stroke="none" stroke-width="1" fill="none" fill-rule="evenodd">
        <g id="ICONOS" transform="translate(-608.000000, -127.000000)" fill-rule="nonzero">
            <g id="Categorías" transform="translate(64.000000, 50.000000)">
                <g id="restoranes" transform="translate(544.000000, 77.000000)">
                    <g id="Capa_2" fill="#E4A852">
                        <rect id="Rectangle-path" x="0" y="0" width="30" height="30"></rect>
                    </g>
                    <g id="Capa_1" transform="translate(6.000000, 4.000000)" fill="#FFFFFF">
                        <path d="M17.17,6.25 C17.0249171,4.684427 16.5657749,3.16415595 15.82,1.78 C15.377612,0.835805288 14.4682131,0.19656252 13.43,0.1 C12.3792294,0.180899393 11.4521379,0.818036352 11,1.77 C10.2539709,3.15405032 9.79481267,4.67437425 9.65,6.24 C9.55624092,7.15565523 9.89672327,8.06237454 10.57,8.69 L10.94,9.08 C11.2622931,9.36998377 11.5387669,9.70714702 11.76,10.08 L11.76,19.52 C11.7388881,20.0779124 11.896551,20.6279808 12.21,21.09 C12.4735817,21.4837358 12.9161823,21.7200633 13.39,21.7200633 C13.8638177,21.7200633 14.3064183,21.4837358 14.57,21.09 C14.8820372,20.6310663 15.0396667,20.0846174 15.02,19.53 L15.02,10.1 C15.2441522,9.72636157 15.5240446,9.38914178 15.85,9.1 L16.22,8.72 C16.910268,8.09378467 17.262735,7.17737032 17.17,6.25 Z M13.75,20.47 C13.6882576,20.5897979 13.5647727,20.6650758 13.43,20.6650758 C13.2952273,20.6650758 13.1717424,20.5897979 13.11,20.47 C12.9329032,20.1935119 12.8488119,19.8676584 12.87,19.54 L12.87,10 C12.8826926,9.93393747 12.8826926,9.86606253 12.87,9.8 C12.6089304,9.23631927 12.2344724,8.73250299 11.77,8.32 L11.4,8 C10.9364824,7.61305097 10.6964409,7.02044843 10.76,6.42 C10.8875017,4.98270242 11.3095999,3.58705516 12,2.32 C12.45,1.57 13,1.16 13.47,1.16 C13.94,1.16 14.47,1.57 14.94,2.32 C15.6149969,3.57706408 16.026709,4.95851127 16.15,6.38 C16.2158654,7.00302382 15.9548656,7.61580606 15.46,8 L15.12,8.35 C14.6509725,8.75121513 14.2697026,9.24482357 14,9.8 C13.9875466,9.86608509 13.9875466,9.93391491 14,10 L14,19.55 C14.0160776,19.8753905 13.9285486,20.1974971 13.75,20.47 Z" id="Shape"></path>
                        <path d="M7.65,0.75 C7.61636465,0.490441205 7.40143657,0.292370231 7.14,0.28 C6.97488232,0.272824155 6.81586868,0.343085997 6.71,0.47 C6.6021405,0.589339119 6.55431649,0.751204992 6.58,0.91 L7.23,4.91 C7.29507988,5.36201439 7.17221217,5.82096144 6.89,6.18 C6.57880932,6.6113137 6.16220557,6.95561432 5.68,7.18 C5.49743568,7.27057117 5.38141219,7.45620875 5.38,7.66 L5.38,20 C5.39199224,20.2060624 5.30688956,20.4058687 5.15,20.54 C4.99296494,20.6617343 4.79862215,20.7253374 4.6,20.72 C4.25,20.72 3.74,20.53 3.74,20.01 L3.74,7.64 C3.74055514,7.43033537 3.61969677,7.23930118 3.43,7.15 C2.95460445,6.92351072 2.54497768,6.57928655 2.24,6.15 C1.955302,5.79196875 1.82890508,5.33332851 1.89,4.88 L2.54,0.88 C2.56800621,0.727476423 2.52780814,0.570338512 2.43,0.45 C2.31940409,0.331729731 2.16157191,0.269330961 2,0.28 C1.74566915,0.296141204 1.53724276,0.487893482 1.5,0.74 L0.85,4.74 C0.743240669,5.47460171 0.937995715,6.22116272 1.39,6.81 C1.7266036,7.29727266 2.16720791,7.70372159 2.68,8 L2.68,20 C2.6712388,20.5047166 2.87134866,20.9906362 3.2329931,21.3428135 C3.59463754,21.6949908 4.08569333,21.8821435 4.59,21.86 C5.09084456,21.8828114 5.5782991,21.6945297 5.933766,21.3409637 C6.28923289,20.9873977 6.48012562,20.5009597 6.46,20 L6.46,8 C6.97126293,7.71932117 7.41496083,7.33023224 7.76,6.86 C8.21305302,6.27167621 8.40792526,5.52466595 8.3,4.79 L7.65,0.75 Z" id="Shape"></path>
                        <path d="M5.38,6.4 C5.51817079,6.40014095 5.65093417,6.34631795 5.75,6.25 C5.8539678,6.14704548 5.91170626,6.00630798 5.91,5.86 L5.91,0.8 C5.91268518,0.657710701 5.85803372,0.520319791 5.75834692,0.418752102 C5.65866011,0.317184413 5.52231463,0.259974666 5.38,0.26 C5.23768537,0.259974666 5.10133989,0.317184413 5.00165308,0.418752102 C4.90196628,0.520319791 4.84731482,0.657710701 4.85,0.8 L4.85,5.85 C4.84994952,6.14437177 5.0856787,6.38454868 5.38,6.39 L5.38,6.4 Z" id="Shape"></path>
                        <path d="M3.75,6.4 C3.88817079,6.40014095 4.02093417,6.34631795 4.12,6.25 C4.2239678,6.14704548 4.28170626,6.00630798 4.28,5.86 L4.28,0.8 C4.28268518,0.657710701 4.22803372,0.520319791 4.12834692,0.418752102 C4.02866011,0.317184413 3.89231463,0.259974666 3.75,0.26 C3.60768537,0.259974666 3.47133989,0.317184413 3.37165308,0.418752102 C3.27196628,0.520319791 3.21731482,0.657710701 3.22,0.8 L3.22,5.85 C3.21994952,6.14437177 3.4556787,6.38454868 3.75,6.39 L3.75,6.4 Z" id="Shape"></path>
                    </g>
                </g>
            </g>
        </g>
    </g>
</svg>