<?xml version="1.0" encoding="UTF-8"?>
<svg width="25px" height="34px" viewBox="0 0 25 34" version="1.1" xmlns="http://www.w3.org/2000/svg" xmlns:xlink="http://www.w3.org/1999/xlink">
    <!-- Generator: sketchtool 51.2 (57519) - http://www.bohemiancoding.com/sketch -->
    <title>0AC90D7C-12BE-4C9F-8396-09A778CE22BF</title>
    <desc>Created with sketchtool.</desc>
    <defs></defs>
    <g id="FRONTEND" stroke="none" stroke-width="1" fill="none" fill-rule="evenodd">
        <g id="ICONOS" transform="translate(-822.000000, -281.000000)" fill-rule="nonzero">
            <g id="PINS" transform="translate(64.000000, 207.000000)">
                <g id="acuaticas" transform="translate(758.000000, 74.000000)">
                    <g id="Capa_2">
                        <path d="M12.61,33 C11.8881759,33.0071869 11.2113723,32.6499849 10.81,32.05 C8.45,28.69 0.75,17.34 0.75,12.11 C0.75,5.55990287 6.05990287,0.25 12.61,0.25 C19.1600971,0.25 24.47,5.55990287 24.47,12.11 C24.47,17.34 16.77,28.69 14.41,32.04 C14.0109398,32.6437926 13.3337333,33.0049694 12.61,33 Z" id="Shape" fill="#41589D"></path>
                        <path d="M12.61,0.5 C19.0197407,0.505513758 24.2144862,5.70025932 24.22,12.11 C24.22,17.27 16.55,28.56 14.22,31.91 C13.8628375,32.4376579 13.2671718,32.7537565 12.63,32.7537565 C11.9928282,32.7537565 11.3971625,32.4376579 11.04,31.91 C8.67,28.56 1,17.26 1,12.11 C1.00551376,5.70025932 6.20025932,0.505513758 12.61,0.5 Z M12.61,1.11022302e-16 C9.39741477,-0.00265612805 6.31564539,1.27236224 4.04400381,3.54400381 C1.77236224,5.81564539 0.497343872,8.89741477 0.5,12.11 C0.5,17.11 7.15,27.27 10.61,32.19 C11.0607179,32.8516054 11.8094574,33.2475023 12.61,33.2475023 C13.4105426,33.2475023 14.1592821,32.8516054 14.61,32.19 C18.07,27.27 24.72,17.08 24.72,12.11 C24.7226561,8.89741477 23.4476378,5.81564539 21.1759962,3.54400381 C18.9043546,1.27236224 15.8225852,-0.00265612805 12.61,1.11022302e-16 Z" id="Shape" fill="#FFFFFF"></path>
                    </g>
                    <g id="Capa_1" transform="translate(5.000000, 7.000000)" fill="#FFFFFF">
                        <path d="M12.62,0.8 C12.4319347,1.05976323 12.1306953,1.21357012 11.81,1.21357012 C11.4893047,1.21357012 11.1880653,1.05976323 11,0.8 C10.6765545,0.415270802 10.2025424,0.189203519 9.7,0.18 C9.19652083,0.185196674 8.72092144,0.412020996 8.4,0.8 C8.21755788,1.06314963 7.92013135,1.22301639 7.6,1.23 C7.27986865,1.22301639 6.98244212,1.06314963 6.8,0.8 C6.47414303,0.418400785 6.00162784,0.193047384 5.5,0.18 C4.99776489,0.190502398 4.52426149,0.416327096 4.2,0.8 C4.01755788,1.06314963 3.72013135,1.22301639 3.4,1.23 C3.07986865,1.22301639 2.78244212,1.06314963 2.6,0.8 C2.27414303,0.418400785 1.80162784,0.193047384 1.3,0.18 L0.94,0.18 L0.94,0.89 L1.3,0.89 C1.62013135,0.896983614 1.91755788,1.05685037 2.1,1.32 C2.42585697,1.70159922 2.89837216,1.92695262 3.4,1.94 C3.90223511,1.9294976 4.37573851,1.7036729 4.7,1.32 C4.88244212,1.05685037 5.17986865,0.896983614 5.5,0.89 C5.82013135,0.896983614 6.11755788,1.05685037 6.3,1.32 C6.62585697,1.70159922 7.09837216,1.92695262 7.6,1.94 C8.10223511,1.9294976 8.57573851,1.7036729 8.9,1.32 C9.08244212,1.05685037 9.37986865,0.896983614 9.7,0.89 C10.0201314,0.896983614 10.3175579,1.05685037 10.5,1.32 C10.825857,1.70159922 11.2983722,1.92695262 11.8,1.94 C12.3022351,1.9294976 12.7757385,1.7036729 13.1,1.32 C13.2824421,1.05685037 13.5798686,0.896983614 13.9,0.89 L14.26,0.89 L14.26,0.18 L13.9,0.18 C13.4035503,0.191012078 12.9364061,0.417285013 12.62,0.8 Z" id="Shape"></path>
                        <path d="M12.62,5 C12.4319347,5.25976323 12.1306953,5.41357012 11.81,5.41357012 C11.4893047,5.41357012 11.1880653,5.25976323 11,5 C10.6765545,4.6152708 10.2025424,4.38920352 9.7,4.38 C9.19652083,4.38519667 8.72092144,4.612021 8.4,5 C8.21755788,5.26314963 7.92013135,5.42301639 7.6,5.43 C7.27986865,5.42301639 6.98244212,5.26314963 6.8,5 C6.47414303,4.61840078 6.00162784,4.39304738 5.5,4.38 C4.99776489,4.3905024 4.52426149,4.6163271 4.2,5 C4.01755788,5.26314963 3.72013135,5.42301639 3.4,5.43 C3.07986865,5.42301639 2.78244212,5.26314963 2.6,5 C2.27414303,4.61840078 1.80162784,4.39304738 1.3,4.38 L0.94,4.38 L0.94,5.09 L1.3,5.09 C1.62013135,5.09698361 1.91755788,5.25685037 2.1,5.52 C2.42585697,5.90159922 2.89837216,6.12695262 3.4,6.14 C3.90223511,6.1294976 4.37573851,5.9036729 4.7,5.52 C4.88244212,5.25685037 5.17986865,5.09698361 5.5,5.09 C5.82013135,5.09698361 6.11755788,5.25685037 6.3,5.52 C6.62585697,5.90159922 7.09837216,6.12695262 7.6,6.14 C8.10223511,6.1294976 8.57573851,5.9036729 8.9,5.52 C9.08244212,5.25685037 9.37986865,5.09698361 9.7,5.09 C10.0201314,5.09698361 10.3175579,5.25685037 10.5,5.52 C10.825857,5.90159922 11.2983722,6.12695262 11.8,6.14 C12.3022351,6.1294976 12.7757385,5.9036729 13.1,5.52 C13.2824421,5.25685037 13.5798686,5.09698361 13.9,5.09 L14.26,5.09 L14.26,4.38 L13.9,4.38 C13.401924,4.38416423 12.9320411,4.61176374 12.62,5 Z" id="Shape"></path>
                        <path d="M12.62,9.13 C12.4315119,9.38575482 12.1327079,9.53672519 11.815,9.53672519 C11.4972921,9.53672519 11.1984881,9.38575482 11.01,9.13 C10.6865545,8.7452708 10.2125424,8.51920352 9.71,8.51 C9.20652083,8.51519667 8.73092144,8.742021 8.41,9.13 C8.22755788,9.39314963 7.93013135,9.55301639 7.61,9.56 C7.28986865,9.55301639 6.99244212,9.39314963 6.81,9.13 C6.48414303,8.74840078 6.01162784,8.52304738 5.51,8.51 C5.00776489,8.5205024 4.53426149,8.7463271 4.21,9.13 C4.02755788,9.39314963 3.73013135,9.55301639 3.41,9.56 C3.08986865,9.55301639 2.79244212,9.39314963 2.61,9.13 C2.28414303,8.74840078 1.81162784,8.52304738 1.31,8.51 L0.94,8.51 L0.94,9.22 L1.3,9.22 C1.62013135,9.22698361 1.91755788,9.38685037 2.1,9.65 C2.42585697,10.0315992 2.89837216,10.2569526 3.4,10.27 C3.90223511,10.2594976 4.37573851,10.0336729 4.7,9.65 C4.88244212,9.38685037 5.17986865,9.22698361 5.5,9.22 C5.82013135,9.22698361 6.11755788,9.38685037 6.3,9.65 C6.62585697,10.0315992 7.09837216,10.2569526 7.6,10.27 C8.10223511,10.2594976 8.57573851,10.0336729 8.9,9.65 C9.08244212,9.38685037 9.37986865,9.22698361 9.7,9.22 C10.0201314,9.22698361 10.3175579,9.38685037 10.5,9.65 C10.825857,10.0315992 11.2983722,10.2569526 11.8,10.27 C12.3022351,10.2594976 12.7757385,10.0336729 13.1,9.65 C13.2824421,9.38685037 13.5798686,9.22698361 13.9,9.22 L14.26,9.22 L14.26,8.51 L13.9,8.51 C13.4035503,8.52101208 12.9364061,8.74728501 12.62,9.13 Z" id="Shape"></path>
                    </g>
                </g>
            </g>
        </g>
    </g>
</svg>