<?xml version="1.0" encoding="UTF-8"?>
<svg width="25px" height="34px" viewBox="0 0 25 34" version="1.1" xmlns="http://www.w3.org/2000/svg" xmlns:xlink="http://www.w3.org/1999/xlink">
    <!-- Generator: sketchtool 51.2 (57519) - http://www.bohemiancoding.com/sketch -->
    <title>618DB1F4-F92F-461F-AC2B-415FF25E58D6</title>
    <desc>Created with sketchtool.</desc>
    <defs></defs>
    <g id="FRONTEND" stroke="none" stroke-width="1" fill="none" fill-rule="evenodd">
        <g id="ICONOS" transform="translate(-781.000000, -281.000000)" fill-rule="nonzero">
            <g id="PINS" transform="translate(64.000000, 207.000000)">
                <g id="afterschool" transform="translate(717.000000, 74.000000)">
                    <g id="Capa_2">
                        <path d="M12.72,33 C11.9981759,33.0071869 11.3213723,32.6499849 10.92,32.05 C8.57,28.69 0.87,17.34 0.87,12.11 C0.87,5.55990287 6.17990287,0.25 12.73,0.25 C19.2800971,0.25 24.59,5.55990287 24.59,12.11 C24.59,17.34 16.89,28.69 14.53,32.04 C14.1290044,32.6467884 13.4472686,33.008372 12.72,33 Z" id="Shape" fill="#2E2A59"></path>
                        <path d="M12.72,0.5 C19.1297407,0.505513758 24.3244862,5.70025932 24.33,12.11 C24.33,17.27 16.66,28.56 14.33,31.91 C13.9728375,32.4376579 13.3771718,32.7537565 12.74,32.7537565 C12.1028282,32.7537565 11.5071625,32.4376579 11.15,31.91 C8.8,28.57 1.15,17.28 1.15,12.12 C1.14994077,5.72192682 6.32198605,0.527530435 12.72,0.5 Z M12.72,-2.49800858e-15 C9.50914711,-1.09652806e-06 6.42994833,1.27618929 4.16047047,3.54754275 C1.89099262,5.81889621 0.617346403,8.89914821 0.62,12.11 C0.62,17.11 7.27,27.27 10.73,32.19 C11.1807179,32.8516054 11.9294574,33.2475023 12.73,33.2475023 C13.5305426,33.2475023 14.2792821,32.8516054 14.73,32.19 C18.19,27.27 24.84,17.08 24.84,12.11 C24.8426609,8.89567984 23.5662705,5.81239111 21.2924643,3.54046098 C19.0186581,1.26853085 15.9343169,-0.00531402905 12.72,-6.77626358e-21 Z" id="Shape" fill="#FFFFFF"></path>
                    </g>
                    <g id="Capa_1" transform="translate(5.000000, 6.000000)" fill="#FFFFFF">
                        <path d="M14.6,9.24 C13.8331363,8.69887178 12.7740501,8.8724195 12.22,9.63 C11.9135109,10.1361289 11.735025,10.7093433 11.7,11.3 C11.4417434,11.1229843 11.2006847,10.922102 10.98,10.7 L10.42,10.14 L7.88,0.89 C7.84197659,0.759533567 7.72569746,0.667312193 7.59,0.66 L0.45,0.4 L0.39,0.4 C0.269878339,0.416102697 0.171244474,0.502900499 0.14,0.62 L0.39,7.76 C0.39867138,7.89847418 0.495590582,8.01558488 0.63,8.05 L9.93,10.53 L10.48,11.08 C10.8278684,11.4311184 11.2213989,11.7338341 11.65,11.98 C11.6719656,13.085843 11.8161757,14.1858641 12.08,15.26 C12.1164949,15.4013441 12.2440205,15.5000736 12.39,15.5 L12.47,15.5 C12.5522398,15.4788197 12.6226876,15.4258176 12.6658274,15.3526675 C12.7089673,15.2795173 12.7212606,15.1922191 12.7,15.11 C12.4806101,14.1909981 12.3467063,13.253671 12.3,12.31 C12.5825424,12.4113497 12.8798653,12.4654084 13.18,12.47 L13.25,12.47 C13.9238219,12.4693807 14.5634807,12.1733101 15,11.66 C15.2643235,11.2875139 15.3696401,10.8251907 15.2927277,10.3749715 C15.2158152,9.92475235 14.9629902,9.52361167 14.59,9.26 L14.6,9.24 Z M6.79,1.24 L4.15,4 L1.23,1.06 L6.79,1.24 Z M1,7.17 L0.8,1.51 L3.67,4.38 L1,7.23 L1,7.17 Z M1.42,7.71 L4.14,4.91 L9,9.74 L1.42,7.71 Z M9.42,9.22 L4.62,4.42 L7.4,1.54 L9.45,9.24 L9.42,9.22 Z M14.53,11.22 C14.2326443,11.6168799 13.7751323,11.8621063 13.28,11.89 L13.2,11.89 C12.8887738,11.8824555 12.5824259,11.8109744 12.3,11.68 C12.2903394,11.0928683 12.4351786,10.5135112 12.72,10 C13.0804305,9.5538718 13.7249243,9.46337073 14.1942851,9.79297803 C14.6636459,10.1225853 14.7972912,10.7595324 14.5,11.25 L14.53,11.22 Z" id="Shape"></path>
                    </g>
                </g>
            </g>
        </g>
    </g>
</svg>