<?xml version="1.0" encoding="UTF-8"?>
<svg width="25px" height="34px" viewBox="0 0 25 34" version="1.1" xmlns="http://www.w3.org/2000/svg" xmlns:xlink="http://www.w3.org/1999/xlink">
    <!-- Generator: sketchtool 51.2 (57519) - http://www.bohemiancoding.com/sketch -->
    <title>09B6A79B-37FC-42F6-B69A-11285BA1EE22</title>
    <desc>Created with sketchtool.</desc>
    <defs></defs>
    <g id="FRONTEND" stroke="none" stroke-width="1" fill="none" fill-rule="evenodd">
        <g id="ICONOS" transform="translate(-739.000000, -281.000000)" fill-rule="nonzero">
            <g id="PINS" transform="translate(64.000000, 207.000000)">
                <g id="animales" transform="translate(675.000000, 74.000000)">
                    <g id="Capa_2">
                        <path d="M12.47,33 C11.7481759,33.0071869 11.0713723,32.6499849 10.67,32.05 C8.32,28.69 0.62,17.34 0.62,12.11 C0.62,5.55990287 5.92990287,0.25 12.48,0.25 C19.0300971,0.25 24.34,5.55990287 24.34,12.11 C24.34,17.34 16.64,28.69 14.28,32.04 C13.8790044,32.6467884 13.1972686,33.008372 12.47,33 Z" id="Shape" fill="#724F2B"></path>
                        <path d="M12.47,0.5 C18.8797407,0.505513758 24.0744862,5.70025932 24.08,12.11 C24.08,17.27 16.41,28.56 14.08,31.91 C13.7228375,32.4376579 13.1271718,32.7537565 12.49,32.7537565 C11.8528282,32.7537565 11.2571625,32.4376579 10.9,31.91 C8.53,28.56 0.87,17.27 0.87,12.11 C0.875503291,5.70415779 6.06416491,0.511023186 12.47,0.5 Z M12.47,-1.16574434e-15 C9.25914711,-1.09652805e-06 6.17994833,1.27618929 3.91047047,3.54754275 C1.64099262,5.81889621 0.367346403,8.89914821 0.37,12.11 C0.37,17.11 7.02,27.27 10.48,32.19 C10.9307179,32.8516054 11.6794574,33.2475023 12.48,33.2475023 C13.2805426,33.2475023 14.0292821,32.8516054 14.48,32.19 C17.94,27.27 24.59,17.08 24.59,12.11 C24.5926609,8.89567984 23.3162705,5.81239111 21.0424643,3.54046098 C18.7686581,1.26853085 15.6843169,-0.00531402905 12.47,-1.16574434e-15 Z" id="Shape" fill="#FFFFFF"></path>
                    </g>
                    <g id="Capa_1" transform="translate(4.000000, 3.000000)" fill="#FFFFFF">
                        <path d="M8.43,6.57 C5.88,6.57 3.64,10.17 3.64,12.35 C3.64,13.86 4.53,15.04 5.64,15.04 C6.14485861,14.9870131 6.6255721,14.7968027 7.03,14.49 C7.42875322,14.186548 7.90211106,13.9965139 8.4,13.94 C8.89752408,13.9979541 9.37051452,14.1878407 9.77,14.49 C10.1782638,14.7967052 10.6621444,14.9868012 11.17,15.04 C12.31,15.04 13.17,13.86 13.17,12.35 C13.23,10.17 11,6.57 8.43,6.57 Z M11.2,14.28 C10.8363933,14.2150292 10.4935546,14.0641802 10.2,13.84 C9.68366481,13.4581874 9.07026282,13.2294612 8.43,13.18 C7.79284967,13.2297035 7.1827265,13.4584996 6.67,13.84 C6.37704688,14.065197 6.03395005,14.2161596 5.67,14.28 C4.98,14.28 4.4,13.39 4.4,12.35 C4.4,10.35 6.56,7.35 8.4,7.35 C10.24,7.35 12.4,10.35 12.4,12.35 C12.47,13.39 11.89,14.28 11.2,14.28 Z" id="Shape"></path>
                        <path d="M6.19,5.55 C6.31829844,5.54987454 6.44603597,5.53306697 6.57,5.5 C7.07222179,5.35585872 7.47878851,4.98625261 7.67,4.5 C7.87216702,3.96531523 7.89671261,3.37972763 7.74,2.83 C7.5652344,1.84490746 6.75578325,1.09677837 5.76,1 C5.63385248,0.983781675 5.50614752,0.983781675 5.38,1 C4.87777821,1.14414128 4.47121149,1.51374739 4.28,2 C4.07783298,2.53468477 4.05328739,3.12027237 4.21,3.67 C4.36439087,4.67469046 5.17866308,5.44783782 6.19,5.55 Z M5,2.35 C5.09643744,2.07585922 5.31425089,1.86173752 5.59,1.77 L5.78,1.77 C6.3,1.77 6.83,2.3 7.02,3.01 C7.14602748,3.39665642 7.14602748,3.81334358 7.02,4.2 C6.92356256,4.47414078 6.70574911,4.68826248 6.43,4.78 L6.24,4.78 C5.72,4.78 5.19,4.25 5,3.54 C4.87465904,3.15323482 4.87465904,2.73676518 5,2.35 Z" id="Shape"></path>
                        <path d="M4,6.31 C3.81118966,5.3300807 2.99432525,4.59490273 2,4.51 C1.87170901,4.51023788 1.74398592,4.52704355 1.62,4.56 C1.11777821,4.70414128 0.711211489,5.07374739 0.52,5.56 C0.317832976,6.09468477 0.293287388,6.68027237 0.45,7.23 C0.634836854,8.21385029 1.4526416,8.95396358 2.45,9.04 C2.56450441,9.03995418 2.67861135,9.02652984 2.79,9 C3.85716766,8.58097547 4.39446517,7.38648763 4,6.31 Z M2.64,8.31 L2.46,8.31 C1.82342003,8.20184403 1.32326549,7.70569072 1.21,7.07 C1.08397252,6.68334358 1.08397252,6.26665642 1.21,5.88 C1.30643744,5.60585922 1.52425089,5.39173752 1.8,5.3 C2.36,5.15 3.02,5.72 3.23,6.52 C3.44,7.32 3.15,8.13 2.59,8.28 L2.64,8.31 Z" id="Shape"></path>
                        <path d="M15.25,4.72 C15.126036,4.68693303 14.9982984,4.67012546 14.87,4.67 C13.8726416,4.75603642 13.0548369,5.49614971 12.87,6.48 C12.4645615,7.54833577 12.9832391,8.745284 14.04,9.18 C14.163964,9.21306697 14.2917016,9.22987454 14.42,9.23 C15.4173584,9.14396358 16.2351631,8.40385029 16.42,7.42 C16.8254385,6.35166423 16.3067609,5.154716 15.25,4.72 Z M15.68,7.22 C15.5680424,7.85270094 15.0727009,8.34804244 14.44,8.46 L14.25,8.46 C13.69,8.31 13.4,7.46 13.62,6.69 C13.84,5.92 14.48,5.32 15.05,5.47 C15.62,5.62 15.9,6.41 15.68,7.22 Z" id="Shape"></path>
                        <path d="M10.28,5.49 C10.403964,5.52306697 10.5317016,5.53987454 10.66,5.54 C11.6573584,5.45396358 12.4751631,4.71385029 12.66,3.73 C12.8198952,3.15747305 12.7811213,2.54766463 12.55,2 C12.368911,1.51796658 11.9731658,1.14811129 11.48,1 C11.3505615,0.982913097 11.2194385,0.982913097 11.09,1 C10.0926416,1.08603642 9.27483685,1.82614971 9.09,2.81 C8.93328739,3.35972763 8.95783298,3.94531523 9.16,4.48 C9.35139998,4.97567017 9.76725029,5.35067804 10.28,5.49 Z M9.85,3 C10.04,2.29 10.57,1.76 11.09,1.76 L11.28,1.76 C11.84,1.91 12.13,2.76 11.91,3.53 C11.8220978,3.91198724 11.6238876,4.25972442 11.34,4.53 C11.1611953,4.70764986 10.9218999,4.81122547 10.67,4.82 L10.48,4.82 C10.2042509,4.72826248 9.98643744,4.51414078 9.89,4.24 C9.73981282,3.84248207 9.72574472,3.40637091 9.85,3 Z" id="Shape"></path>
                    </g>
                </g>
            </g>
        </g>
    </g>
</svg>