<?xml version="1.0" encoding="UTF-8"?>
<svg width="25px" height="34px" viewBox="0 0 25 34" version="1.1" xmlns="http://www.w3.org/2000/svg" xmlns:xlink="http://www.w3.org/1999/xlink">
    <!-- Generator: sketchtool 51.2 (57519) - http://www.bohemiancoding.com/sketch -->
    <title>379F1F03-63A4-41AF-911E-AA27507F1EF4</title>
    <desc>Created with sketchtool.</desc>
    <defs></defs>
    <g id="FRONTEND" stroke="none" stroke-width="1" fill="none" fill-rule="evenodd">
        <g id="ICONOS" transform="translate(-697.000000, -281.000000)" fill-rule="nonzero">
            <g id="PINS" transform="translate(64.000000, 207.000000)">
                <g id="atracciones" transform="translate(633.000000, 74.000000)">
                    <g id="Capa_2">
                        <path d="M12.19,33 C11.4620874,32.992808 10.7877499,32.6160832 10.4,32 C8,28.69 0.34,17.34 0.34,12.11 C0.34,5.55990287 5.64990287,0.25 12.2,0.25 C18.7500971,0.25 24.06,5.55990287 24.06,12.11 C24.06,17.34 16.36,28.69 14,32.04 C13.5990044,32.6467884 12.9172686,33.008372 12.19,33 Z" id="Shape" fill="#62507B"></path>
                        <path d="M12.19,0.5 C18.5997407,0.505513758 23.7944862,5.70025932 23.8,12.11 C23.8,17.27 16.13,28.56 13.8,31.91 C13.4428375,32.4376579 12.8471718,32.7537565 12.21,32.7537565 C11.5728282,32.7537565 10.9771625,32.4376579 10.62,31.91 C8.27,28.57 0.62,17.28 0.62,12.12 C0.619940769,5.72192682 5.79198605,0.527530435 12.19,0.5 Z M12.19,-2.49800181e-15 C8.97914711,-1.09652805e-06 5.89994833,1.27618929 3.63047047,3.54754275 C1.36099262,5.81889621 0.0873464026,8.89914821 0.09,12.11 C0.09,17.11 6.74,27.27 10.2,32.19 C10.6507179,32.8516054 11.3994574,33.2475023 12.2,33.2475023 C13.0005426,33.2475023 13.7492821,32.8516054 14.2,32.19 C17.66,27.27 24.3,17.07 24.3,12.11 C24.3026561,8.89741477 23.0276378,5.81564539 20.7559962,3.54400381 C18.4843546,1.27236224 15.4025852,-0.00265612805 12.19,0 Z" id="Shape" fill="#FFFFFF"></path>
                    </g>
                    <g id="Capa_1" transform="translate(5.000000, 4.000000)" fill="#FFFFFF">
                        <path d="M14.06,8.37 L12.35,5.12 C12.2764255,4.99662295 12.1436473,4.92074966 12,4.92 L3.24,4.92 C3.08926198,4.91350947 2.94713914,4.99033262 2.87,5.12 L1.16,8.37 C1.15710864,8.39658829 1.15710864,8.42341171 1.16,8.45 L1.16,8.58 C1.1576608,8.60327471 1.1576608,8.62672529 1.16,8.65 L1.16,8.73 C1.18012672,8.77703265 1.20708375,8.82083783 1.24,8.86 L2.33,10.12 L3.33,11.23 L6.84,15.23 C7.01,15.43 7.18,15.63 7.35,15.82 L7.4,15.82 L7.47,15.82 L7.71,15.82 L7.8,15.82 L7.89,15.76 L9.05,14.43 L9.95,13.43 L13.52,9.33 L14,8.9 C14.0366882,8.8579881 14.0670113,8.81081872 14.09,8.76 L14.09,8.69 C14.0934731,8.66010052 14.0934731,8.62989948 14.09,8.6 C14.1002698,8.52202902 14.0899262,8.44272802 14.06,8.37 Z M8.54,5.75 L8.61,5.94 L8.84,6.53 L9.46,8.18 L5.76,8.18 L6.68,5.75 L8.54,5.75 Z M2.19,8.17 L3.47,5.75 L5.8,5.75 L4.88,8.17 L2.19,8.17 Z M2.41,9 L4.87,9 L5,9.38 L5.58,11.06 L6.5,13.71 L2.41,9 Z M7.6,14.35 L6.47,11.1 L5.86,9.35 L5.74,9 L9.47,9 L9.4,9.18 L8.81,10.86 L7.6,14.35 Z M8.69,13.72 L9.53,11.31 L10.14,9.56 L10.33,9.01 L12.8,9.01 L8.69,13.72 Z M10.33,8.18 L10.33,8.1 L10,7.38 L9.38,5.75 L11.72,5.75 L13,8.18 L10.33,8.18 Z" id="Shape"></path>
                        <path d="M7.6,3.49 C7.82030105,3.47955446 7.99499634,3.30049178 8,3.08 L8,1.08 C7.9952415,0.965323216 7.94483441,0.857308027 7.86,0.78 C7.79127774,0.71041139 7.69779867,0.67086255 7.6,0.67 C7.37189019,0.669935334 7.18543118,0.851954844 7.18,1.08 L7.18,3.08 C7.1847585,3.19467678 7.23516559,3.30269197 7.32,3.38 C7.39201141,3.4569533 7.49486542,3.49736023 7.6,3.49 Z" id="Shape"></path>
                        <path d="M1.87,4 C1.97126179,4.00183158 2.06884799,3.96207424 2.14,3.89 C2.30139131,3.72644412 2.30139131,3.46355588 2.14,3.3 L1,2.09 L0.82,1.91 C0.739402212,1.83252145 0.631797401,1.78947952 0.52,1.79 C0.418738215,1.78816842 0.321152006,1.82792576 0.25,1.9 C0.0886086914,2.06355588 0.0886086914,2.32644412 0.25,2.49 L1.56,3.84 C1.63608591,3.93473727 1.74870178,3.99286159 1.87,4 Z" id="Shape"></path>
                        <path d="M15,1.92 C14.9183039,1.84424024 14.8114074,1.80148162 14.7,1.8 C14.5944923,1.80150282 14.4938522,1.84463429 14.42,1.92 L13.07,3.26 C12.9910035,3.34366701 12.9479259,3.45495086 12.95,3.57 C12.9481684,3.67126179 12.9879258,3.76884799 13.06,3.84 C13.2235559,4.00139131 13.4864441,4.00139131 13.65,3.84 L14.82,2.66 L15,2.49 C15.079939,2.40693104 15.1231736,2.2952416 15.12,2.18 C15.1165179,2.08074002 15.0732753,1.98704775 15,1.92 Z" id="Shape"></path>
                    </g>
                </g>
            </g>
        </g>
    </g>
</svg>