<?xml version="1.0" encoding="UTF-8"?>
<svg width="30px" height="30px" viewBox="0 0 30 30" version="1.1" xmlns="http://www.w3.org/2000/svg" xmlns:xlink="http://www.w3.org/1999/xlink">
    <!-- Generator: sketchtool 51.2 (57519) - http://www.bohemiancoding.com/sketch -->
    <title>3084AD34-10CF-409D-8610-2B2FC33755E5</title>
    <desc>Created with sketchtool.</desc>
    <defs></defs>
    <g id="FRONTEND" stroke="none" stroke-width="1" fill="none" fill-rule="evenodd">
        <g id="ICONOS" transform="translate(-509.000000, -127.000000)" fill-rule="nonzero">
            <g id="Categorías" transform="translate(64.000000, 50.000000)">
                <g id="atracciones" transform="translate(445.000000, 77.000000)">
                    <g id="Capa_2" fill="#62507B">
                        <rect id="Rectangle-path" x="0" y="0" width="30" height="30"></rect>
                    </g>
                    <g id="Capa_1" transform="translate(4.000000, 4.000000)" fill="#FFFFFF">
                        <path d="M19.85,11.07 L17.51,6.61 C17.4069779,6.4435479 17.225748,6.34160612 17.03,6.34 L5,6.34 C4.79363532,6.33094159 4.59851886,6.43423854 4.49,6.61 L2.15,11.07 C2.14603419,11.1065594 2.14603419,11.1434406 2.15,11.18 L2.15,11.36 C2.14718129,11.3899338 2.14718129,11.4200662 2.15,11.45 L2.15,11.5 C2.17763055,11.5650751 2.21469493,11.625726 2.26,11.68 L3.76,13.4 L5.07,15 L9.88,20.54 C10.11,20.81 10.34,21.08 10.59,21.35 L10.65,21.35 L10.72,21.35 L10.81,21.35 L11.1,21.35 L11.22,21.3 L11.34,21.22 L13,19.56 L14.24,18.14 L19.14,12.51 L19.76,11.79 C19.8124927,11.7334454 19.8563031,11.6694148 19.89,11.6 L19.89,11.51 C19.8945429,11.470129 19.8945429,11.429871 19.89,11.39 L19.89,11.32 C19.8940045,11.2348024 19.8803873,11.1496949 19.85,11.07 Z M12.27,7.47 L12.37,7.73 L12.68,8.55 L13.54,10.81 L8.46,10.81 L9.72,7.48 L12.27,7.47 Z M3.57,10.8 L5.32,7.47 L8.52,7.47 L7.26,10.78 L7.13,10.78 L3.57,10.78 L3.57,10.8 Z M3.87,11.93 L7.24,11.93 L7.42,12.46 L8.22,14.76 L9.49,18.4 L3.87,11.93 Z M11,19.27 L9.45,14.82 L8.61,12.41 L8.44,11.93 L13.56,11.93 L13.47,12.17 L12.67,14.48 L11,19.27 Z M12.5,18.4 L13.65,15.09 L14.49,12.68 L14.75,11.92 L18.12,11.92 L12.5,18.4 Z M14.74,10.8 L14.74,10.68 L14.37,9.68 L13.52,7.44 L16.72,7.44 L18.47,10.77 L14.74,10.8 Z" id="Shape"></path>
                        <path d="M11,4.37 C11.3125619,4.3646559 11.5646559,4.11256195 11.57,3.8 L11.57,1 C11.5662423,0.84002723 11.497668,0.688441905 11.38,0.58 C11.2748491,0.49012085 11.137699,0.4468103 11,0.46 C10.6851977,0.46 10.43,0.715197693 10.43,1.03 L10.43,3.8 C10.4337577,3.95997277 10.502332,4.1115581 10.62,4.22 C10.7187886,4.32293741 10.8575362,4.3777062 11,4.37 Z" id="Shape"></path>
                        <path d="M3.13,5 C3.27007228,4.9997403 3.40387204,4.94188094 3.5,4.84 C3.71975909,4.61471672 3.71975909,4.25528328 3.5,4.03 L1.92,2.45 L1.67,2.2 C1.56638796,2.08013041 1.41824755,2.0078668 1.26,2 C1.11992772,2.0002597 0.986127959,2.05811906 0.89,2.16 C0.670240911,2.38528328 0.670240911,2.74471672 0.89,2.97 L2.71,4.85 C2.82498242,4.95302533 2.97576679,5.00687689 3.13,5 Z" id="Shape"></path>
                        <path d="M21.13,2.21 C21.0236311,2.08676003 20.8724133,2.01115114 20.71,2 C20.563692,1.99829374 20.4229545,2.0560322 20.32,2.16 L18.49,4.05 C18.3818072,4.16647689 18.3242618,4.32113021 18.33,4.48 C18.3302597,4.62007228 18.3881191,4.75387204 18.49,4.85 C18.714,5.06333333 19.066,5.06333333 19.29,4.85 L20.89,3.23 L21.12,3 C21.2291618,2.88412276 21.2868635,2.72904943 21.28,2.57 C21.279669,2.43486642 21.2257197,2.30538829 21.13,2.21 Z" id="Shape"></path>
                    </g>
                </g>
            </g>
        </g>
    </g>
</svg>