<?xml version="1.0" encoding="UTF-8"?>
<svg width="30px" height="30px" viewBox="0 0 30 30" version="1.1" xmlns="http://www.w3.org/2000/svg" xmlns:xlink="http://www.w3.org/1999/xlink">
    <!-- Generator: sketchtool 51.2 (57519) - http://www.bohemiancoding.com/sketch -->
    <title>FE1CBC9F-BA27-44F2-BF4B-DEBE9C03F1B4</title>
    <desc>Created with sketchtool.</desc>
    <defs></defs>
    <g id="FRONTEND" stroke="none" stroke-width="1" fill="none" fill-rule="evenodd">
        <g id="ICONOS" transform="translate(-460.000000, -127.000000)" fill-rule="nonzero">
            <g id="Categorías" transform="translate(64.000000, 50.000000)">
                <g id="cine" transform="translate(396.000000, 77.000000)">
                    <g id="Capa_2" fill="#42325A">
                        <rect id="Rectangle-path" x="0" y="0" width="30" height="30"></rect>
                    </g>
                    <g id="Capa_1" transform="translate(4.000000, 5.000000)" fill="#FFFFFF">
                        <path d="M21.27,8.68 C21.1757507,8.68179941 21.0832515,8.70578069 21,8.75 L17,10.84 L17,9.51 C17.0015999,9.21171464 16.7766897,8.96085326 16.48,8.93 L14.48,8.93 L14.76,8.67 C16.1570822,7.40790951 16.6183942,5.4082404 15.9153918,3.66167268 C15.2123895,1.91510495 13.4943939,0.792618176 11.6125379,0.850316955 C9.73068191,0.908015733 8.08468093,2.13364456 7.49,3.92 L7.41,4.16 L7.23,4 C5.92614816,2.60748014 3.74881821,2.51127218 2.32722724,3.78336506 C0.90563627,5.05545794 0.76031408,7.23006207 2,8.68 L2.23,8.93 L0.73,8.93 C0.409674845,8.93 0.15,9.18967485 0.15,9.51 L0.15,18.31 C0.15,18.6303252 0.409674845,18.89 0.73,18.89 L16.38,18.89 C16.7003252,18.89 16.96,18.6303252 16.96,18.31 L16.96,17 L20.96,19.09 C21.1009737,19.1477916 21.2590263,19.1477916 21.4,19.09 C21.6420592,19.0158009 21.8080216,18.7931684 21.81,18.54 L21.81,9.27 C21.8160638,8.96082624 21.5785011,8.70126697 21.27,8.68 Z M11.73,2 C13.5691082,2 15.06,3.49089178 15.06,5.33 C15.06,7.16910822 13.5691082,8.66 11.73,8.66 C9.89089178,8.66 8.4,7.16910822 8.4,5.33 C8.4,3.49089178 9.89089178,2 11.73,2 Z M7.25,8.65 C7.45893184,8.42443716 7.63714103,8.17225434 7.78,7.9 L7.89,7.68 L8.03,7.89 C8.22460392,8.16728116 8.44930578,8.42216686 8.7,8.65 L8.98,8.91 L7,8.91 L7.25,8.65 Z M4.64,4 C5.93786916,4 6.99,5.05213084 6.99,6.35 C6.99,7.64786916 5.93786916,8.7 4.64,8.7 C3.34213084,8.7 2.29,7.64786916 2.29,6.35 C2.29,5.05213084 3.34213084,4 4.64,4 Z M15.79,17.73 L1.32,17.73 L1.32,10.1 L15.79,10.1 L15.79,17.73 Z M20.68,17.6 L17,15.67 L17,12.16 L20.72,10.23 L20.68,17.6 Z" id="Shape"></path>
                    </g>
                </g>
            </g>
        </g>
    </g>
</svg>