<?xml version="1.0" encoding="UTF-8"?>
<svg width="25px" height="34px" viewBox="0 0 25 34" version="1.1" xmlns="http://www.w3.org/2000/svg" xmlns:xlink="http://www.w3.org/1999/xlink">
    <!-- Generator: sketchtool 51.2 (57519) - http://www.bohemiancoding.com/sketch -->
    <title>5176F245-3051-4118-A5F7-D671F942F5D7</title>
    <desc>Created with sketchtool.</desc>
    <defs></defs>
    <g id="FRONTEND" stroke="none" stroke-width="1" fill="none" fill-rule="evenodd">
        <g id="ICONOS" transform="translate(-656.000000, -281.000000)" fill-rule="nonzero">
            <g id="PINS" transform="translate(64.000000, 207.000000)">
                <g id="cine" transform="translate(592.000000, 74.000000)">
                    <g id="Capa_2">
                        <path d="M12.19,33 C11.4620874,32.992808 10.7877499,32.6160832 10.4,32 C8,28.69 0.34,17.34 0.34,12.11 C0.34,5.55990287 5.64990287,0.25 12.2,0.25 C18.7500971,0.25 24.06,5.55990287 24.06,12.11 C24.06,17.34 16.36,28.69 14,32.04 C13.5990044,32.6467884 12.9172686,33.008372 12.19,33 Z" id="Shape" fill="#42325A"></path>
                        <path d="M12.19,0.5 C18.5997407,0.505513758 23.7944862,5.70025932 23.8,12.11 C23.8,17.27 16.13,28.56 13.8,31.91 C13.4428375,32.4376579 12.8471718,32.7537565 12.21,32.7537565 C11.5728282,32.7537565 10.9771625,32.4376579 10.62,31.91 C8.27,28.57 0.62,17.28 0.62,12.12 C0.619940769,5.72192682 5.79198605,0.527530435 12.19,0.5 Z M12.19,-2.49800181e-15 C8.97914711,-1.09652805e-06 5.89994833,1.27618929 3.63047047,3.54754275 C1.36099262,5.81889621 0.0873464026,8.89914821 0.09,12.11 C0.09,17.11 6.74,27.27 10.2,32.19 C10.6507179,32.8516054 11.3994574,33.2475023 12.2,33.2475023 C13.0005426,33.2475023 13.7492821,32.8516054 14.2,32.19 C17.66,27.27 24.3,17.07 24.3,12.11 C24.3026561,8.89741477 23.0276378,5.81564539 20.7559962,3.54400381 C18.4843546,1.27236224 15.4025852,-0.00265612805 12.19,0 Z" id="Shape" fill="#FFFFFF"></path>
                    </g>
                    <g id="Capa_1" transform="translate(4.000000, 4.000000)" fill="#FFFFFF">
                        <path d="M15.68,6 C15.6174225,5.98616257 15.5525775,5.98616257 15.49,6 L12.55,7.53 L12.55,6.53 C12.5562608,6.30898859 12.3901035,6.12096849 12.17,6.1 L10.73,6.1 L10.94,5.91 C11.9527,4.98905203 12.2846199,3.53480059 11.7717873,2.26566343 C11.2589546,0.996526265 10.0099085,0.181111213 8.6416926,0.222243138 C7.27347675,0.263375064 6.07566867,1.15234856 5.64,2.45 L5.58,2.62 L5.46,2.48 C4.48797884,1.43065898 2.84934102,1.36797884 1.8,2.34 C0.750658975,3.31202116 0.68797884,4.95065898 1.66,6 L1.82,6.18 L0.71,6.18 C0.472517558,6.18 0.28,6.37251756 0.28,6.61 L0.28,13 C0.28,13.2374824 0.472517558,13.43 0.71,13.43 L12.11,13.43 C12.3474824,13.43 12.54,13.2374824 12.54,13 L12.54,12 L15.48,13.52 C15.5826945,13.5611679 15.6973055,13.5611679 15.8,13.52 C15.9752091,13.4644831 16.0957624,13.3037455 16.1,13.12 L16.1,6.4 C16.0845297,6.17810538 15.902385,6.00463423 15.68,6 Z M8.68,1.15 C9.66985737,1.12970119 10.5730551,1.71197266 10.9631986,2.6219274 C11.3533422,3.53188215 11.1524115,4.58754923 10.4552648,5.29055431 C9.75811815,5.99355938 8.70416943,6.20331689 7.7909818,5.82080152 C6.87779417,5.43828615 6.28798508,4.53999257 6.3,3.55 C6.3,2.20794806 7.38794806,1.12 8.73,1.12 L8.68,1.15 Z M5.46,6 C5.61025323,5.83413636 5.73801753,5.64921434 5.84,5.45 L5.92,5.29 L6.02,5.44 C6.16203079,5.64428376 6.32637771,5.83210881 6.51,6 L6.72,6.19 L5.3,6.19 L5.46,6 Z M3.56,2.55 C4.50440692,2.55 5.27,3.31559308 5.27,4.26 C5.27,5.20440692 4.50440692,5.97 3.56,5.97 C2.61559308,5.97 1.85,5.20440692 1.85,4.26 C1.85,3.31559308 2.61559308,2.55 3.56,2.55 Z M11.69,12.55 L1.14,12.55 L1.14,7 L11.69,7 L11.69,12.55 Z M15.25,12.45 L12.54,11.04 L12.54,8.51 L15.25,7.1 L15.25,12.45 Z" id="Shape"></path>
                    </g>
                </g>
            </g>
        </g>
    </g>
</svg>