<?xml version="1.0" encoding="UTF-8"?>
<svg width="25px" height="34px" viewBox="0 0 25 34" version="1.1" xmlns="http://www.w3.org/2000/svg" xmlns:xlink="http://www.w3.org/1999/xlink">
    <!-- Generator: sketchtool 51.2 (57519) - http://www.bohemiancoding.com/sketch -->
    <title>A15D9282-86D0-4964-ABBF-046BCFF63130</title>
    <desc>Created with sketchtool.</desc>
    <defs></defs>
    <g id="FRONTEND" stroke="none" stroke-width="1" fill="none" fill-rule="evenodd">
        <g id="ICONOS" transform="translate(-614.000000, -281.000000)" fill-rule="nonzero">
            <g id="PINS" transform="translate(64.000000, 207.000000)">
                <g id="cultura" transform="translate(550.000000, 74.000000)">
                    <g id="Capa_2">
                        <path d="M12.22,33 C11.4981759,33.0071869 10.8213723,32.6499849 10.42,32.05 C8.07,28.69 0.37,17.34 0.37,12.11 C0.37,5.55990287 5.67990287,0.25 12.23,0.25 C18.7800971,0.25 24.09,5.55990287 24.09,12.11 C24.09,17.34 16.39,28.69 14.03,32.04 C13.6290044,32.6467884 12.9472686,33.008372 12.22,33 Z" id="Shape" fill="#C73057"></path>
                        <path d="M12.22,0.5 C18.6297407,0.505513758 23.8244862,5.70025932 23.83,12.11 C23.83,17.27 16.16,28.56 13.83,31.91 C13.4728375,32.4376579 12.8771718,32.7537565 12.24,32.7537565 C11.6028282,32.7537565 11.0071625,32.4376579 10.65,31.91 C8.3,28.57 0.65,17.28 0.65,12.12 C0.649940769,5.72192682 5.82198605,0.527530435 12.22,0.5 Z M12.22,-2.49800858e-15 C9.00914711,-1.09652805e-06 5.92994833,1.27618929 3.66047047,3.54754275 C1.39099262,5.81889621 0.117346403,8.89914821 0.12,12.11 C0.12,17.11 6.77,27.27 10.23,32.19 C10.6807179,32.8516054 11.4294574,33.2475023 12.23,33.2475023 C13.0305426,33.2475023 13.7792821,32.8516054 14.23,32.19 C17.69,27.27 24.34,17.08 24.34,12.11 C24.3426609,8.89567984 23.0662705,5.81239111 20.7924643,3.54046098 C18.5186581,1.26853085 15.4343169,-0.00531402905 12.22,-6.77626358e-21 Z" id="Shape" fill="#FFFFFF"></path>
                    </g>
                    <g id="Capa_1" transform="translate(4.000000, 5.000000)" fill="#FFFFFF">
                        <path d="M6.07,0.58 C5.29664142,0.662900699 4.53309691,0.820298031 3.79,1.05 C2.79976784,1.24025472 1.8536339,1.61328243 1,2.15 C0.624331882,2.42559554 0.347341478,2.81478459 0.21,3.26 C0.0614412887,3.78978255 0.0614412887,4.35021745 0.21,4.88 L1.21,8.55 C1.79794767,10.9900264 4.24717563,12.4962122 6.69,11.92 L6.92,11.85 C7.43483585,13.065662 8.47727981,13.9791818 9.75,14.33 C12.1804682,14.908666 14.6240253,13.4238038 15.23,11 L16.23,7.33 C16.3785587,6.80021745 16.3785587,6.23978255 16.23,5.71 C16.0926585,5.26478459 15.8156681,4.87559554 15.44,4.6 C14.583435,4.06192194 13.6337665,3.68883791 12.64,3.5 C11.9039807,3.26294995 11.147325,3.09554825 10.38,3 C9.88725476,2.95221569 9.39061275,3.03498936 8.94,3.24 L8.77,2.59 C8.649698,2.05160203 8.38326693,1.55680147 8,1.16 C7.65778488,0.844628505 7.22286692,0.648213944 6.76,0.6 C6.53113021,0.571787622 6.30011967,0.565091664 6.07,0.58 Z M6.12,1.39 C6.29956091,1.37221951 6.48043909,1.37221951 6.66,1.39 C6.95533822,1.41396413 7.23382827,1.53734579 7.45,1.74 C7.72798882,2.03556047 7.91840202,2.40253862 8,2.8 L9,6.47 C9.28971318,7.41947612 9.19006718,8.44517935 8.72301508,9.32113652 C8.25596297,10.1970937 7.45982546,10.8514342 6.51,11.14 C5.54037994,11.370568 4.51883692,11.2045861 3.67209535,10.6788928 C2.82535379,10.1531996 2.22345994,9.31128281 2,8.34 L1,4.67 C0.890164092,4.28093665 0.890164092,3.86906335 1,3.48 C1.08643565,3.19594949 1.26611184,2.94933511 1.51,2.78 C2.28161396,2.3275233 3.123086,2.00647976 4,1.83 C4.69252322,1.62194831 5.40188032,1.47472325 6.12,1.39 Z M9.92,3.79 L10.33,3.79 C11.0517517,3.87253569 11.7646213,4.01979514 12.46,4.23 C13.3538463,4.41776024 14.2093326,4.75589713 14.99,5.23 C15.2344462,5.39876346 15.4142795,5.64559351 15.5,5.93 C15.5917108,6.32049006 15.5744152,6.72866782 15.45,7.11 L14.45,10.78 C13.9700566,12.7622221 11.9904803,13.9944527 10,13.55 C8.96806547,13.2696881 8.12088963,12.5330135 7.7,11.55 C8.2805069,11.2215464 8.77686223,10.7628456 9.15,10.21 C9.48034807,10.7437361 10.0029526,11.1303203 10.61,11.29 C11.4822694,11.5062328 12.402531,11.2212982 13,10.55 C13.1463554,10.3815532 13.1284468,10.1263555 12.96,9.98000001 C12.7915531,9.83364455 12.5363555,9.85155316 12.39,10.02 C11.9704767,10.4624499 11.3421621,10.6393009 10.7534447,10.4806395 C10.1647272,10.3219781 9.71037315,9.85334395 9.57,9.26 C9.85365891,8.53563644 9.95662617,7.75308528 9.87,6.98 L10.61,7.18 C10.8226296,7.24627417 11.0487258,7.12762963 11.115,6.915 C11.1812742,6.70237037 11.0626296,6.47627417 10.85,6.41 L9.85,6.15 L9.71,6.15 L9.16,4 C9.38907237,3.86114285 9.65213236,3.78845522 9.92,3.79 Z M5.72,4 C5.53049798,3.99225491 5.3616077,4.11865464 5.31560834,4.30265208 C5.26960898,4.48664953 5.35914759,4.67765648 5.53,4.76 L6.75,5.42 C6.94053824,5.53597979 7.18902019,5.47553823 7.30499999,5.28499999 C7.42097978,5.09446176 7.36053823,4.8459798 7.17,4.73 L5.91,4 C5.84758588,3.98474002 5.78241412,3.98474002 5.72,4 Z M3.72,4.52 C3.58857202,4.52683469 3.46891533,4.59788085 3.4,4.71 L2.68,5.89 C2.57544717,6.07692452 2.63668273,6.31303411 2.81890465,6.42558295 C3.00112657,6.53813178 3.23966629,6.4871775 3.36,6.31 L4.08,5.13 C4.16397491,5.00321448 4.16879228,4.8397775 4.09243077,4.70826601 C4.01606926,4.57675452 3.87173903,4.49991936 3.72,4.51 L3.72,4.52 Z M12.62,6.93 C12.4161758,6.92942674 12.2445171,7.08220663 12.2214457,7.28472167 C12.1983744,7.48723671 12.3312698,7.67471263 12.53,7.72 L13.53,7.98 C13.6675473,8.02287187 13.817518,7.98910653 13.9234198,7.89142305 C14.0293215,7.79373957 14.0750653,7.6469784 14.0434198,7.50642305 C14.0117743,7.3658677 13.9075473,7.25287187 13.77,7.21 L12.77,6.95 L12.62,6.93 Z M6.04,6.93 C5.80695256,6.92807653 5.57475694,6.95836291 5.35,7.02 C4.45538477,7.2485036 3.76875881,7.9661635 3.58,8.87 C3.53857864,9.08815248 3.68184752,9.29857864 3.9,9.34 C4.11815248,9.38142136 4.32857864,9.23815248 4.37,9.02 C4.51037315,8.42665605 4.96472724,7.95802192 5.55344467,7.79936049 C6.1421621,7.64069905 6.77047674,7.81755011 7.19,8.26 C7.28110273,8.37075233 7.42437078,8.42448898 7.56583648,8.40096788 C7.70730217,8.37744677 7.82547351,8.28024132 7.87583648,8.14596788 C7.92619945,8.01169443 7.90110273,7.86075233 7.81,7.75 C7.37353959,7.24655324 6.74602612,6.9491191 6.08,6.93 L6.04,6.93 Z" id="Shape"></path>
                    </g>
                </g>
            </g>
        </g>
    </g>
</svg>