<?xml version="1.0" encoding="UTF-8"?>
<svg width="30px" height="30px" viewBox="0 0 30 30" version="1.1" xmlns="http://www.w3.org/2000/svg" xmlns:xlink="http://www.w3.org/1999/xlink">
    <!-- Generator: sketchtool 51.2 (57519) - http://www.bohemiancoding.com/sketch -->
    <title>46CDDDF1-533F-4F53-AC75-B8F117C714ED</title>
    <desc>Created with sketchtool.</desc>
    <defs></defs>
    <g id="FRONTEND" stroke="none" stroke-width="1" fill="none" fill-rule="evenodd">
        <g id="ICONOS" transform="translate(-706.000000, -126.000000)" fill-rule="nonzero">
            <g id="Categorías" transform="translate(64.000000, 50.000000)">
                <g id="cultura" transform="translate(642.000000, 76.000000)">
                    <g id="Capa_2" fill="#C73057">
                        <rect id="Rectangle-path" x="0" y="0" width="30" height="30"></rect>
                    </g>
                    <g id="Capa_1" transform="translate(3.000000, 5.000000)" fill="#FFFFFF">
                        <path d="M9,0.48 C7.93815596,0.595282133 6.88994576,0.812961568 5.87,1.13 C4.50435725,1.38554529 3.19856738,1.89429459 2.02,2.63 C1.52995082,3.01803151 1.17334536,3.54944356 1,4.15 C0.794806587,4.87577556 0.794806587,5.64422444 1,6.37 L2.35,11.37 C2.73420256,12.9869428 3.74659123,14.3842777 5.16336578,15.2531076 C6.58014032,16.1219376 8.28461646,16.3907065 9.9,16 L10.21,15.9 C10.9143103,17.5698422 12.3435416,18.825945 14.09,19.31 C17.4412723,20.0985081 20.7991431,18.0283428 21.6,14.68 L22.95,9.68 C23.1710738,8.95877066 23.1883783,8.19045123 23,7.46 C22.8105927,6.85147833 22.4323149,6.31908733 21.92,5.94 C20.7415387,5.20408307 19.4357077,4.69531777 18.07,4.44 C17.0688955,4.12914537 16.0411849,3.91155191 15,3.79 C14.3158545,3.72035072 13.625506,3.83425821 13,4.12 L12.76,3.23 C12.6023693,2.4767021 12.2348923,1.78334925 11.7,1.23 C11.2243901,0.813647346 10.6294217,0.558160902 10,0.5 C9.66814519,0.460324183 9.33317583,0.453624796 9,0.48 Z M9.07,1.59 C9.31606662,1.5656679 9.56393338,1.5656679 9.81,1.59 C10.2137636,1.62388476 10.5942852,1.79300549 10.89,2.07 C11.2676054,2.47193952 11.5271098,2.97018799 11.64,3.51 L12.99,8.51 C13.4124057,9.81742328 13.2937829,11.2395401 12.66061,12.4589146 C12.0274371,13.6782891 10.9324267,14.5934065 9.62,15 C6.8592821,15.6364134 4.10414359,13.9189245 3.46,11.16 L2.11,6.16 C1.90983216,5.61586787 1.87162482,5.0253908 2,4.46 C2.11050459,4.05566921 2.35791559,3.70222492 2.7,3.46 C3.78659651,2.84209696 4.96999807,2.41269125 6.2,2.19 C7.1503865,1.90231699 8.12408777,1.69820779 9.11,1.58 L9.07,1.59 Z M14.28,4.89 C14.4697975,4.87759549 14.6602025,4.87759549 14.85,4.89 C15.8396415,5.00544983 16.8169054,5.20960427 17.77,5.5 C18.9927806,5.74133698 20.1659723,6.18762318 21.24,6.82 C21.5826847,7.06162727 21.8302624,7.41530974 21.94,7.82 C22.0676931,8.35936713 22.0434638,8.92356599 21.87,9.45 L20.52,14.45 C19.8758564,17.2089245 17.1207179,18.9264134 14.36,18.29 C12.9356274,17.8978018 11.7705013,16.8727858 11.2,15.51 C11.9994532,15.0632032 12.6841301,14.4367238 13.2,13.68 C13.6515909,14.4141561 14.3673194,14.9473738 15.2,15.17 C16.4190418,15.503348 17.7216201,15.1156758 18.56,14.17 C18.7615839,13.9408018 18.7391982,13.5915839 18.51,13.39 C18.2808018,13.1884161 17.9315839,13.2108018 17.73,13.44 C17.162715,14.0527191 16.304842,14.3045281 15.4963888,14.0956254 C14.6879355,13.8867228 14.0594404,13.2508394 13.86,12.44 C14.2436116,11.4476327 14.3808666,10.377044 14.26,9.32 L15.26,9.59 C15.4517549,9.72425488 15.7074755,9.72242894 15.8972937,9.58544948 C16.0871119,9.44847002 16.1694311,9.20635459 16.1024455,8.98206183 C16.0354598,8.75776907 15.8338485,8.60045027 15.6,8.59 L15.55,8.59 L14.22,8.23 L14.06,8.23 L13.29,5.35 C13.5808982,5.09739746 13.9385643,4.9341906 14.32,4.88 L14.28,4.89 Z M8.52,5.16 C8.29006179,5.18209527 8.09843276,5.34551512 8.04030601,5.56907956 C7.98217925,5.79264401 8.06994301,6.02870598 8.26,6.16 L9.93,7.06 C10.0981917,7.17026986 10.3131592,7.17994527 10.490577,7.08523085 C10.6679948,6.99051643 10.779569,6.80651691 10.7815323,6.60540986 C10.7834956,6.40430282 10.6755349,6.2181601 10.5,6.12 L8.83,5.22 C8.74751008,5.17385391 8.65451975,5.14974531 8.56,5.15 L8.52,5.16 Z M5.83,5.87 C5.6475824,5.8813027 5.48269541,5.98248336 5.39,6.14 L4.39,7.75 C4.22983743,8.00957383 4.31042618,8.34983741 4.57000001,8.50999998 C4.82957384,8.67016256 5.16983742,8.58957382 5.33,8.33 L6.33,6.72 C6.44468931,6.54498113 6.45013001,6.32004353 6.34403643,6.13968445 C6.23794285,5.95932538 6.03869588,5.85479229 5.83,5.87 Z M18.04,9.18 C17.7787398,9.21958799 17.5825562,9.43937471 17.5727761,9.70343615 C17.5629961,9.96749759 17.742384,10.2011944 18,10.26 L19.33,10.62 C19.6199495,10.711127 19.928873,10.5499495 20.02,10.26 C20.111127,9.97005051 19.9499495,9.66112698 19.66,9.57 L18.33,9.21 L18.04,9.18 Z M9.04,9.18 C8.71930214,9.17577641 8.39957443,9.21616307 8.09,9.3 C6.86808798,9.61491947 5.9303282,10.5953047 5.67,11.83 C5.63963242,12.0247097 5.71544803,12.2208299 5.86888783,12.3444839 C6.02232763,12.4681378 6.23008047,12.5005396 6.41388784,12.4294839 C6.59769522,12.3584281 6.72963243,12.1947098 6.76,12 C6.95944043,11.1891606 7.58793554,10.5532772 8.39638878,10.3443746 C9.20484202,10.1354719 10.062715,10.3872809 10.63,11 C10.8205382,11.2374824 11.1675176,11.2755382 11.405,11.085 C11.6424824,10.8944618 11.6805382,10.5474824 11.49,10.31 C10.8744908,9.60459939 9.98615962,9.19684083 9.05,9.19 L9.04,9.18 Z" id="Shape"></path>
                    </g>
                </g>
            </g>
        </g>
    </g>
</svg>