<?xml version="1.0" encoding="UTF-8"?>
<svg width="25px" height="34px" viewBox="0 0 25 34" version="1.1" xmlns="http://www.w3.org/2000/svg" xmlns:xlink="http://www.w3.org/1999/xlink">
    <!-- Generator: sketchtool 51.2 (57519) - http://www.bohemiancoding.com/sketch -->
    <title>EA316090-36AD-4BB1-B1A6-87F91CB0ED5E</title>
    <desc>Created with sketchtool.</desc>
    <defs></defs>
    <g id="FRONTEND" stroke="none" stroke-width="1" fill="none" fill-rule="evenodd">
        <g id="ICONOS" transform="translate(-573.000000, -281.000000)" fill-rule="nonzero">
            <g id="PINS" transform="translate(64.000000, 207.000000)">
                <g id="cumpleaños" transform="translate(509.000000, 74.000000)">
                    <g id="Capa_2">
                        <path d="M12.22,33 C11.4981759,33.0071869 10.8213723,32.6499849 10.42,32.05 C8.07,28.69 0.37,17.34 0.37,12.11 C0.37,5.55990287 5.67990287,0.25 12.23,0.25 C18.7800971,0.25 24.09,5.55990287 24.09,12.11 C24.09,17.34 16.39,28.69 14.03,32.04 C13.6290044,32.6467884 12.9472686,33.008372 12.22,33 Z" id="Shape" fill="#AC6FA6"></path>
                        <path d="M12.22,0.5 C18.6297407,0.505513758 23.8244862,5.70025932 23.83,12.11 C23.83,17.27 16.16,28.56 13.83,31.91 C13.4728375,32.4376579 12.8771718,32.7537565 12.24,32.7537565 C11.6028282,32.7537565 11.0071625,32.4376579 10.65,31.91 C8.3,28.57 0.65,17.28 0.65,12.12 C0.649940769,5.72192682 5.82198605,0.527530435 12.22,0.5 Z M12.22,-2.49800858e-15 C9.00914711,-1.09652805e-06 5.92994833,1.27618929 3.66047047,3.54754275 C1.39099262,5.81889621 0.117346403,8.89914821 0.12,12.11 C0.12,17.11 6.77,27.27 10.23,32.19 C10.6807179,32.8516054 11.4294574,33.2475023 12.23,33.2475023 C13.0305426,33.2475023 13.7792821,32.8516054 14.23,32.19 C17.69,27.27 24.34,17.08 24.34,12.11 C24.3426609,8.89567984 23.0662705,5.81239111 20.7924643,3.54046098 C18.5186581,1.26853085 15.4343169,-0.00531402905 12.22,-6.77626358e-21 Z" id="Shape" fill="#FFFFFF"></path>
                    </g>
                    <g id="Capa_1" transform="translate(5.000000, 3.000000)" fill="#FFFFFF">
                        <path d="M10.46,14.57 C10.023695,14.57 9.67,14.216305 9.67,13.78 L9.67,13.7 L9.9,13.7 C10.2479336,13.6908727 10.566093,13.5014921 10.74,13.2 C10.9186328,12.8905989 10.9186328,12.5094011 10.74,12.2 L10.29,11.48 C10.9821512,11.2011375 11.5768792,10.7246595 12,10.11 C12.6650595,9.12418344 13.0138886,7.95909443 13,6.77 C13.0785187,5.73060774 12.7173563,4.70595366 12.0044477,3.94551778 C11.2915391,3.18508189 10.2922918,2.75863237 9.25,2.77 C9.00485133,2.76686747 8.76008619,2.7903381 8.52,2.84 C7.76448415,1.5125801 6.3366134,0.712048795 4.81,0.76 C3.60655099,0.750850428 2.45434322,1.24645161 1.6333197,2.12639117 C0.812296185,3.00633073 0.397604835,4.19006818 0.49,5.39 C0.49,7.88 2,10.39 3.87,10.97 L3.42,11.68 C3.2255408,11.9849725 3.2255408,12.3750275 3.42,12.68 C3.57435458,12.9858524 3.88740668,13.1790944 4.23,13.18 L4.4,13.18 L4.4,13.77 C4.41614603,14.6452407 5.12467528,15.3493416 6,15.36 C6.43630495,15.36 6.79,15.713695 6.79,16.15 L6.79,16.63 C6.79000001,16.8564367 6.97356326,17.04 7.2,17.04 C7.42643674,17.04 7.60999999,16.8564367 7.61,16.63 L7.61,16.15 C7.61001697,15.2591894 6.89079358,14.5354988 6,14.53 C5.56369505,14.53 5.21,14.176305 5.21,13.74 L5.21,13.15 L5.44,13.15 C5.78591253,13.1429777 6.10361953,12.9576487 6.28,12.66 C6.4744592,12.3550275 6.4744592,11.9649725 6.28,11.66 L5.8,11 C6.1580422,10.8745188 6.49515324,10.69585 6.8,10.47 C7.18821009,10.9512207 7.69474471,11.3233686 8.27,11.55 L7.82,12.27 C7.6255408,12.5749725 7.6255408,12.9650275 7.82,13.27 C7.99638047,13.5676487 8.31408747,13.7529777 8.66,13.76 L8.82,13.76 L8.82,13.83 C8.81998303,14.7208106 9.53920642,15.4445012 10.43,15.45 C10.8562231,15.4659649 11.1949674,15.8135077 11.2,16.24 L11.2,17.24 C11.2,17.4664367 11.3835633,17.65 11.61,17.65 C11.8364367,17.65 12.02,17.4664367 12.02,17.24 L12.02,16.24 C12.0253376,15.8156439 11.8618646,15.4065513 11.5655501,15.1027351 C11.2692355,14.7989189 10.864357,14.6252713 10.44,14.62 L10.46,14.57 Z M5.57,12.26 C5.54097877,12.2984512 5.49775554,12.3236647 5.45,12.33 L4.23,12.33 C4.1871033,12.3247396 4.14962545,12.2985051 4.13,12.26 C4.10626059,12.2235222 4.10626059,12.1764778 4.13,12.14 L4.76,11.14 L4.92,11.14 L5.57,12.14 C5.58500809,12.1751309 5.58500809,12.2148691 5.57,12.25 L5.57,12.26 Z M8.38,5.4 C8.38,7.98 6.69,10.32 4.84,10.32 C2.99,10.32 1.32,8 1.32,5.39 C1.22022738,4.06542554 1.87037345,2.79647178 3.00373428,2.10369093 C4.13709511,1.41091007 5.56290489,1.41091007 6.69626572,2.10369093 C7.82962655,2.79647178 8.47977262,4.06542554 8.38,5.39 L8.38,5.4 Z M8.57,12.68 L9.18,11.68 L9.36,11.68 L9.99,12.68 C10.0084661,12.728295 10.0084661,12.781705 9.99,12.83 C9.96170237,12.8625284 9.92266911,12.8838193 9.88,12.89 L8.67,12.89 C8.62376256,12.8862114 8.58077331,12.8647168 8.55,12.83 C8.52216369,12.7792088 8.52605612,12.7169299 8.56,12.67 L8.57,12.68 Z M7.46,9.89 C8.57539418,8.65608816 9.19513289,7.05331563 9.2,5.39 C9.20478835,4.787794 9.10671228,4.18919177 8.91,3.62 L9.27,3.62 C10.0867478,3.61769416 10.8673894,3.95640238 11.4236581,4.55443869 C11.9799268,5.15247499 12.2613293,5.95555479 12.2,6.77 C12.2,8.91 10.8,10.87 9.27,10.87 C8.54756193,10.8322339 7.88151779,10.4679335 7.46,9.88 L7.46,9.89 Z" id="Shape"></path>
                    </g>
                </g>
            </g>
        </g>
    </g>
</svg>