<?xml version="1.0" encoding="UTF-8"?>
<svg width="30px" height="30px" viewBox="0 0 30 30" version="1.1" xmlns="http://www.w3.org/2000/svg" xmlns:xlink="http://www.w3.org/1999/xlink">
    <!-- Generator: sketchtool 51.2 (57519) - http://www.bohemiancoding.com/sketch -->
    <title>58AD26AC-C22B-426C-A238-7ECAEEECFE3C</title>
    <desc>Created with sketchtool.</desc>
    <defs></defs>
    <g id="FRONTEND" stroke="none" stroke-width="1" fill="none" fill-rule="evenodd">
        <g id="ICONOS" transform="translate(-262.000000, -126.000000)" fill-rule="nonzero">
            <g id="Categorías" transform="translate(64.000000, 50.000000)">
                <g id="cumpleaños" transform="translate(198.000000, 76.000000)">
                    <g id="Capa_2" fill="#AC6FA6">
                        <rect id="Rectangle-path" x="0" y="0" width="30" height="30"></rect>
                    </g>
                    <g id="Capa_1" transform="translate(6.000000, 3.000000)" fill="#FFFFFF">
                        <path d="M14.07,19.39 C13.4797036,19.379191 13.0053175,18.9003714 13,18.31 L13,18.21 L13.32,18.21 C13.7976273,18.2062768 14.2365806,17.9467218 14.47,17.53 C14.6862216,17.1082407 14.6672778,16.6043345 14.42,16.2 L13.8,15.2 C14.7735614,14.8082742 15.6064509,14.1322049 16.19,13.26 C17.1130508,11.9188843 17.6049495,10.3280632 17.6,8.7 C17.6,5.47 15.48,3.21 12.45,3.21 C12.1143953,3.20381943 11.779108,3.23399529 11.45,3.3 C10.4112661,1.48147684 8.45327246,0.385154258 6.36,0.45 C2.85,0.45 0.36,3.06 0.36,6.8 C0.36,10.22 2.43,13.62 5,14.45 L4.39,15.45 C4.13930314,15.8578922 4.13930314,16.3721078 4.39,16.78 C4.60347282,17.1966393 5.03185676,17.4590727 5.5,17.46 L5.73,17.46 L5.73,18.27 C5.73520098,18.8640708 5.97829608,19.4312709 6.40490994,19.8447293 C6.8315238,20.2581877 7.40605761,20.4834033 8,20.47 C8.59420513,20.4754269 9.07457313,20.9557949 9.08,21.55 L9.08,22.22 C9.11775693,22.5031798 9.35931423,22.7146674 9.645,22.7146674 C9.93068577,22.7146674 10.1722431,22.5031798 10.21,22.22 L10.21,21.55 C10.2045245,20.3317259 9.21827407,19.3454755 8,19.34 C7.40579487,19.3345731 6.92542687,18.8542051 6.92,18.26 L6.92,17.45 L7.24,17.45 C7.71762728,17.4462768 8.15658055,17.1867218 8.39,16.77 C8.62557268,16.3527341 8.60623685,15.8384009 8.34,15.44 L7.72,14.44 C8.23164702,14.2723158 8.7140851,14.0260362 9.15,13.71 C9.67699512,14.370854 10.3659791,14.8841471 11.15,15.2 L10.53,16.2 C10.2637632,16.5984009 10.2444273,17.1127341 10.48,17.53 C10.7134194,17.9467218 11.1523727,18.2062768 11.63,18.21 L11.85,18.21 L11.85,18.31 C11.8547905,19.5053661 12.8052184,20.4823176 14,20.52 C14.586381,20.5361223 15.0548399,21.0134201 15.06,21.6 L15.06,23 C15.0977569,23.2831798 15.3393142,23.4946674 15.625,23.4946674 C15.9106858,23.4946674 16.1522431,23.2831798 16.19,23 L16.19,21.61 C16.1980047,21.0274466 15.9735542,20.4657148 15.5663064,20.0490834 C15.1590586,19.632452 14.6025846,19.3952656 14.02,19.39 L14.07,19.39 Z M7.36,16.22 C7.32000949,16.2692044 7.26281665,16.3013754 7.2,16.31 L5.53,16.31 C5.47143314,16.3046714 5.41916247,16.2710688 5.39,16.22 C5.35478943,16.168803 5.35478943,16.101197 5.39,16.05 L6.26,14.66 L6.47,14.66 L7.36,16.05 C7.38849689,16.102346 7.39216324,16.164674 7.37,16.22 L7.36,16.22 Z M11.22,6.8 C11.22,10.33 8.91,13.55 6.37,13.55 C3.83,13.55 1.54,10.34 1.54,6.8 C1.54,3.72 3.54,1.58 6.37,1.58 C9.2,1.58 11.22,3.73 11.22,6.8 Z M11.48,16.8 L12.32,15.45 L12.56,15.45 L13.42,16.79 C13.4437158,16.8545575 13.4437158,16.9254425 13.42,16.99 C13.3789689,17.0362891 13.3216499,17.0649486 13.26,17.07 L11.62,17.07 C11.5586251,17.0639803 11.5016407,17.0354881 11.46,16.99 C11.4302499,16.9245819 11.4378849,16.8482316 11.48,16.79 L11.48,16.8 Z M10,13 C11.5233901,11.2952334 12.3606749,9.0862267 12.35,6.8 C12.3711865,5.97933542 12.252837,5.16103309 12,4.38 L12.49,4.38 C14.85,4.38 16.49,6.17 16.49,8.74 C16.49,11.68 14.58,14.36 12.49,14.36 C11.4959072,14.3105521 10.5788665,13.8096784 10,13 Z" id="Shape"></path>
                    </g>
                </g>
            </g>
        </g>
    </g>
</svg>