<?xml version="1.0" encoding="UTF-8"?>
<svg width="25px" height="34px" viewBox="0 0 25 34" version="1.1" xmlns="http://www.w3.org/2000/svg" xmlns:xlink="http://www.w3.org/1999/xlink">
    <!-- Generator: sketchtool 51.2 (57519) - http://www.bohemiancoding.com/sketch -->
    <title>801B597B-EE6E-4E38-8BAB-66D4F4148743</title>
    <desc>Created with sketchtool.</desc>
    <defs></defs>
    <g id="FRONTEND" stroke="none" stroke-width="1" fill="none" fill-rule="evenodd">
        <g id="ICONOS" transform="translate(-531.000000, -281.000000)" fill-rule="nonzero">
            <g id="PINS" transform="translate(64.000000, 207.000000)">
                <g id="deporte" transform="translate(467.000000, 74.000000)">
                    <g id="Capa_2">
                        <path d="M12.19,33 C11.4620874,32.992808 10.7877499,32.6160832 10.4,32 C8,28.69 0.34,17.34 0.34,12.11 C0.34,5.55990287 5.64990287,0.25 12.2,0.25 C18.7500971,0.25 24.06,5.55990287 24.06,12.11 C24.06,17.34 16.36,28.69 14,32.04 C13.5990044,32.6467884 12.9172686,33.008372 12.19,33 Z" id="Shape" fill="#81B23E"></path>
                        <path d="M12.19,0.5 C18.5997407,0.505513758 23.7944862,5.70025932 23.8,12.11 C23.8,17.27 16.13,28.56 13.8,31.91 C13.4428375,32.4376579 12.8471718,32.7537565 12.21,32.7537565 C11.5728282,32.7537565 10.9771625,32.4376579 10.62,31.91 C8.27,28.57 0.62,17.28 0.62,12.12 C0.619940769,5.72192682 5.79198605,0.527530435 12.19,0.5 Z M12.19,-2.49800181e-15 C8.97914711,-1.09652805e-06 5.89994833,1.27618929 3.63047047,3.54754275 C1.36099262,5.81889621 0.0873464026,8.89914821 0.09,12.11 C0.09,17.11 6.74,27.27 10.2,32.19 C10.6507179,32.8516054 11.3994574,33.2475023 12.2,33.2475023 C13.0005426,33.2475023 13.7492821,32.8516054 14.2,32.19 C17.66,27.27 24.3,17.07 24.3,12.11 C24.3026561,8.89741477 23.0276378,5.81564539 20.7559962,3.54400381 C18.4843546,1.27236224 15.4025852,-0.00265612805 12.19,0 Z" id="Shape" fill="#FFFFFF"></path>
                    </g>
                    <g id="Capa_1" transform="translate(4.000000, 5.000000)" fill="#FFFFFF">
                        <path d="M14,0.33 L2.4,0.33 C1.47270796,0.329855601 0.716363966,1.07285235 0.7,2 L0.7,11 C0.7,11.9388841 1.46111593,12.7 2.4,12.7 L14,12.7 C14.9388841,12.7 15.7,11.9388841 15.7,11 L15.7,2 C15.683636,1.07285235 14.927292,0.329855601 14,0.33 Z M1.52,4.33 L3.28,4.33 L3.28,8.7 L1.52,8.7 L1.52,4.33 Z M7.79,11.89 L2.4,11.89 C2.1648665,11.8900152 1.93950615,11.7959297 1.77418364,11.6287285 C1.60886113,11.4615274 1.51732803,11.2351183 1.52,11 L1.52,9.52 L3,9.52 C3.57989899,9.52 4.05,9.04989899 4.05,8.47 L4.05,4.6 C4.05,4.02010101 3.57989899,3.55 3,3.55 L1.52,3.55 L1.52,2 C1.52,1.51398942 1.91398942,1.12 2.4,1.12 L7.79,1.12 L7.79,4.23 L7.61,4.23 C6.58317857,4.49702301 5.86640856,5.42402708 5.86640856,6.485 C5.86640856,7.54597292 6.58317857,8.47297699 7.61,8.74 L7.79,8.74 L7.79,11.89 Z M6.67,6.5 C6.67,5.66052718 7.35052718,4.98 8.19,4.98 C9.02947282,4.98 9.71,5.66052718 9.71,6.5 C9.71,7.33947282 9.02947282,8.02 8.19,8.02 C7.36426879,8.01488479 6.69157231,7.35546522 6.67,6.53 L6.67,6.5 Z M14.87,8.67 L13.11,8.67 L13.11,4.36 L14.87,4.36 L14.87,8.67 Z M14.87,3.52 L13.35,3.52 C13.0662461,3.51988416 12.7945254,3.63461745 12.5967267,3.8380676 C12.3989279,4.04151775 12.2918927,4.31636188 12.3,4.6 L12.3,8.47 C12.3,9.04989899 12.770101,9.52 13.35,9.52 L14.87,9.52 L14.87,11 C14.87,11.4860106 14.4760106,11.88 13.99,11.88 L8.6,11.88 L8.6,8.84 L8.78,8.84 C9.80682143,8.57297699 10.5235914,7.64597292 10.5235914,6.585 C10.5235914,5.52402708 9.80682143,4.59702301 8.78,4.33 L8.6,4.33 L8.6,1.14 L14,1.14 C14.4860106,1.14 14.88,1.53398942 14.88,2.02 L14.87,3.52 Z" id="Shape"></path>
                    </g>
                </g>
            </g>
        </g>
    </g>
</svg>