<?xml version="1.0" encoding="UTF-8"?>
<svg width="30px" height="30px" viewBox="0 0 30 30" version="1.1" xmlns="http://www.w3.org/2000/svg" xmlns:xlink="http://www.w3.org/1999/xlink">
    <!-- Generator: sketchtool 51.2 (57519) - http://www.bohemiancoding.com/sketch -->
    <title>F01EC2B2-FAC9-4E8F-88EE-8181416A789A</title>
    <desc>Created with sketchtool.</desc>
    <defs></defs>
    <g id="FRONTEND" stroke="none" stroke-width="1" fill="none" fill-rule="evenodd">
        <g id="ICONOS" transform="translate(-410.000000, -126.000000)" fill-rule="nonzero">
            <g id="Categorías" transform="translate(64.000000, 50.000000)">
                <g id="deporte" transform="translate(346.000000, 76.000000)">
                    <g id="Capa_2" fill="#81B23E">
                        <rect id="Rectangle-path" x="0" y="0" width="30" height="30"></rect>
                    </g>
                    <g id="Capa_1" transform="translate(4.000000, 6.000000)" fill="#FFFFFF">
                        <path d="M19,0.49 L3,0.49 C1.73662252,0.51710692 0.7251327,1.54634218 0.72,2.81 L0.72,15.19 C0.7251327,16.4536578 1.73662252,17.4828931 3,17.51 L19,17.51 C20.2868235,17.51 21.33,16.4668235 21.33,15.18 L21.33,2.81 C21.3244939,1.5270835 20.2829283,0.489988184 19,0.49 Z M1.84,6 L4.25,6 L4.25,12 L1.84,12 L1.84,6 Z M10.44,16.37 L3,16.37 C2.33173545,16.37 1.79,15.8282645 1.79,15.16 L1.79,13.09 L3.93,13.09 C4.72529004,13.09 5.37,12.44529 5.37,11.65 L5.37,6.35 C5.37,5.55470996 4.72529004,4.91 3.93,4.91 L1.84,4.91 L1.84,2.81 C1.84478305,2.16465974 2.3551925,1.63664996 3,1.61 L10.39,1.61 L10.39,5.85 L10.15,5.91 C8.72943839,6.26466135 7.73270628,7.54083472 7.73270628,9.005 C7.73270628,10.4691653 8.72943839,11.7453386 10.15,12.1 L10.39,12.16 L10.44,16.37 Z M8.91,9 C8.91,7.84572487 9.84572487,6.91 11,6.91 C12.1542751,6.91 13.09,7.84572487 13.09,9 C13.09,10.1542751 12.1542751,11.09 11,11.09 C10.4456975,11.09 9.91409786,10.8698042 9.52214683,10.4778532 C9.1301958,10.0859021 8.91,9.55430246 8.91,9 Z M20.16,12 L17.75,12 L17.75,6 L20.17,6 L20.16,12 Z M20.16,4.93 L18.07,4.93 C17.27471,4.93 16.63,5.57470996 16.63,6.37 L16.63,11.67 C16.63,12.46529 17.27471,13.11 18.07,13.11 L20.16,13.11 L20.16,15.2 C20.1499408,15.8414581 19.6409923,16.3635691 19,16.39 L11.56,16.39 L11.56,12.16 L11.8,12.1 C13.2205616,11.7453386 14.2172937,10.4691653 14.2172937,9.005 C14.2172937,7.54083472 13.2205616,6.26466135 11.8,5.91 L11.56,5.85 L11.56,1.61 L19,1.61 C19.6682645,1.61 20.21,2.15173545 20.21,2.82 L20.16,4.93 Z" id="Shape"></path>
                    </g>
                </g>
            </g>
        </g>
    </g>
</svg>