<?xml version="1.0" encoding="UTF-8"?>
<svg width="25px" height="34px" viewBox="0 0 25 34" version="1.1" xmlns="http://www.w3.org/2000/svg" xmlns:xlink="http://www.w3.org/1999/xlink">
    <!-- Generator: sketchtool 51.2 (57519) - http://www.bohemiancoding.com/sketch -->
    <title>0088A1F3-5255-4529-8EE5-B4B3B4A70503</title>
    <desc>Created with sketchtool.</desc>
    <defs></defs>
    <g id="FRONTEND" stroke="none" stroke-width="1" fill="none" fill-rule="evenodd">
        <g id="ICONOS" transform="translate(-489.000000, -281.000000)" fill-rule="nonzero">
            <g id="PINS" transform="translate(64.000000, 207.000000)">
                <g id="diversion" transform="translate(425.000000, 74.000000)">
                    <g id="Capa_2">
                        <path d="M12.78,33 C12.0556543,32.9894314 11.3858304,32.6131259 11,32 C8.62,28.69 0.92,17.34 0.92,12.11 C0.92,5.55990287 6.22990287,0.25 12.78,0.25 C19.3300971,0.25 24.64,5.55990287 24.64,12.11 C24.64,17.34 16.94,28.69 14.58,32.04 C14.1809398,32.6437926 13.5037333,33.0049694 12.78,33 Z" id="Shape" fill="#C1428C"></path>
                        <path d="M12.78,0.5 C19.1897407,0.505513758 24.3844862,5.70025932 24.39,12.11 C24.39,17.27 16.72,28.56 14.39,31.91 C14.0328375,32.4376579 13.4371718,32.7537565 12.8,32.7537565 C12.1628282,32.7537565 11.5671625,32.4376579 11.21,31.91 C8.86,28.57 1.21,17.28 1.21,12.12 C1.20994077,5.72192682 6.38198605,0.527530435 12.78,0.5 Z M12.78,-2.49800181e-15 C9.56741477,-0.00265612805 6.48564539,1.27236224 4.21400381,3.54400381 C1.94236224,5.81564539 0.667343872,8.89741477 0.67,12.11 C0.67,17.11 7.32,27.27 10.78,32.19 C11.2307179,32.8516054 11.9794574,33.2475023 12.78,33.2475023 C13.5805426,33.2475023 14.3292821,32.8516054 14.78,32.19 C18.24,27.27 24.89,17.08 24.89,12.11 C24.8926561,8.89741477 23.6176378,5.81564539 21.3459962,3.54400381 C19.0743546,1.27236224 15.9925852,-0.00265612805 12.78,0 Z" id="Shape" fill="#FFFFFF"></path>
                    </g>
                    <g id="Capa_1" transform="translate(5.000000, 3.000000)" fill="#FFFFFF">
                        <path d="M7.78,0.48 C3.66547861,0.48 0.33,3.81547861 0.33,7.93 C0.33,12.0445214 3.66547861,15.38 7.78,15.38 C11.8945214,15.38 15.23,12.0445214 15.23,7.93 C15.2244913,3.81776255 11.8922374,0.485508698 7.78,0.48 Z M11.43,2.48 L11.53,2.48 L11.61,2.54 C13.0707957,3.58184699 14.0510522,5.16755609 14.33,6.94 L14.39,7.35 L14.04,7.13 C12.3049378,6.14414701 10.3973373,5.4992287 8.42,5.23 L8.31,5.23 L8.31,5.12 C8.27199273,5.02258238 8.22512974,4.92885639 8.17,4.84 L8.1,4.71 L8.2,4.6 C9.06097724,3.63685237 10.1668189,2.92496682 11.4,2.54 L11.43,2.48 Z M5.75,1.59 C7.17744221,1.13316882 8.71734933,1.17193078 10.12,1.7 L10.54,1.86 L10.13,2.05 C9.15063874,2.55571583 8.27000759,3.2331244 7.53,4.05 L7.44,4.15 L7.32,4.1 C7.10550394,4.02258151 6.87775419,3.98858901 6.65,4 L6.53,4 L6.45,3.9 C6.10132693,3.26554776 5.82300924,2.59490273 5.62,1.9 L5.62,1.73 L5.75,1.59 Z M7.57,5.7 C7.57,6.20810197 7.15810197,6.62 6.65,6.62 C6.14189803,6.62 5.73,6.20810197 5.73,5.7 C5.73,5.19189803 6.14189803,4.78 6.65,4.78 C7.15810197,4.78 7.57,5.19189803 7.57,5.7 Z M1.78,5.11 C2.38557111,3.83809312 3.37554055,2.78865555 4.61,2.11 L4.82,2 L4.88,2.23 C5.07568734,2.87201964 5.33009536,3.4946498 5.64,4.09 L5.71,4.23 L5.58,4.33 C5.32833353,4.52415779 5.13465901,4.78354331 5.02,5.08 L5,5.22 L4.85,5.22 C3.89809012,5.10204634 2.93272608,5.15624222 2,5.38 L1.61,5.47 L1.78,5.11 Z M2.71,12.22 L2.49,11.93 C1.61221024,10.7814885 1.13770291,9.37554082 1.14,7.93 C1.14172117,7.46602677 1.191995,7.00350759 1.29,6.55 L1.29,6.45 L1.39,6.45 C2.48095797,6.02810743 3.65713465,5.87379854 4.82,6 L4.95,6 L4.95,6.12 C5.01169041,6.34194449 5.1170849,6.54933363 5.26,6.73 L5.35,6.84 L5.3,7 C4.26744732,8.51203318 3.43707278,10.1526112 2.83,11.88 L2.71,12.22 Z M9.61,14.31 C7.47027315,14.9387956 5.1577346,14.4462061 3.46,13 L3.37,12.92 L3.37,12.8 C3.97446792,10.8952913 4.86098056,9.09192913 6,7.45 L6.08,7.34 L6.21,7.34 C6.45056342,7.39192352 6.69943658,7.39192352 6.94,7.34 L7.09,7.34 L7.15,7.48 C7.71,8.77 9.08,11.98 9.77,14.02 L9.83,14.21 L9.61,14.31 Z M14.39,8.46 C14.1976751,10.7674776 12.8241191,12.8107841 10.76,13.86 L10.56,13.96 L10.49,13.75 C9.75,11.57 8.27,8.13 7.84,7.13 L7.79,7 L7.88,6.91 C8.08129015,6.70581184 8.22900201,6.45504518 8.31,6.18 L8.31,6.02 L8.48,6.02 C10.5557084,6.31481371 12.5363346,7.08106632 14.27,8.26 L14.35,8.32 L14.39,8.46 Z" id="Shape"></path>
                    </g>
                </g>
            </g>
        </g>
    </g>
</svg>