<?xml version="1.0" encoding="UTF-8"?>
<svg width="25px" height="34px" viewBox="0 0 25 34" version="1.1" xmlns="http://www.w3.org/2000/svg" xmlns:xlink="http://www.w3.org/1999/xlink">
    <!-- Generator: sketchtool 51.2 (57519) - http://www.bohemiancoding.com/sketch -->
    <title>A177F2B5-3D29-42F5-AFBB-A66E68A2EDF8</title>
    <desc>Created with sketchtool.</desc>
    <defs></defs>
    <g id="FRONTEND" stroke="none" stroke-width="1" fill="none" fill-rule="evenodd">
        <g id="ICONOS" transform="translate(-448.000000, -281.000000)" fill-rule="nonzero">
            <g id="PINS" transform="translate(64.000000, 207.000000)">
                <g id="guarderia" transform="translate(384.000000, 74.000000)">
                    <g id="Capa_2">
                        <path d="M12.47,33 C11.7481759,33.0071869 11.0713723,32.6499849 10.67,32.05 C8.32,28.69 0.62,17.34 0.62,12.11 C0.62,5.55990287 5.92990287,0.25 12.48,0.25 C19.0300971,0.25 24.34,5.55990287 24.34,12.11 C24.34,17.34 16.64,28.69 14.28,32.04 C13.8790044,32.6467884 13.1972686,33.008372 12.47,33 Z" id="Shape" fill="#DC911B"></path>
                        <path d="M12.47,0.5 C18.8797407,0.505513758 24.0744862,5.70025932 24.08,12.11 C24.08,17.27 16.41,28.56 14.08,31.91 C13.7228375,32.4376579 13.1271718,32.7537565 12.49,32.7537565 C11.8528282,32.7537565 11.2571625,32.4376579 10.9,31.91 C8.55,28.57 0.9,17.28 0.9,12.12 C0.899940769,5.72192682 6.07198605,0.527530435 12.47,0.5 Z M12.47,-2.49800858e-15 C9.25914711,-1.09652805e-06 6.17994833,1.27618929 3.91047047,3.54754275 C1.64099262,5.81889621 0.367346403,8.89914821 0.37,12.11 C0.37,17.11 7.02,27.27 10.48,32.19 C10.9307179,32.8516054 11.6794574,33.2475023 12.48,33.2475023 C13.2805426,33.2475023 14.0292821,32.8516054 14.48,32.19 C17.94,27.27 24.59,17.08 24.59,12.11 C24.5926609,8.89567984 23.3162705,5.81239111 21.0424643,3.54046098 C18.7686581,1.26853085 15.6843169,-0.00531402905 12.47,-6.77626358e-21 Z" id="Shape" fill="#FFFFFF"></path>
                    </g>
                    <g id="Capa_1" transform="translate(3.000000, 2.000000)" fill="#FFFFFF">
                        <path d="M10.95,9.77 C11.1653911,9.77 11.34,9.59539105 11.34,9.38 C11.34,8.88570515 11.7407051,8.485 12.235,8.485 C12.7292949,8.485 13.13,8.88570515 13.13,9.38 C13.13,9.59815248 13.3068475,9.775 13.525,9.775 C13.7431525,9.775 13.92,9.59815248 13.92,9.38 C13.9200079,8.93269826 13.7416364,8.50386121 13.4244091,8.18851105 C13.1071819,7.87316089 12.6772938,7.69733749 12.23,7.7 C11.3021616,7.7 10.55,8.45216162 10.55,9.38 C10.5499654,9.48519059 10.5924244,9.58593471 10.6677409,9.65936828 C10.7430574,9.73280185 10.844844,9.7726972 10.95,9.77 Z" id="Shape"></path>
                        <path d="M6.46,7.7 C5.53216162,7.7 4.78,8.45216162 4.78,9.38 C4.78,9.59815248 4.95684752,9.775 5.175,9.775 C5.39315248,9.775 5.57,9.59815248 5.57,9.38 C5.57,8.88570515 5.97070515,8.485 6.465,8.485 C6.95929485,8.485 7.36,8.88570515 7.36,9.38 C7.36,9.59815248 7.53684752,9.775 7.755,9.775 C7.97315248,9.775 8.15,9.59815248 8.15,9.38 C8.15000792,8.93269826 7.97163638,8.50386121 7.65440914,8.18851105 C7.33718189,7.87316089 6.90729381,7.69733749 6.46,7.7 Z" id="Shape"></path>
                        <path d="M15.94,6.66 L15.86,6.66 C15.3016345,4.8444593 14.011412,3.3440321 12.3,2.52 C12.1860418,2.45836665 12.0485346,2.4590402 11.9351856,2.52178696 C11.8218367,2.58453372 11.7482666,2.70070648 11.74,2.83 L11.74,1.38 C11.7345758,1.16852406 11.5615455,0.999930447 11.35,1 C11.2908208,0.985964426 11.2291792,0.985964426 11.17,1 L9.85,1.69 C9.53284077,1.54314814 9.16715923,1.54314814 8.85,1.69 L7.48,1 C7.38423213,0.95885574 7.27576787,0.95885574 7.18,1 C7.01942609,1.05192581 6.91046733,1.20123966 6.91,1.37 L6.91,2.7 C6.81214382,2.51087478 6.58067693,2.43520292 6.39,2.53 C4.67858795,3.3540321 3.38836553,4.8544593 2.83,6.67 C1.7254305,6.67 0.83,7.5654305 0.83,8.67 C0.83,9.7745695 1.7254305,10.67 2.83,10.67 C3.47686873,12.7272659 5.04967308,14.3629824 7.08,15.09 C7.29677872,16.1745487 8.24899873,16.9552748 9.355,16.9552748 C10.4610013,16.9552748 11.4132213,16.1745487 11.63,15.09 C13.6634703,14.3622672 15.2371941,12.7218917 15.88,10.66 L15.95,10.66 C17.0545695,10.66 17.95,9.7645695 17.95,8.66 C17.95,7.5554305 17.0545695,6.66 15.95,6.66 L15.94,6.66 Z M7.81,14.66 C7.81,13.8122429 8.49724291,13.125 9.345,13.125 C10.1927571,13.125 10.88,13.8122429 10.88,14.66 L10.88,14.79 C10.80774,15.5815927 10.1448818,16.1881297 9.35,16.19 C8.55511819,16.1881297 7.89225998,15.5815927 7.82,14.79 L7.81,14.66 Z M8.22,3.31 L7.68,3.6 L7.68,2 L8.22,2.28 C8.07458374,2.60174314 8.07824172,2.97119918 8.23,3.29 L8.22,3.31 Z M8.9,2.82 C8.9,2.58804041 9.08804041,2.4 9.32,2.4 C9.55195959,2.4 9.74,2.58804041 9.74,2.82 C9.74,3.05195959 9.55195959,3.24 9.32,3.24 C9.20680106,3.23743393 9.09943348,3.18927114 9.02224304,3.10643262 C8.9450526,3.0235941 8.90457911,2.91309818 8.91,2.8 L8.9,2.82 Z M10.42,2.32 L11,2 L11,3.58 L10.46,3.3 C10.5942961,2.97699004 10.5796665,2.61125146 10.42,2.3 L10.42,2.32 Z M7.09,4.56 C7.20858054,4.62400758 7.35141946,4.62400758 7.47,4.56 L8.79,3.87 C9.10715923,4.01685186 9.47284077,4.01685186 9.79,3.87 L11.11,4.56 C11.1691792,4.57403557 11.2308208,4.57403557 11.29,4.56 L11.41,4.56 C11.5705739,4.50807419 11.6795327,4.35876034 11.68,4.19 L11.68,2.9 C11.6765939,3.04774677 11.7638304,3.18256691 11.9,3.24 C13.5223186,4.02113379 14.708068,5.4895541 15.13,7.24 C15.184093,7.4466619 15.3910297,7.57434624 15.6,7.53 C16.251696,7.37536029 16.9053602,7.77830401 17.06,8.43000001 C17.2146397,9.081696 16.811696,9.73536026 16.16,9.89 C15.9758164,9.93305848 15.7841836,9.93305848 15.6,9.89 C15.4992085,9.86598833 15.393005,9.88307125 15.3048273,9.93747875 C15.2166496,9.99188625 15.1537465,10.0791458 15.13,10.18 C14.6547516,12.0331152 13.3363456,13.5552075 11.57,14.29 C11.4949885,13.8537758 11.2972747,13.4479422 11,13.12 C11.2048944,13.0790768 11.3411371,12.8839484 11.3089632,12.6774992 C11.2767893,12.4710501 11.0876305,12.3266336 10.88,12.35 L7.74,12.35 C7.53236952,12.3266336 7.34321071,12.4710501 7.31103682,12.6774992 C7.27886293,12.8839484 7.41510564,13.0790768 7.62,13.12 C7.32272534,13.4479422 7.12501153,13.8537758 7.05,14.29 C5.29457264,13.5588348 3.98144107,12.0496582 3.5,10.21 C3.45147082,10.0224267 3.27259925,9.89892012 3.08,9.92 L2.92,9.92 C2.24897403,9.92 1.705,9.37602597 1.705,8.705 C1.705,8.03397403 2.24897403,7.49 2.92,7.49 L3.08,7.49 C3.27507572,7.5119441 3.45724619,7.38908494 3.51,7.2 C3.94571663,5.47402806 5.12533774,4.03064074 6.73,3.26 C6.8047133,3.22005728 6.86438829,3.156872 6.9,3.08 L6.9,4.22 C6.8981571,4.35910975 6.97055709,4.48866762 7.09,4.56 Z" id="Shape"></path>
                    </g>
                </g>
            </g>
        </g>
    </g>
</svg>