<?xml version="1.0" encoding="UTF-8"?>
<svg width="25px" height="34px" viewBox="0 0 25 34" version="1.1" xmlns="http://www.w3.org/2000/svg" xmlns:xlink="http://www.w3.org/1999/xlink">
    <!-- Generator: sketchtool 51.2 (57519) - http://www.bohemiancoding.com/sketch -->
    <title>1359B9C3-33EC-4AF6-8EB7-0923DF020AA1</title>
    <desc>Created with sketchtool.</desc>
    <defs></defs>
    <g id="FRONTEND" stroke="none" stroke-width="1" fill="none" fill-rule="evenodd">
        <g id="ICONOS" transform="translate(-406.000000, -281.000000)" fill-rule="nonzero">
            <g id="PINS" transform="translate(64.000000, 207.000000)">
                <g id="heladeria" transform="translate(342.000000, 74.000000)">
                    <g id="Capa_2">
                        <path d="M12.73,33 C12.0081759,33.0071869 11.3313723,32.6499849 10.93,32.05 C8.57,28.69 0.87,17.34 0.87,12.11 C0.87,5.55990287 6.17990287,0.25 12.73,0.25 C19.2800971,0.25 24.59,5.55990287 24.59,12.11 C24.59,17.34 16.89,28.69 14.53,32.04 C14.1309398,32.6437926 13.4537333,33.0049694 12.73,33 Z" id="Shape" fill="#D0663F"></path>
                        <path d="M12.72,0.5 C19.1297407,0.505513758 24.3244862,5.70025932 24.33,12.11 C24.33,17.27 16.66,28.56 14.33,31.91 C13.9728375,32.4376579 13.3771718,32.7537565 12.74,32.7537565 C12.1028282,32.7537565 11.5071625,32.4376579 11.15,31.91 C8.8,28.57 1.15,17.28 1.15,12.12 C1.14994077,5.72192682 6.32198605,0.527530435 12.72,0.5 Z M12.72,-2.49800858e-15 C9.50914711,-1.09652806e-06 6.42994833,1.27618929 4.16047047,3.54754275 C1.89099262,5.81889621 0.617346403,8.89914821 0.62,12.11 C0.62,17.11 7.27,27.27 10.73,32.19 C11.1807179,32.8516054 11.9294574,33.2475023 12.73,33.2475023 C13.5305426,33.2475023 14.2792821,32.8516054 14.73,32.19 C18.19,27.27 24.84,17.08 24.84,12.11 C24.8426609,8.89567984 23.5662705,5.81239111 21.2924643,3.54046098 C19.0186581,1.26853085 15.9343169,-0.00531402905 12.72,-6.77626358e-21 Z" id="Shape" fill="#FFFFFF"></path>
                    </g>
                    <g id="Capa_1" transform="translate(8.000000, 5.000000)" fill="#FFFFFF">
                        <path d="M9.12,6.43 C9.49295785,5.70709828 9.49558252,4.84896199 9.1270537,4.12379238 C8.75852489,3.39862277 8.06379709,2.89487872 7.26,2.77 C7.26,2.77 7.26,2.7 7.26,2.66 C7.17590269,1.32168907 6.0659506,0.279295323 4.725,0.279295323 C3.3840494,0.279295323 2.27409731,1.32168907 2.19,2.66 C2.19,2.66 2.19,2.73 2.19,2.77 C1.38620291,2.89487872 0.691475113,3.39862277 0.322946296,4.12379238 C-0.0455825222,4.84896199 -0.0429578496,5.70709828 0.33,6.43 C0.286318372,6.4589076 0.248907596,6.49631837 0.22,6.54 C0.155992424,6.65858054 0.155992424,6.80141946 0.22,6.92 L4.4,16.47 C4.46447412,16.6138181 4.60739111,16.7063693 4.765,16.7063693 C4.92260889,16.7063693 5.06552588,16.6138181 5.13,16.47 L9.31,6.92 C9.37400758,6.80141946 9.37400758,6.65858054 9.31,6.54 C9.25850676,6.48589574 9.19256008,6.44771608 9.12,6.43 Z M8.29,7.16 L4.72,15.31 L1.16,7.16 L8.29,7.16 Z M2.59,3.41 L2.59,3.54 C3.38355892,3.56092662 4.06234739,4.116299 4.24,4.89 C4.2540464,5.01962057 4.2540464,5.15037943 4.24,5.28 C4.23957973,5.67269451 4.10557075,6.05356214 3.86,6.36 L1.23,6.36 C0.816313932,5.83743507 0.737475885,5.12447765 1.02699408,4.52415317 C1.31651227,3.92382869 1.92351098,3.54162943 2.59,3.54 L2.59,3.41 Z M6.81,3.41 L6.81,3.54 C7.47648902,3.54162943 8.08348773,3.92382869 8.37300592,4.52415317 C8.66252412,5.12447765 8.58368607,5.83743507 8.17,6.36 L5.51,6.36 C5.26442925,6.05356214 5.13042027,5.67269451 5.13,5.28 C5.1158751,5.15038368 5.1158751,5.01961632 5.13,4.89 C5.30765261,4.116299 5.98644108,3.56092662 6.78,3.54 L6.78,3.42 L6.81,3.41 Z M4.73,0.93 C5.69097546,0.93 6.47,1.70902454 6.47,2.67 C6.47,2.67 6.47,2.74 6.47,2.78 C5.75704475,2.89563642 5.12750459,3.31047792 4.74,3.92 C4.35027059,3.30810617 3.71661989,2.89295572 3,2.78 C3,2.78 3,2.71 3,2.67 C2.99998419,1.71291627 3.77293208,0.935500481 4.73,0.93 Z" id="Shape"></path>
                        <path d="M6.19,9.43 C6.39159762,9.51357233 6.62297506,9.42013144 6.71,9.22 L7.15,8.22 C7.22230525,8.08730879 7.21366148,7.9251968 7.12765617,7.80094667 C7.04165087,7.67669654 6.89296659,7.61151988 6.74331297,7.63246746 C6.59365936,7.65341505 6.4685848,7.75691078 6.42,7.9 L5.98,8.9 C5.93669584,8.99803135 5.93454104,9.10933984 5.97401862,9.20897375 C6.01349621,9.30860767 6.09130399,9.38823287 6.19,9.43 Z" id="Shape"></path>
                        <path d="M5,12.11 C5.20159762,12.1935723 5.43297506,12.1001314 5.52,11.9 L6.22,10.29 C6.29230525,10.1573088 6.28366148,9.9951968 6.19765617,9.87094667 C6.11165087,9.74669654 5.96296659,9.68151988 5.81331297,9.70246746 C5.66365936,9.72341505 5.5385848,9.82691078 5.49,9.97 L4.79,11.58 C4.74669584,11.6780314 4.74454104,11.7893398 4.78401862,11.8889738 C4.82349621,11.9886077 4.90130399,12.0682329 5,12.11 Z" id="Shape"></path>
                    </g>
                </g>
            </g>
        </g>
    </g>
</svg>