<?xml version="1.0" encoding="UTF-8"?>
<svg width="25px" height="34px" viewBox="0 0 25 34" version="1.1" xmlns="http://www.w3.org/2000/svg" xmlns:xlink="http://www.w3.org/1999/xlink">
    <!-- Generator: sketchtool 51.2 (57519) - http://www.bohemiancoding.com/sketch -->
    <title>33442494-D2DE-400C-8ABF-45B72108553C</title>
    <desc>Created with sketchtool.</desc>
    <defs></defs>
    <g id="FRONTEND" stroke="none" stroke-width="1" fill="none" fill-rule="evenodd">
        <g id="ICONOS" transform="translate(-364.000000, -281.000000)" fill-rule="nonzero">
            <g id="PINS" transform="translate(64.000000, 207.000000)">
                <g id="naturaleza" transform="translate(300.000000, 74.000000)">
                    <g id="Capa_2">
                        <path d="M12.22,33 C11.4981759,33.0071869 10.8213723,32.6499849 10.42,32.05 C8.07,28.69 0.37,17.34 0.37,12.11 C0.37,5.55990287 5.67990287,0.25 12.23,0.25 C18.7800971,0.25 24.09,5.55990287 24.09,12.11 C24.09,17.34 16.39,28.69 14.03,32.04 C13.6290044,32.6467884 12.9472686,33.008372 12.22,33 Z" id="Shape" fill="#6062A6"></path>
                        <path d="M12.22,0.5 C18.6297407,0.505513758 23.8244862,5.70025932 23.83,12.11 C23.83,17.27 16.16,28.56 13.83,31.91 C13.4728375,32.4376579 12.8771718,32.7537565 12.24,32.7537565 C11.6028282,32.7537565 11.0071625,32.4376579 10.65,31.91 C8.3,28.57 0.65,17.28 0.65,12.12 C0.649940769,5.72192682 5.82198605,0.527530435 12.22,0.5 Z M12.22,-2.49800858e-15 C9.00914711,-1.09652805e-06 5.92994833,1.27618929 3.66047047,3.54754275 C1.39099262,5.81889621 0.117346403,8.89914821 0.12,12.11 C0.12,17.11 6.77,27.27 10.23,32.19 C10.6807179,32.8516054 11.4294574,33.2475023 12.23,33.2475023 C13.0305426,33.2475023 13.7792821,32.8516054 14.23,32.19 C17.69,27.27 24.34,17.08 24.34,12.11 C24.3426609,8.89567984 23.0662705,5.81239111 20.7924643,3.54046098 C18.5186581,1.26853085 15.4343169,-0.00531402905 12.22,-6.77626358e-21 Z" id="Shape" fill="#FFFFFF"></path>
                    </g>
                    <g id="Capa_1" transform="translate(3.000000, 5.000000)" fill="#FFFFFF">
                        <path d="M14.6,7.64 C15.3350356,7.4371818 16.0017757,7.03990144 16.53,6.49 C17.359531,5.50394728 17.6879143,4.19041407 17.42,2.93 C17.12,1.66 16.54,0.93 15.7,0.75 C13.85,0.36 11.31,3 10.13,4.42 C10.0842276,4.12371903 10.010567,3.83242487 9.91,3.55 C10.15,3.01 10.91,1.55 12.03,1.41 C12.1371797,1.41000001 12.2362178,1.35282033 12.2898076,1.26000001 C12.3433975,1.16717968 12.3433975,1.05282032 12.2898076,0.959999995 C12.2362178,0.867179669 12.1371797,0.809999994 12.03,0.81 C10.8,0.91 9.97,2.15 9.55,2.98 C9.38245853,2.86416156 9.15868549,2.87229877 9,3 C8.58,2.17 7.75,0.94 6.52,0.84 C6.35777998,0.838728255 6.22027314,0.959046744 6.2,1.12 C6.19167802,1.20125061 6.21684362,1.28238196 6.26968594,1.34466041 C6.32252827,1.40693887 6.39847873,1.44498003 6.48,1.45 C7.59,1.54 8.36,3.04 8.6,3.58 C8.49353677,3.88528303 8.41651935,4.20004985 8.37,4.52 C7.2,3.08 4.63,0.35 2.75,0.75 C1.91,0.93 1.33,1.66 1.03,2.93 C0.765158824,4.19035767 1.09320712,5.50255084 1.92,6.49 C2.44822433,7.03990144 3.11496442,7.4371818 3.85,7.64 C2.78,8.1 1.63,8.81 1.48,9.76 C1.37,10.43 1.76,11.08 2.64,11.67 C3.6119159,12.4333826 4.8631883,12.7462007 6.08,12.53 C7.03999477,12.2653314 7.87358329,11.6658571 8.43,10.84 C8.61,11.84 8.88,12.31 9.28,12.31 C9.68,12.31 9.94,11.86 10.11,10.94 C10.6606017,11.7224562 11.466935,12.2883041 12.39,12.54 C12.6423345,12.5996086 12.9007205,12.6298096 13.16,12.63 C14.1273492,12.5923249 15.0610561,12.2648307 15.84,11.69 C16.72,11.1 17.11,10.45 17,9.78 C16.82,8.81 15.67,8.1 14.6,7.64 Z M13,7.11 C12.1085911,7.16579142 11.2137988,7.12892732 10.33,7 C10.33,6.48 10.33,6 10.26,5.53 C11.64,3.75 14.16,1.25 15.53,1.53 C16.04,1.64 16.41,2.17 16.63,3.1 C16.8291092,4.10049157 16.5725573,5.13769449 15.93,5.93 C15.1362204,6.67740008 14.0902129,7.09865908 13,7.11 Z M10.34,7.81 C10.9630576,7.89654485 11.5909961,7.94330622 12.22,7.95 L13,7.95 C14.21,8.3 16,9.1 16.18,9.95 C16.25,10.37 15.78,10.78 15.37,11.06 C14.5812192,11.6951101 13.5592837,11.9642319 12.56,11.8 C11.5526163,11.4749796 10.7217559,10.7524924 10.26,9.8 C10.32,9 10.34,8.26 10.34,7.82 L10.34,7.81 Z M9.53,7.61 C9.55318981,8.74574982 9.46611511,9.88107003 9.27,11 C9.07078373,9.88136463 8.98036173,8.74606626 9,7.61 C9,6.88 9,6.19 9.08,5.61 C9.11458084,5.17021603 9.17468209,4.73281246 9.26,4.3 C9.33754281,4.70012385 9.39428566,5.10399942 9.43,5.51 C9.5,6.12 9.53,6.84 9.53,7.61 Z M8.21,7 C7.29362904,7.13908937 6.36496632,7.17932024 5.44,7.12 C4.35441019,7.10984836 3.31224209,6.69226731 2.52,5.95 C1.87744273,5.15769449 1.62089077,4.12049157 1.82,3.12 C2.04,2.18 2.41,1.66 2.92,1.55 C4.32,1.25 6.92,3.88 8.27,5.65 C8.24,6.05 8.22,6.51 8.21,7 Z M6.21,8 C6.87923345,7.99388254 7.54734082,7.94377449 8.21,7.85 C8.21,8.32 8.21,8.97 8.28,9.62 C7.81910531,10.6276042 6.96091096,11.3988928 5.91,11.75 C4.90276188,11.917409 3.87212811,11.6442728 3.08,11 C2.49,10.6 2.21,10.22 2.27,9.89 C2.4,9.07 4.27,8.27 5.45,7.89 L6.21,8 Z" id="Shape"></path>
                    </g>
                </g>
            </g>
        </g>
    </g>
</svg>