<?xml version="1.0" encoding="UTF-8"?>
<svg width="30px" height="30px" viewBox="0 0 30 30" version="1.1" xmlns="http://www.w3.org/2000/svg" xmlns:xlink="http://www.w3.org/1999/xlink">
    <!-- Generator: sketchtool 51.2 (57519) - http://www.bohemiancoding.com/sketch -->
    <title>CB167DE9-9520-4259-8C3A-040F2CA5A3C2</title>
    <desc>Created with sketchtool.</desc>
    <defs></defs>
    <g id="FRONTEND" stroke="none" stroke-width="1" fill="none" fill-rule="evenodd">
        <g id="ICONOS" transform="translate(-657.000000, -127.000000)" fill-rule="nonzero">
            <g id="Categorías" transform="translate(64.000000, 50.000000)">
                <g id="naturaleza" transform="translate(593.000000, 77.000000)">
                    <g id="Capa_2" fill="#6062A6">
                        <rect id="Rectangle-path" x="0" y="0" width="30" height="30"></rect>
                    </g>
                    <g id="Capa_1" transform="translate(3.000000, 6.000000)" fill="#FFFFFF">
                        <path d="M19.38,10.34 C20.3786145,10.0564199 21.283206,9.51090285 22,8.76 C23.1357207,7.40762309 23.5856939,5.60773056 23.22,3.88 C22.81,2.14 22.02,1.14 20.86,0.88 C18.33,0.34 14.86,4 13.22,5.88 C13.1543296,5.47446504 13.0505361,5.07603213 12.91,4.69 C13.24,3.95 14.3,1.89 15.82,1.76 C16.0005069,1.83302844 16.2075385,1.77241126 16.3201527,1.61355934 C16.4327669,1.45470742 16.4214288,1.23928228 16.2927617,1.09312938 C16.1640946,0.946976472 15.9518436,0.908426792 15.78,1 C14.1,1.14 12.96,2.84 12.38,4 C12.18006,3.87959865 11.92994,3.87959865 11.73,4 C11.15,2.87 10.02,1.18 8.33,1 C8.10861952,0.997933289 7.92017992,1.16067659 7.89,1.38 C7.87264711,1.60856344 8.04175872,1.80882719 8.27,1.83 C9.79,1.96 10.85,4.02 11.18,4.76 C11.0390677,5.16301462 10.9353019,5.57807778 10.87,6 C9.23,4 5.71,0.3 3.12,0.84 C1.96,1.08 1.12,2.09 0.76,3.84 C0.389845838,5.5835206 0.847704645,7.40018619 2,8.76 C2.7220293,9.51433311 3.63400697,10.0601379 4.64,10.34 C3.18,10.97 1.64,11.95 1.38,13.25 C1.23,14.17 1.76,15.06 2.96,15.87 C4.3014517,16.891799 6.01096414,17.3019368 7.67,17 C8.98581602,16.6357401 10.1279439,15.8128405 10.89,14.68 C11.13,16.05 11.51,16.68 12.06,16.68 C12.61,16.68 12.96,16.06 13.2,14.8 C13.9545428,15.8762132 15.0618488,16.6545114 16.33,17 C16.6742426,17.0801189 17.0265571,17.1203834 17.38,17.12 C18.7093159,17.0657096 19.9915515,16.612746 21.06,15.82 C22.26,15 22.8,14.12 22.64,13.2 C22.42,11.95 20.84,11 19.38,10.34 Z M17.17,9.61 C15.9514155,9.68595142 14.7282433,9.63568406 13.52,9.46 C13.52,8.74 13.52,8.07 13.42,7.46 C15.32,5 18.77,1.58 20.65,2 C21.35,2.15 21.86,2.87 22.16,4.16 C22.4222646,5.53775508 22.0555396,6.96064808 21.16,8.04 C20.0687766,9.03691949 18.6479785,9.59598041 17.17,9.61 Z M13.53,10.61 C14.3850914,10.7280689 15.2468373,10.7915308 16.11,10.8 C16.46,10.8 16.81,10.8 17.18,10.8 C18.84,11.28 21.35,12.38 21.54,13.5 C21.64,14.07 20.99,14.64 20.43,15.02 C19.3463429,15.8838161 17.9470554,16.2472674 16.58,16.02 C15.1911805,15.5694214 14.0485886,14.5678456 13.42,13.25 C13.5,12.19 13.52,11.19 13.53,10.58 L13.53,10.61 Z M12.42,10.33 C12.4508203,11.871001 12.3336159,13.4114017 12.07,14.93 C11.8067504,13.4113561 11.6895487,11.8709907 11.72,10.33 C11.72,9.33 11.72,8.39 11.83,7.53 C11.8750482,6.92585582 11.9551835,6.32484174 12.07,5.73 C12.1753081,6.27898583 12.2520779,6.8330631 12.3,7.39 C12.38,8.25 12.42,9.24 12.42,10.3 L12.42,10.33 Z M10.61,9.47 C9.35271963,9.65927807 8.07874131,9.71291926 6.81,9.63 C5.32342427,9.61601085 3.89613356,9.04509457 2.81,8.03 C1.91446037,6.95064808 1.54773537,5.52775508 1.81,4.15 C2.11,2.87 2.62,2.15 3.32,1.99 C5.24,1.58 8.81,5.18 10.66,7.62 C10.65,8.17 10.62,8.79 10.61,9.44 L10.61,9.47 Z M7.89,10.79 C8.80004947,10.7825116 9.7086428,10.7157032 10.61,10.59 C10.61,11.24 10.61,12.13 10.7,13.02 L10.7,13.07 C10.0688327,14.4655527 8.87763556,15.5296404 7.42,16 C6.05288714,16.2285591 4.65307866,15.8649725 3.57,15 C2.76,14.45 2.38,13.94 2.46,13.48 C2.64,12.36 5.15,11.25 6.82,10.78 C7.19,10.75 7.54,10.76 7.88,10.76 L7.89,10.79 Z" id="Shape"></path>
                    </g>
                </g>
            </g>
        </g>
    </g>
</svg>