<?xml version="1.0" encoding="UTF-8"?>
<svg width="25px" height="34px" viewBox="0 0 25 34" version="1.1" xmlns="http://www.w3.org/2000/svg" xmlns:xlink="http://www.w3.org/1999/xlink">
    <!-- Generator: sketchtool 51.2 (57519) - http://www.bohemiancoding.com/sketch -->
    <title>DD10B10A-3572-467B-B5C7-A2AB8FF7C8AD</title>
    <desc>Created with sketchtool.</desc>
    <defs></defs>
    <g id="FRONTEND" stroke="none" stroke-width="1" fill="none" fill-rule="evenodd">
        <g id="ICONOS" transform="translate(-323.000000, -281.000000)" fill-rule="nonzero">
            <g id="PINS" transform="translate(64.000000, 207.000000)">
                <g id="parques" transform="translate(259.000000, 74.000000)">
                    <g id="Capa_2">
                        <path d="M12.81,33 C12.0749674,32.99963 11.3915594,32.6220565 11,32 C8.65,28.69 0.95,17.34 0.95,12.11 C0.95,5.55990287 6.25990287,0.25 12.81,0.25 C19.3600971,0.25 24.67,5.55990287 24.67,12.11 C24.67,17.34 16.97,28.69 14.61,32.04 C14.2109398,32.6437926 13.5337333,33.0049694 12.81,33 Z" id="Shape" fill="#437038"></path>
                        <path d="M12.81,0.5 C19.2197407,0.505513758 24.4144862,5.70025932 24.42,12.11 C24.42,17.27 16.75,28.56 14.42,31.91 C14.0628375,32.4376579 13.4671718,32.7537565 12.83,32.7537565 C12.1928282,32.7537565 11.5971625,32.4376579 11.24,31.91 C8.89,28.57 1.24,17.28 1.24,12.12 C1.23994077,5.72192682 6.41198605,0.527530435 12.81,0.5 Z M12.81,-2.49800181e-15 C9.59741477,-0.00265612805 6.51564539,1.27236224 4.24400381,3.54400381 C1.97236224,5.81564539 0.697343872,8.89741477 0.7,12.11 C0.7,17.11 7.35,27.27 10.81,32.19 C11.2607179,32.8516054 12.0094574,33.2475023 12.81,33.2475023 C13.6105426,33.2475023 14.3592821,32.8516054 14.81,32.19 C18.27,27.27 24.92,17.08 24.92,12.11 C24.9226561,8.89741477 23.6476378,5.81564539 21.3759962,3.54400381 C19.1043546,1.27236224 16.0225852,-0.00265612805 12.81,-2.49800181e-15 Z" id="Shape" fill="#FFFFFF"></path>
                    </g>
                    <g id="Capa_1" transform="translate(4.000000, 5.000000)" fill="#FFFFFF">
                        <path d="M6.21,4.57 C6.96156796,4.50742373 7.53968791,3.87916855 7.53968791,3.125 C7.53968791,2.37083145 6.96156796,1.74257627 6.21,1.68 C5.77176007,1.00053276 5.01853569,0.590025479 4.21,0.59 C3.53993052,0.591783088 2.90138494,0.87477488 2.45,1.37 L2.28,1.37 C1.63371156,1.37110584 1.05155106,1.76091974 0.804376753,2.35807536 C0.55720245,2.95523098 0.693557176,3.64245228 1.15,4.1 C1.44823191,4.4021091 1.85548859,4.57149905 2.28,4.57 L6.2,4.57 L6.21,4.57 Z M6.21,2.48 C6.37973855,2.48 6.54252506,2.54742838 6.66254834,2.66745166 C6.78257162,2.78747494 6.85,2.95026145 6.85,3.12 C6.84865082,3.28922033 6.78033601,3.45101855 6.66,3.57 C6.54165555,3.69127328 6.37944781,3.75976099 6.21,3.76 L2.28,3.76 C1.84093362,3.76 1.485,3.40406638 1.485,2.965 C1.485,2.52593362 1.84093362,2.17 2.28,2.17 L2.58,2.17 L2.7,2.17 L2.9,2 C3.20412802,1.61530005 3.66964578,1.39362493 4.16,1.4 C4.75949636,1.39911009 5.30853031,1.73549005 5.58,2.27 L5.68,2.4 L6.21,2.48 Z" id="Shape"></path>
                        <path d="M8.38,12.54 C8.50861561,12.4756922 8.59315353,12.3476537 8.60176915,12.2041154 C8.61038476,12.0605771 8.54176915,11.9233459 8.42176915,11.8441154 C8.30176915,11.7648849 8.14861561,11.7556922 8.02,11.82 L6.86,12.4 L6.86,10.92 C6.86,10.6963247 6.67867532,10.515 6.455,10.515 C6.23132468,10.515 6.05,10.6963247 6.05,10.92 L6.05,12.36 L5.11,11.83 C5.01736868,11.7761035 4.90698386,11.7616324 4.80359018,11.7898306 C4.70019649,11.8180289 4.61244259,11.8865379 4.56,11.98 C4.50610347,12.0726313 4.49163237,12.1830161 4.51983065,12.2864098 C4.54802892,12.3898035 4.61653786,12.4775574 4.71,12.53 L6.05,13.29 L6.05,16.29 C6.05,16.5136753 6.23132468,16.695 6.455,16.695 C6.67867532,16.695 6.86,16.5136753 6.86,16.29 L6.86,13.29 L8.38,12.53 L8.38,12.54 Z" id="Shape"></path>
                        <path d="M16.8,13.93 L12.48,0.85 L12.39,0.71 L12.3,0.64 L12.09,0.59 L12.09,0.74 L12,0.6 L11.81,0.69 L9.2,8.4 C9.01535626,7.95512981 8.73145809,7.55835647 8.37,7.24 C7.81653737,6.75296201 7.10717685,6.47985821 6.37,6.47 C5.53325049,6.46982922 4.73220435,6.80901092 4.15,7.41 C3.40997437,8.17181188 3.08886713,9.24714773 3.29,10.29 C2.70261206,10.7584163 2.36034668,11.4687089 2.36,12.22 C2.34137722,12.8547726 2.57096759,13.4717968 3,13.94 C3.44471851,14.4018607 4.05884009,14.6619593 4.7,14.66 C4.92367532,14.66 5.105,14.4786753 5.105,14.255 C5.105,14.0313247 4.92367532,13.85 4.7,13.85 C4.27850237,13.8510741 3.87450755,13.6815406 3.58,13.38 C3.22913927,13.0188209 3.06118504,12.5179077 3.12340231,12.0182252 C3.18561958,11.5185427 3.47128215,11.0741109 3.9,10.81 L4,10.72 L4.08,10.59 L4.08,10.44 L4.08,10.34 C4.01965579,10.1219873 3.99268318,9.89609164 4,9.67 C4.00738402,9.04350539 4.25845885,8.44451258 4.7,8 C5.55220905,7.12240554 6.94368855,7.06956455 7.86,7.88 C8.28518582,8.25576698 8.56480693,8.76899559 8.65,9.33 L8.65,9.39 L8.72,9.51 L8.83,9.6 L8.92,9.48 L8.92,9.62 C9.81319023,9.99543925 10.3930309,10.871117 10.39,11.84 C10.404147,13.0894042 9.44588148,14.1351825 8.2,14.23 C7.9790861,14.23 7.8,14.4090861 7.8,14.63 C7.8,14.8509139 7.9790861,15.03 8.2,15.03 C8.86319417,14.9878931 9.494821,14.7317333 10,14.3 L11.68,14.18 L11.68,16.34 C11.68,16.5636753 11.8613247,16.745 12.085,16.745 C12.3086753,16.745 12.49,16.5636753 12.49,16.34 L12.49,14.17 L16.38,14.45 C16.5228075,14.45515 16.6584355,14.387336 16.74,14.27 L16.8,14.15 C16.8205631,14.0781082 16.8205631,14.0018918 16.8,13.93 Z M12.12,10.92 C11.8990861,10.92 11.72,11.0990861 11.72,11.32 L11.72,13.32 L10.72,13.39 C11.5494745,11.9504006 11.1515232,10.1163641 9.8,9.15 L12.1,2.28 L15.85,13.61 L12.51,13.36 L12.51,11.36 C12.5215694,11.2454086 12.4831834,11.1313912 12.4046664,11.047129 C12.3261494,10.9628669 12.2151219,10.9165381 12.1,10.92 L12.12,10.92 Z" id="Shape"></path>
                    </g>
                </g>
            </g>
        </g>
    </g>
</svg>