<?xml version="1.0" encoding="UTF-8"?>
<svg width="25px" height="34px" viewBox="0 0 25 34" version="1.1" xmlns="http://www.w3.org/2000/svg" xmlns:xlink="http://www.w3.org/1999/xlink">
    <!-- Generator: sketchtool 51.2 (57519) - http://www.bohemiancoding.com/sketch -->
    <title>BE7423D3-EBA8-4955-8B92-ECAC2B3D740C</title>
    <desc>Created with sketchtool.</desc>
    <defs></defs>
    <g id="FRONTEND" stroke="none" stroke-width="1" fill="none" fill-rule="evenodd">
        <g id="ICONOS" transform="translate(-281.000000, -281.000000)" fill-rule="nonzero">
            <g id="PINS" transform="translate(64.000000, 207.000000)">
                <g id="peluqueria" transform="translate(217.000000, 74.000000)">
                    <g id="Capa_2">
                        <path d="M12.92,33 C12.1981759,33.0071869 11.5213723,32.6499849 11.12,32.05 C8.76,28.69 1.06,17.34 1.06,12.11 C1.06,5.55990287 6.36990287,0.25 12.92,0.25 C19.4700971,0.25 24.78,5.55990287 24.78,12.11 C24.78,17.34 17.08,28.69 14.72,32.04 C14.3209398,32.6437926 13.6437333,33.0049694 12.92,33 Z" id="Shape" fill="#9C6531"></path>
                        <path d="M12.92,0.5 C19.3297407,0.505513758 24.5244862,5.70025932 24.53,12.11 C24.53,17.27 16.86,28.56 14.53,31.91 C14.1728375,32.4376579 13.5771718,32.7537565 12.94,32.7537565 C12.3028282,32.7537565 11.7071625,32.4376579 11.35,31.91 C9,28.57 1.35,17.28 1.35,12.12 C1.34994077,5.72192682 6.52198605,0.527530435 12.92,0.5 Z M12.92,-2.49800265e-15 C9.70741477,-0.00265612805 6.62564539,1.27236224 4.35400381,3.54400381 C2.08236224,5.81564539 0.807343872,8.89741477 0.81,12.11 C0.81,17.11 7.46,27.27 10.92,32.19 C11.3707179,32.8516054 12.1194574,33.2475023 12.92,33.2475023 C13.7205426,33.2475023 14.4692821,32.8516054 14.92,32.19 C18.39,27.27 25,17.07 25,12.11 C25.0055287,5.43125366 19.5987395,0.0110369656 12.92,-1.34337054e-15 Z" id="Shape" fill="#FFFFFF"></path>
                    </g>
                    <g id="Capa_1" transform="translate(5.000000, 4.000000)" fill="#FFFFFF">
                        <path d="M14.82,15.31 C14.168304,15.31 13.64,14.781696 13.64,14.13 C13.64,13.5385672 13.4050542,12.971358 12.9868481,12.5531519 C12.568642,12.1349458 12.0014328,11.9 11.41,11.9 C11.2552887,11.8995896 11.1010101,11.916359 10.95,11.95 L8.55,9.06 L12.8,3.63 C13.3996275,2.81629333 13.8406467,1.89693787 14.1,0.92 L14.16,0.65 L13.73,0.33 L11.67,1.53 L7.48,6.53 L3.32,1.55 L1.45,0.46 L1.2,0.34 L0.78,0.67 L0.85,0.92 C1.11167475,1.90100079 1.55611722,2.82381264 2.16,3.64 L6.4,9.06 L4,12 C3.84898991,11.966359 3.69471133,11.9495896 3.54,11.95 C2.52068894,11.9600887 1.63673076,12.6571206 1.38920952,13.6459735 C1.14168829,14.6348264 1.59303182,15.6660997 2.48738973,16.1552016 C3.38174763,16.6443036 4.49355211,16.4678769 5.19256122,15.7259314 C5.89157033,14.983986 6.0014856,13.8636493 5.46,13 L7.46,10.43 L9.46,13 C8.81658827,14.0438182 9.14118182,15.4115883 10.185,16.055 C11.2288182,16.6984117 12.5965883,16.3738182 13.24,15.33 C13.6151069,15.8047507 14.1849716,16.0841682 14.79,16.09 C14.9841182,16.059016 15.1269524,15.8915754 15.1269524,15.695 C15.1269524,15.4984246 14.9841182,15.330984 14.79,15.3 L14.82,15.31 Z M4.94,12.4 L4.77,12.27 L6.9,9.7 L6.97,9.79 L4.94,12.4 Z M4.64,13.2 C4.86486408,13.4577306 4.9891457,13.7879646 4.99,14.13 C4.99,14.92529 4.34529004,15.57 3.55,15.57 C2.75470996,15.57 2.11,14.92529 2.11,14.13 C2.11,13.33471 2.75470996,12.69 3.55,12.69 C3.72072176,12.6896994 3.89009865,12.7201872 4.05,12.78 C4.16687387,12.8221916 4.27779528,12.879333 4.38,12.95 C4.47328595,13.022748 4.55725199,13.1067141 4.63,13.2 L4.64,13.2 Z M10.55,13 C11.0775704,12.5852275 11.821711,12.5898731 12.3440616,13.0112002 C12.8664123,13.4325273 13.0284724,14.1588216 12.7347752,14.7622357 C12.4410781,15.3656499 11.769497,15.6861896 11.1156487,15.5350305 C10.4618004,15.3838713 9.99905175,14.801093 10,14.13 C10.0008543,13.7879646 10.1251359,13.4577306 10.35,13.2 C10.4100367,13.1270176 10.4770176,13.0600367 10.55,13 Z M13,1.66 C12.7766295,2.18855403 12.4912994,2.68872084 12.15,3.15 L8.53,7.8 C8.4948016,7.7283853 8.45115784,7.66124106 8.4,7.6 L8,7.11 L12.17,2.11 L13,1.66 Z M6.71,8.4 L6.81,8.32 L2.81,3.17 C2.46848866,2.7052802 2.18317138,2.20177911 1.96,1.67 L2.81,2.16 L7.81,8.1 C7.81889718,8.13612694 7.81889718,8.17387306 7.81,8.21 C7.82250118,8.25243172 7.82250118,8.29756828 7.81,8.34 C7.80678743,8.37325593 7.80678743,8.40674407 7.81,8.44 C7.64946958,8.78613938 7.69990006,9.19346248 7.94,9.49 L10.22,12.24 L10,12.4 L6.81,8.32 L6.71,8.4 Z" id="Shape"></path>
                    </g>
                </g>
            </g>
        </g>
    </g>
</svg>