<?xml version="1.0" encoding="UTF-8"?>
<svg width="30px" height="30px" viewBox="0 0 30 30" version="1.1" xmlns="http://www.w3.org/2000/svg" xmlns:xlink="http://www.w3.org/1999/xlink">
    <!-- Generator: sketchtool 51.2 (57519) - http://www.bohemiancoding.com/sketch -->
    <title>B3DA9107-3337-4E1A-BBC4-CBFF84323E60</title>
    <desc>Created with sketchtool.</desc>
    <defs></defs>
    <g id="FRONTEND" stroke="none" stroke-width="1" fill="none" fill-rule="evenodd">
        <g id="ICONOS" transform="translate(-163.000000, -127.000000)" fill-rule="nonzero">
            <g id="Categorías" transform="translate(64.000000, 50.000000)">
                <g id="peluqueria" transform="translate(99.000000, 77.000000)">
                    <g id="Capa_2" fill="#9C6531">
                        <rect id="Rectangle-path" x="0" y="0" width="30" height="30"></rect>
                    </g>
                    <g id="Capa_1" transform="translate(5.000000, 4.000000)" fill="#FFFFFF">
                        <path d="M19.35,20.55 C18.4552987,20.55 17.73,19.8247013 17.73,18.93 C17.73,17.2400087 16.3599913,15.87 14.67,15.87 C14.4580595,15.87 14.2467712,15.8934765 14.04,15.94 L10.75,11.94 L16.57,4.49 C17.3960884,3.37407883 18.003449,2.1118545 18.36,0.77 L18.44,0.4 L17.86,0 L15,1.64 L9.25,8.46 L3.58,1.68 L1,0.18 L0.68,0 L0.11,0.46 L0.2,0.81 C0.560002624,2.15549984 1.17068835,3.42097637 2,4.54 L7.81,12 L4.52,16 C4.31360601,15.95011 4.10231282,15.9232792 3.89,15.92 C2.49238287,15.9128601 1.2651549,16.8476759 0.900779466,18.1969776 C0.536404034,19.5462793 1.12623288,20.9717866 2.33745507,21.669157 C3.54867727,22.3665273 5.07763005,22.1609246 6.06160182,21.1683602 C7.04557358,20.1757957 7.237875,18.6451131 6.53,17.44 L9.29,13.91 L12,17.39 C11.1163444,18.8231789 11.5618211,20.7013444 12.995,21.585 C14.4281789,22.4686556 16.3063444,22.0231789 17.19,20.59 C17.7047499,21.2322904 18.4869705,21.6012624 19.31,21.59 C19.6082338,21.59 19.85,21.3482338 19.85,21.05 C19.85,20.7517662 19.6082338,20.51 19.31,20.51 L19.35,20.55 Z M5.8,16.55 L5.57,16.37 L8.5,12.84 L8.6,12.97 L5.8,16.55 Z M5.39,17.65 C5.69774456,18.0017007 5.86818988,18.4526706 5.87,18.92 C5.87,20.0245695 4.9745695,20.92 3.87,20.92 C2.7654305,20.92 1.87,20.0245695 1.87,18.92 C1.87,17.8154305 2.7654305,16.92 3.87,16.92 C4.1026278,16.9222112 4.33296137,16.9662455 4.55,17.05 C4.70912183,17.1073306 4.86032867,17.1846141 5,17.28 C5.14318506,17.3889947 5.27100533,17.5168149 5.38,17.66 L5.39,17.65 Z M13.51,17.34 C14.2654266,16.8091307 15.2860754,16.864379 15.9797833,17.473691 C16.6734911,18.0830029 16.8599394,19.0879972 16.4309539,19.9055931 C16.0019684,20.723189 15.0690573,21.1408651 14.1734799,20.9162928 C13.2779025,20.6917205 12.6524502,19.8832738 12.66,18.96 C12.667022,18.4936481 12.836811,18.0444147 13.14,17.69 C13.2454525,17.5621916 13.3663791,17.4479831 13.5,17.35 L13.51,17.34 Z M16.88,1.83 C16.5719616,2.53927441 16.1826938,3.21042576 15.72,3.83 L10.72,10.21 C10.6743242,10.1104213 10.6172781,10.016463 10.55,9.93 L10,9.3 L15.72,2.5 L16.88,1.83 Z M8.24,11.08 L8.38,10.97 L2.86,3.89 C2.38975227,3.25211917 1.99699681,2.56060101 1.69,1.83 L2.85,2.5 L9.7,10.65 C9.73771705,10.6958114 9.76195305,10.751208 9.77,10.81 C9.7872226,10.8687641 9.7872226,10.9312359 9.77,10.99 C9.74503771,11.0343802 9.72492198,11.0813168 9.71,11.13 C9.49478267,11.60571 9.56430689,12.1619038 9.89,12.57 L13,16.38 L12.76,16.55 L8.39,11 L8.25,11.11 L8.24,11.08 Z" id="Shape"></path>
                    </g>
                </g>
            </g>
        </g>
    </g>
</svg>