<?xml version="1.0" encoding="UTF-8"?>
<svg width="25px" height="34px" viewBox="0 0 25 34" version="1.1" xmlns="http://www.w3.org/2000/svg" xmlns:xlink="http://www.w3.org/1999/xlink">
    <!-- Generator: sketchtool 51.2 (57519) - http://www.bohemiancoding.com/sketch -->
    <title>8F01D4B7-5174-4AF9-BCC6-57A5293BA33F</title>
    <desc>Created with sketchtool.</desc>
    <defs></defs>
    <g id="FRONTEND" stroke="none" stroke-width="1" fill="none" fill-rule="evenodd">
        <g id="ICONOS" transform="translate(-240.000000, -281.000000)" fill-rule="nonzero">
            <g id="PINS" transform="translate(64.000000, 207.000000)">
                <g id="plazas" transform="translate(176.000000, 74.000000)">
                    <g id="Capa_2">
                        <path d="M12.19,33 C11.4620874,32.992808 10.7877499,32.6160832 10.4,32 C8,28.69 0.34,17.34 0.34,12.11 C0.34,5.55990287 5.64990287,0.25 12.2,0.25 C18.7500971,0.25 24.06,5.55990287 24.06,12.11 C24.06,17.34 16.36,28.69 14,32.04 C13.5990044,32.6467884 12.9172686,33.008372 12.19,33 Z" id="Shape" fill="#2F3787"></path>
                        <path d="M12.19,0.5 C18.5997407,0.505513758 23.7944862,5.70025932 23.8,12.11 C23.8,17.27 16.13,28.56 13.8,31.91 C13.4428375,32.4376579 12.8471718,32.7537565 12.21,32.7537565 C11.5728282,32.7537565 10.9771625,32.4376579 10.62,31.91 C8.27,28.57 0.62,17.28 0.62,12.12 C0.619940769,5.72192682 5.79198605,0.527530435 12.19,0.5 Z M12.19,-2.49800181e-15 C8.97914711,-1.09652805e-06 5.89994833,1.27618929 3.63047047,3.54754275 C1.36099262,5.81889621 0.0873464026,8.89914821 0.09,12.11 C0.09,17.11 6.74,27.27 10.2,32.19 C10.6507179,32.8516054 11.3994574,33.2475023 12.2,33.2475023 C13.0005426,33.2475023 13.7492821,32.8516054 14.2,32.19 C17.66,27.27 24.3,17.07 24.3,12.11 C24.3026561,8.89741477 23.0276378,5.81564539 20.7559962,3.54400381 C18.4843546,1.27236224 15.4025852,-0.00265612805 12.19,0 Z" id="Shape" fill="#FFFFFF"></path>
                    </g>
                    <g id="Capa_1" transform="translate(3.000000, 3.000000)" fill="#FFFFFF">
                        <path d="M15.41,11.23 L12.06,8.71 L12.06,6.2 L12.35,6.2 C12.515543,6.20815378 12.6652605,6.10222746 12.7126691,5.94340868 C12.7600777,5.7845899 12.6929244,5.61392606 12.55,5.53 L10.09,3.89 L10.09,3.13 L12.35,3.13 C12.5466087,3.12475433 12.7047543,2.9666087 12.71,2.77 L12.71,1 C12.7047543,0.803391304 12.5466087,0.645245673 12.35,0.64 L10.09,0.64 L10.09,0.58 C10.09,0.378416066 9.92658393,0.215 9.725,0.215 C9.52341607,0.215 9.36,0.378416066 9.36,0.58 L9.36,3.88 L6.9,5.53 C6.75707556,5.61392606 6.68992232,5.7845899 6.73733092,5.94340868 C6.78473951,6.10222746 6.93445697,6.20815378 7.1,6.2 L7.39,6.2 L7.39,8.64 C7.24270433,8.69847143 7.10193668,8.77220686 6.97,8.86 L4,11 C3.82204434,11.1110906 3.61934068,11.1763681 3.41,11.19 L2.73,11.19 C1.73672588,11.2622023 0.967749773,12.0891051 0.967749773,13.085 C0.967749773,14.0808949 1.73672588,14.9077977 2.73,14.98 L3.38,14.98 C3.73588329,14.9642942 4.08111346,14.8538206 4.38,14.66 L7.38,12.54 L7.38,14.62 C7.38,14.8215839 7.54341607,14.985 7.745,14.985 C7.94658393,14.985 8.11,14.8215839 8.11,14.62 L8.11,12.32 L11.32,12.32 L11.32,14.58 C11.32,14.7815839 11.4834161,14.945 11.685,14.945 C11.8865839,14.945 12.05,14.7815839 12.05,14.58 L12.05,12.68 L15,14.87 C15.1093704,14.9544612 15.2574346,14.9688642 15.3810326,14.9070652 C15.5046306,14.8452662 15.5819467,14.718173 15.58,14.58 L15.58,11.52 C15.5730504,11.4016852 15.5098426,11.2938602 15.41,11.23 Z M14.83,11.7 L14.83,13.85 L13.83,13.08 L13.83,10.94 L14.83,11.7 Z M8.12,8.53 L8.12,6.2 L11.33,6.2 L11.33,8.53 L8.12,8.53 Z M11.33,9.26 L11.33,11.59 L8.12,11.59 L8.12,9.26 L11.33,9.26 Z M10.09,2.4 L10.09,1.4 L12,1.4 L12,2.4 L10.09,2.4 Z M11.14,5.46 L8.31,5.46 L9.73,4.51 L11.14,5.46 Z M13.07,10.38 L13.07,12.53 L12.07,11.76 L12.07,9.62 L13.07,10.38 Z M7.38,9.43 L7.38,11.66 C7.23187244,11.7207883 7.09099892,11.7979333 6.96,11.89 L4,14 C3.82111447,14.1075751 3.61847074,14.1693986 3.41,14.18 L2.73,14.18 C2.12827262,14.1241913 1.66805091,13.6193099 1.66805091,13.015 C1.66805091,12.4106901 2.12827262,11.9058087 2.73,11.85 L3.38,11.85 C3.73588329,11.8342942 4.08111346,11.7238206 4.38,11.53 L7.38,9.43 Z" id="Shape"></path>
                    </g>
                </g>
            </g>
        </g>
    </g>
</svg>