<?xml version="1.0" encoding="UTF-8"?>
<svg width="30px" height="30px" viewBox="0 0 30 30" version="1.1" xmlns="http://www.w3.org/2000/svg" xmlns:xlink="http://www.w3.org/1999/xlink">
    <!-- Generator: sketchtool 51.2 (57519) - http://www.bohemiancoding.com/sketch -->
    <title>CA9C9FAD-E809-4A3D-B897-17D3FE00C0FB</title>
    <desc>Created with sketchtool.</desc>
    <defs></defs>
    <g id="FRONTEND" stroke="none" stroke-width="1" fill="none" fill-rule="evenodd">
        <g id="ICONOS" transform="translate(-361.000000, -126.000000)" fill-rule="nonzero">
            <g id="Categorías" transform="translate(64.000000, 50.000000)">
                <g id="plazas" transform="translate(297.000000, 76.000000)">
                    <g id="Capa_2" fill="#2F3787">
                        <rect id="Rectangle-path" x="0" y="0" width="30" height="30"></rect>
                    </g>
                    <g id="Capa_1" transform="translate(3.000000, 3.000000)" fill="#FFFFFF">
                        <path d="M23,17.56 L17.89,13.73 L17.89,9.89 L18.33,9.89 C18.5620766,9.87546101 18.7610219,9.71901519 18.8298742,9.496911 C18.8987265,9.27480681 18.8231583,9.0332618 18.64,8.89 L14.89,6.39 L14.89,5.22 L18.33,5.22 C18.6392795,5.22 18.89,4.96927946 18.89,4.66 L18.89,2 C18.89,1.69072054 18.6392795,1.44 18.33,1.44 L14.89,1.44 L14.89,1.33 C14.9190685,1.11393086 14.8200953,0.900632163 14.6363333,0.783318971 C14.4525713,0.666005779 14.2174287,0.666005779 14.0336667,0.783318971 C13.8499047,0.900632163 13.7509315,1.11393086 13.78,1.33 L13.78,6.33 L10,8.87 C9.81684169,9.0132618 9.7412735,9.25480681 9.8101258,9.476911 C9.8789781,9.69901519 10.0779234,9.85546101 10.31,9.87 L10.75,9.87 L10.75,13.6 C10.5257699,13.6874415 10.3112754,13.7980403 10.11,13.93 L5.55,17.16 C5.28052819,17.3243439 4.97502703,17.4204566 4.66,17.44 L3.66,17.44 C2.06389711,17.44 0.770000086,18.7338971 0.770000086,20.33 C0.770000086,21.9261029 2.06389711,23.22 3.66,23.22 L4.66,23.22 C5.20506295,23.1988002 5.73403131,23.0293921 6.19,22.73 L10.77,19.5 L10.77,22.66 C10.7409315,22.8760691 10.8399047,23.0893678 11.0236667,23.206681 C11.2074287,23.3239942 11.4425713,23.3239942 11.6263333,23.206681 C11.8100953,23.0893678 11.9090685,22.8760691 11.88,22.66 L11.88,19.22 L16.77,19.22 L16.77,22.66 C16.7409315,22.8760691 16.8399047,23.0893678 17.0236667,23.206681 C17.2074287,23.3239942 17.4425713,23.3239942 17.6263333,23.206681 C17.8100953,23.0893678 17.9090685,22.8760691 17.88,22.66 L17.88,19.78 L22.33,23.11 C22.499931,23.2339477 22.7249855,23.2522232 22.9126885,23.1573172 C23.1003915,23.0624112 23.2190858,22.8703301 23.22,22.66 L23.22,18 C23.218461,17.8272504 23.1372762,17.664881 23,17.56 Z M22.11,18.28 L22.11,21.56 L20.55,20.39 L20.55,17.11 L22.11,18.28 Z M11.89,13.44 L11.89,9.89 L16.78,9.89 L16.78,13.45 L11.89,13.44 Z M16.78,14.55 L16.78,18.11 L11.89,18.11 L11.89,14.56 L16.78,14.55 Z M14.89,4.11 L14.89,2.55 L17.78,2.55 L17.78,4.11 L14.89,4.11 Z M16.5,8.78 L12.17,8.78 L14.33,7.34 L16.5,8.78 Z M19.45,16.28 L19.45,19.56 L17.89,18.39 L17.89,15.11 L19.45,16.28 Z M10.78,14.84 L10.78,18.25 C10.5543169,18.342508 10.3396564,18.4599004 10.14,18.6 L5.55,21.83 C5.28052819,21.9943439 4.97502703,22.0904566 4.66,22.11 L3.66,22.11 C2.67693315,22.11 1.88,21.3130669 1.88,20.33 C1.88,19.3469331 2.67693315,18.55 3.66,18.55 L4.66,18.55 C5.20506295,18.5288002 5.73403131,18.3593921 6.19,18.06 L10.78,14.84 Z" id="Shape"></path>
                    </g>
                </g>
            </g>
        </g>
    </g>
</svg>