<?xml version="1.0" encoding="UTF-8"?>
<svg width="25px" height="34px" viewBox="0 0 25 34" version="1.1" xmlns="http://www.w3.org/2000/svg" xmlns:xlink="http://www.w3.org/1999/xlink">
    <!-- Generator: sketchtool 51.2 (57519) - http://www.bohemiancoding.com/sketch -->
    <title>708FA879-A4AE-4D3F-84AF-F0CB7AF8B2E6</title>
    <desc>Created with sketchtool.</desc>
    <defs></defs>
    <g id="FRONTEND" stroke="none" stroke-width="1" fill="none" fill-rule="evenodd">
        <g id="ICONOS" transform="translate(-198.000000, -281.000000)" fill-rule="nonzero">
            <g id="PINS" transform="translate(64.000000, 207.000000)">
                <g id="restoranes" transform="translate(134.000000, 74.000000)">
                    <g id="Capa_2">
                        <path d="M12.22,33 C11.4981759,33.0071869 10.8213723,32.6499849 10.42,32.05 C8.07,28.69 0.37,17.34 0.37,12.11 C0.37,5.55990287 5.67990287,0.25 12.23,0.25 C18.7800971,0.25 24.09,5.55990287 24.09,12.11 C24.09,17.34 16.39,28.69 14.03,32.04 C13.6290044,32.6467884 12.9472686,33.008372 12.22,33 Z" id="Shape" fill="#E4A852"></path>
                        <path d="M12.22,0.5 C18.6297407,0.505513758 23.8244862,5.70025932 23.83,12.11 C23.83,17.27 16.16,28.56 13.83,31.91 C13.4728375,32.4376579 12.8771718,32.7537565 12.24,32.7537565 C11.6028282,32.7537565 11.0071625,32.4376579 10.65,31.91 C8.3,28.57 0.65,17.28 0.65,12.12 C0.649940769,5.72192682 5.82198605,0.527530435 12.22,0.5 Z M12.22,-2.49800858e-15 C9.00914711,-1.09652805e-06 5.92994833,1.27618929 3.66047047,3.54754275 C1.39099262,5.81889621 0.117346403,8.89914821 0.12,12.11 C0.12,17.11 6.77,27.27 10.23,32.19 C10.6807179,32.8516054 11.4294574,33.2475023 12.23,33.2475023 C13.0305426,33.2475023 13.7792821,32.8516054 14.23,32.19 C17.69,27.27 24.34,17.08 24.34,12.11 C24.3426609,8.89567984 23.0662705,5.81239111 20.7924643,3.54046098 C18.5186581,1.26853085 15.4343169,-0.00531402905 12.22,-6.77626358e-21 Z" id="Shape" fill="#FFFFFF"></path>
                    </g>
                    <g id="Capa_1" transform="translate(6.000000, 5.000000)" fill="#FFFFFF">
                        <path d="M12.18,4.47 C12.0694793,3.32710393 11.7293509,2.21828558 11.18,1.21 C10.8565032,0.534658655 10.2049276,0.0762828069 9.46,0 C8.70332873,0.0735342207 8.04174559,0.541205059 7.72,1.23 C7.17064907,2.23828558 6.83052074,3.34710393 6.72,4.49 C6.65291574,5.15543126 6.90078918,5.81396071 7.39,6.27 L7.66,6.55 C7.89751214,6.76753268 8.0999098,7.02052976 8.26,7.3 L8.26,14.18 C8.24615511,14.5854011 8.36173666,14.9846828 8.59,15.32 C8.77013765,15.6235865 9.09699244,15.809706 9.45,15.809706 C9.80300756,15.809706 10.1298623,15.6235865 10.31,15.32 C10.5389029,14.9849841 10.6545465,14.5854881 10.64,14.18 L10.64,7.28 C10.8000902,7.00052976 11.0024879,6.74753268 11.24,6.53 L11.51,6.25 C11.9992108,5.79396071 12.2470843,5.13543126 12.18,4.47 Z M9.69,14.84 C9.6470003,14.9308366 9.55550003,14.988757 9.455,14.988757 C9.35449997,14.988757 9.2629997,14.9308366 9.22,14.84 C9.0920388,14.6373599 9.03245312,14.3990171 9.05,14.16 L9.05,7.16 C9.05844464,7.11371536 9.05844464,7.06628464 9.05,7.02 C8.86049099,6.60878603 8.58814227,6.24111525 8.25,5.94 L8,5.73 C7.65832455,5.44690512 7.48174228,5.01108504 7.53,4.57 C7.61397052,3.52013601 7.91354252,2.49886782 8.41,1.57 C8.74,1.02 9.12,0.72 9.48,0.72 C9.84,0.72 10.22,1.02 10.55,1.57 C11.0467246,2.49875861 11.3463132,3.52008364 11.43,4.57 C11.4747885,5.00770788 11.2985391,5.43895644 10.96,5.72 L10.71,5.97 C10.371644,6.27091986 10.0992598,6.6386385 9.91,7.05 C9.90155536,7.09628464 9.90155536,7.14371536 9.91,7.19 L9.91,14.19 C9.90648365,14.4243486 9.82953754,14.6516894 9.69,14.84 Z" id="Shape"></path>
                        <path d="M5.24,0.46 C5.21212632,0.273674331 5.05801286,0.13205656 4.87,0.12 C4.75068786,0.116771791 4.63646646,0.16835565 4.56,0.26 C4.48246192,0.347192062 4.44927984,0.465172808 4.47,0.58 L4.94,3.52 C4.98489692,3.84788137 4.89466512,4.1799344 4.69,4.44 C4.4600147,4.74344255 4.15739722,4.984161 3.81,5.14 C3.67577915,5.20500691 3.59038209,5.34086587 3.59,5.49 L3.59,14.49 C3.59718568,14.6393851 3.53433007,14.7835833 3.42,14.88 C3.30549542,14.9678754 3.16428855,15.0137676 3.02,15.01 C2.77,15.01 2.39,14.87 2.39,14.49 L2.39,5.49 C2.38779163,5.33857248 2.29811932,5.20211461 2.16,5.14 C1.81578713,4.98347852 1.51657277,4.74273133 1.29,4.44 C1.06839062,4.18371687 0.963336692,3.84681978 1,3.51 L1.47,0.58 C1.48893116,0.469979375 1.45980632,0.357120629 1.39,0.27 C1.31992138,0.179995665 1.21395141,0.125183612 1.1,0.12 C0.917455789,0.131954512 0.76775286,0.269182196 0.74,0.45 L0.28,3.39 C0.200315561,3.9253701 0.341027304,4.47017711 0.67,4.9 C0.93700067,5.24803417 1.27873904,5.53167702 1.67,5.73 L1.67,14.53 C1.66192485,14.8879068 1.79847643,15.233956 2.04878041,15.4899059 C2.29908439,15.7458559 2.64200217,15.8900911 3,15.89 C3.3657262,15.9073079 3.72179523,15.769589 3.98069213,15.5106921 C4.23958904,15.2517952 4.37730788,14.8957262 4.36,14.53 L4.36,5.73 C4.75126096,5.53167702 5.09299933,5.24803417 5.36,4.9 C5.6889727,4.47017711 5.82968444,3.9253701 5.75,3.39 L5.24,0.46 Z" id="Shape"></path>
                        <path d="M3.58,4.58 C3.68083625,4.57961725 3.77760495,4.54019296 3.85,4.47 C3.93746589,4.40217943 3.99199619,4.30038955 4,4.19 L4,0.5 C4.0026972,0.394843993 3.96280185,0.293057404 3.88936828,0.217740926 C3.81593471,0.142424447 3.71519059,0.0999654147 3.61,0.1 C3.39852406,0.105424232 3.22993045,0.278454517 3.23,0.49 L3.23,4.18 C3.22731356,4.28344398 3.26584776,4.38371505 3.33711877,4.45873717 C3.40838978,4.53375928 3.50655428,4.57738157 3.61,4.58 L3.58,4.58 Z" id="Shape"></path>
                        <path d="M2.4,4.58 C2.50083625,4.57961725 2.59760495,4.54019296 2.67,4.47 C2.74630483,4.39679426 2.78961297,4.29574194 2.79,4.19 L2.79,0.5 C2.7926972,0.394843993 2.75280185,0.293057404 2.67936828,0.217740926 C2.60593471,0.142424447 2.50519059,0.0999654147 2.4,0.1 C2.29308585,0.0972215903 2.18972198,0.138471484 2.11409673,0.214096731 C2.03847148,0.289721977 1.99722159,0.393085846 2,0.5 L2,4.18 C1.99731356,4.28344398 2.03584776,4.38371505 2.10711877,4.45873717 C2.17838978,4.53375928 2.27655428,4.57738157 2.38,4.58 L2.4,4.58 Z" id="Shape"></path>
                    </g>
                </g>
            </g>
        </g>
    </g>
</svg>