<?xml version="1.0" encoding="UTF-8"?>
<svg width="25px" height="34px" viewBox="0 0 25 34" version="1.1" xmlns="http://www.w3.org/2000/svg" xmlns:xlink="http://www.w3.org/1999/xlink">
    <!-- Generator: sketchtool 51.2 (57519) - http://www.bohemiancoding.com/sketch -->
    <title>90FC06BA-2CAC-436B-98B6-B3AFDC78F94A</title>
    <desc>Created with sketchtool.</desc>
    <defs></defs>
    <g id="FRONTEND" stroke="none" stroke-width="1" fill="none" fill-rule="evenodd">
        <g id="ICONOS" transform="translate(-156.000000, -281.000000)" fill-rule="nonzero">
            <g id="PINS" transform="translate(64.000000, 207.000000)">
                <g id="stayandplay" transform="translate(92.000000, 74.000000)">
                    <g id="Capa_2">
                        <path d="M12.47,33 C11.7481759,33.0071869 11.0713723,32.6499849 10.67,32.05 C8.32,28.69 0.62,17.34 0.62,12.11 C0.62,5.55990287 5.92990287,0.25 12.48,0.25 C19.0300971,0.25 24.34,5.55990287 24.34,12.11 C24.34,17.34 16.64,28.69 14.28,32.04 C13.8790044,32.6467884 13.1972686,33.008372 12.47,33 Z" id="Shape" fill="#009DE0"></path>
                        <path d="M12.47,0.5 C18.8797407,0.505513758 24.0744862,5.70025932 24.08,12.11 C24.08,17.27 16.41,28.56 14.08,31.91 C13.7228375,32.4376579 13.1271718,32.7537565 12.49,32.7537565 C11.8528282,32.7537565 11.2571625,32.4376579 10.9,31.91 C8.53,28.56 0.87,17.27 0.87,12.11 C0.875503291,5.70415779 6.06416491,0.511023186 12.47,0.5 Z M12.47,-1.16574434e-15 C9.25914711,-1.09652805e-06 6.17994833,1.27618929 3.91047047,3.54754275 C1.64099262,5.81889621 0.367346403,8.89914821 0.37,12.11 C0.37,17.11 7.02,27.27 10.48,32.19 C10.9307179,32.8516054 11.6794574,33.2475023 12.48,33.2475023 C13.2805426,33.2475023 14.0292821,32.8516054 14.48,32.19 C17.94,27.27 24.59,17.08 24.59,12.11 C24.5926609,8.89567984 23.3162705,5.81239111 21.0424643,3.54046098 C18.7686581,1.26853085 15.6843169,-0.00531402905 12.47,-1.16574434e-15 Z" id="Shape" fill="#FFFFFF"></path>
                    </g>
                    <g id="Capa_1" transform="translate(5.000000, 7.000000)" fill="#FFFFFF">
                        <rect id="Rectangle-path" x="0.44" y="10.94" width="13.44" height="1"></rect>
                        <path d="M13.76,0.31 L1,0.31 L1,0.72 C1.03041911,2.7440652 1.7341173,4.70034617 3,6.28 C3.62856578,6.995519 4.0259714,7.88445261 4.14,8.83 L4.14,9.24 L10.37,9.24 L10.37,8.83 C10.4751075,7.89142249 10.8541995,7.0045558 11.46,6.28 L11.89,5.61 L11.95,5.51 L13.79,5.51 C14.7555493,5.56996735 15.6745534,5.08889577 16.1754758,4.26127376 C16.6763982,3.43365174 16.6763982,2.39634826 16.1754758,1.56872624 C15.6745534,0.741104229 14.7555493,0.260032651 13.79,0.32 L13.76,0.31 Z M11.5,4.57 L11.5,4.65 C11.28,5.04 11.04,5.44 10.79,5.82 C10.2393079,6.53995882 9.83811216,7.36275015 9.61,8.24 L9.61,8.42 L4.92,8.42 L4.92,8.24 C4.68349313,7.35824299 4.26823015,6.53452462 3.7,5.82 C2.66871612,4.54415763 2.02339382,3.00024136 1.84,1.37 L1.84,1.13 L12.54,1.13 L12.54,1.36 C12.4429949,2.49395541 12.0908848,3.59130816 11.51,4.57 L11.5,4.57 Z M13.76,4.68 L12.4,4.68 L12.55,4.37 C12.99676,3.4281 13.2614078,2.41022364 13.33,1.37 L13.33,1.17 L13.76,1.17 C14.737544,1.17 15.53,1.96245599 15.53,2.94 C15.53,3.91754401 14.737544,4.71 13.76,4.71 L13.76,4.68 Z" id="Shape"></path>
                    </g>
                </g>
            </g>
        </g>
    </g>
</svg>