<?xml version="1.0" encoding="UTF-8"?>
<svg width="30px" height="30px" viewBox="0 0 30 30" version="1.1" xmlns="http://www.w3.org/2000/svg" xmlns:xlink="http://www.w3.org/1999/xlink">
    <!-- Generator: sketchtool 51.2 (57519) - http://www.bohemiancoding.com/sketch -->
    <title>74699D92-E319-41A8-8350-6C3E69C31D76</title>
    <desc>Created with sketchtool.</desc>
    <defs></defs>
    <g id="FRONTEND" stroke="none" stroke-width="1" fill="none" fill-rule="evenodd">
        <g id="ICONOS" transform="translate(-756.000000, -127.000000)" fill-rule="nonzero">
            <g id="Categorías" transform="translate(64.000000, 50.000000)">
                <g id="stayandplay" transform="translate(692.000000, 77.000000)">
                    <g id="Capa_2" fill="#009DE0">
                        <rect id="Rectangle-path" x="0" y="0" width="30" height="30"></rect>
                    </g>
                    <g id="Capa_1" transform="translate(4.000000, 7.000000)" fill="#FFFFFF">
                        <rect id="Rectangle-path" x="0.08" y="14.72" width="18.44" height="1.13"></rect>
                        <path d="M18.35,0.15 L0.82,0.15 L0.82,0.72 C0.859673351,3.49248503 1.82004675,6.17308769 3.55,8.34 C4.43,9.62 5.11,10.63 5.11,11.83 L5.11,12.39 L13.65,12.39 L13.65,11.83 C13.7952759,10.5413004 14.3169941,9.32395814 15.15,8.33 L15.74,7.41 L15.83,7.27 L18.35,7.27 C20.3188951,7.27 21.915,5.67389513 21.915,3.705 C21.915,1.73610487 20.3188951,0.14 18.35,0.14 L18.35,0.15 Z M15.26,6 L15.2,6.11 C14.9,6.65 14.57,7.19 14.2,7.72 C13.4557277,8.69721107 12.9119718,9.81191067 12.6,11 L12.6,11.24 L6.22,11.24 L6.22,11 C5.87603987,9.79288109 5.28713865,8.6695435 4.49,7.7 C3.09813736,5.94404822 2.23452565,3.82837295 2,1.6 L2,1.28 L16.64,1.28 L16.64,1.6 C16.5167396,3.15178232 16.0450332,4.65577368 15.26,6 Z M18.36,6.16 L16.48,6.16 L16.68,5.73 C17.2984311,4.42416271 17.6616118,3.01217043 17.75,1.57 L17.75,1.29 L18.33,1.29 C19.1981554,1.28999997 20.0003641,1.75315535 20.4344418,2.50499998 C20.8685195,3.25684461 20.8685195,4.18315539 20.4344418,4.93500002 C20.0003641,5.68684465 19.1981554,6.15000003 18.33,6.15 L18.36,6.16 Z" id="Shape"></path>
                    </g>
                </g>
            </g>
        </g>
    </g>
</svg>