<?xml version="1.0" encoding="UTF-8"?>
<svg width="30px" height="31px" viewBox="0 0 30 31" version="1.1" xmlns="http://www.w3.org/2000/svg" xmlns:xlink="http://www.w3.org/1999/xlink">
    <!-- Generator: sketchtool 51.2 (57519) - http://www.bohemiancoding.com/sketch -->
    <title>4B983EF9-0499-4D45-92AB-8565E9333545</title>
    <desc>Created with sketchtool.</desc>
    <defs></defs>
    <g id="FRONTEND" stroke="none" stroke-width="1" fill="none" fill-rule="evenodd">
        <g id="ICONOS" transform="translate(-854.000000, -127.000000)" fill-rule="nonzero">
            <g id="Categorías" transform="translate(64.000000, 50.000000)">
                <g id="talleres" transform="translate(790.000000, 77.000000)">
                    <g id="Capa_2" fill="#7D2741">
                        <rect id="Rectangle-path" x="0" y="0.49" width="30" height="30"></rect>
                    </g>
                    <g id="Capa_1" transform="translate(7.000000, 4.000000)" fill="#FFFFFF">
                        <path d="M0.22,9.67 L0.22,22.32 C0.22,22.6237566 0.466243388,22.87 0.77,22.87 C1.07375661,22.87 1.32,22.6237566 1.32,22.32 L1.32,11 L4,13.68 C4.10323244,13.7838142 4.24359532,13.8421856 4.39,13.8421856 C4.53640468,13.8421856 4.67676756,13.7838142 4.78,13.68 L7.45,11 L7.45,22.32 C7.45,22.6237566 7.69624339,22.87 8,22.87 C8.30375661,22.87 8.55,22.6237566 8.55,22.32 L8.55,11 L11.22,13.67 C11.4372566,13.8808392 11.7827434,13.8808392 12,13.67 L14.67,11 L14.67,22.32 C14.67,22.6237566 14.9162434,22.87 15.22,22.87 C15.5237566,22.87 15.77,22.6237566 15.77,22.32 L15.77,9.67 C15.7729821,9.63673337 15.7729821,9.60326663 15.77,9.57 L15.77,9.48 L15.77,9.39 L15.77,9.33 L8.55,0.33 C8.44174527,0.205591143 8.28491407,0.134165739 8.12,0.134165739 C7.95508593,0.134165739 7.79825473,0.205591143 7.69,0.33 L0.47,9.33 L0.4,9.44 L0.4,9.54 C0.331924615,9.57088497 0.27072181,9.615087 0.22,9.67 Z M6.28,3.67 L9.72,3.67 L14.49,9.67 L11.62,12.54 L8.4,9.32 C8.18274342,9.10916083 7.83725658,9.10916083 7.62,9.32 L4.4,12.54 L1.51,9.63 L6.28,3.67 Z" id="Shape"></path>
                    </g>
                </g>
            </g>
        </g>
    </g>
</svg>