<?xml version="1.0" encoding="UTF-8"?>
<svg width="25px" height="34px" viewBox="0 0 25 34" version="1.1" xmlns="http://www.w3.org/2000/svg" xmlns:xlink="http://www.w3.org/1999/xlink">
    <!-- Generator: sketchtool 51.2 (57519) - http://www.bohemiancoding.com/sketch -->
    <title>D5944A6D-50DA-4D4C-944B-4BBAA398F2D9</title>
    <desc>Created with sketchtool.</desc>
    <defs></defs>
    <g id="FRONTEND" stroke="none" stroke-width="1" fill="none" fill-rule="evenodd">
        <g id="ICONOS" transform="translate(-115.000000, -281.000000)" fill-rule="nonzero">
            <g id="PINS" transform="translate(64.000000, 207.000000)">
                <g id="talleres" transform="translate(51.000000, 74.000000)">
                    <g id="Capa_2">
                        <path d="M12.47,33 C11.7481759,33.0071869 11.0713723,32.6499849 10.67,32.05 C8.32,28.69 0.62,17.34 0.62,12.11 C0.62,5.55990287 5.92990287,0.25 12.48,0.25 C19.0300971,0.25 24.34,5.55990287 24.34,12.11 C24.34,17.34 16.64,28.69 14.28,32.04 C13.8790044,32.6467884 13.1972686,33.008372 12.47,33 Z" id="Shape" fill="#7D2741"></path>
                        <path d="M12.47,0.5 C18.8797407,0.505513758 24.0744862,5.70025932 24.08,12.11 C24.08,17.27 16.41,28.56 14.08,31.91 C13.7228375,32.4376579 13.1271718,32.7537565 12.49,32.7537565 C11.8528282,32.7537565 11.2571625,32.4376579 10.9,31.91 C8.55,28.57 0.9,17.28 0.9,12.12 C0.899940769,5.72192682 6.07198605,0.527530435 12.47,0.5 Z M12.47,-2.49800858e-15 C9.25914711,-1.09652805e-06 6.17994833,1.27618929 3.91047047,3.54754275 C1.64099262,5.81889621 0.367346403,8.89914821 0.37,12.11 C0.37,17.11 7.02,27.27 10.48,32.19 C10.9307179,32.8516054 11.6794574,33.2475023 12.48,33.2475023 C13.2805426,33.2475023 14.0292821,32.8516054 14.48,32.19 C17.94,27.27 24.59,17.08 24.59,12.11 C24.5926609,8.89567984 23.3162705,5.81239111 21.0424643,3.54046098 C18.7686581,1.26853085 15.6843169,-0.00531402905 12.47,-6.77626358e-21 Z" id="Shape" fill="#FFFFFF"></path>
                    </g>
                    <g id="Capa_1" transform="translate(6.000000, 2.000000)" fill="#FFFFFF">
                        <path d="M0.75,7.62 L0.75,16.84 C0.75,17.0609139 0.9290861,17.24 1.15,17.24 C1.3709139,17.24 1.55,17.0609139 1.55,16.84 L1.55,8.58 L3.5,10.53 C3.57518295,10.6063431 3.67785173,10.6493312 3.785,10.6493312 C3.89214827,10.6493312 3.99481705,10.6063431 4.07,10.53 L6,8.58 L6,16.83 C6,17.0509139 6.1790861,17.23 6.4,17.23 C6.6209139,17.23 6.8,17.0509139 6.8,16.83 L6.8,8.58 L8.75,10.53 C8.90892733,10.6836725 9.16107267,10.6836725 9.32,10.53 L11.27,8.58 L11.27,16.83 C11.27,17.0509139 11.4490861,17.23 11.67,17.23 C11.8909139,17.23 12.07,17.0509139 12.07,16.83 L12.07,7.62 C12.0719955,7.59670933 12.0719955,7.57329067 12.07,7.55 L12.07,7.48 L12.07,7.41 L6.73,0.78 C6.65210272,0.686502057 6.53669574,0.632440469 6.415,0.632440469 C6.29330426,0.632440469 6.17789728,0.686502057 6.1,0.78 L0.84,7.36 L0.84,7.44 L0.84,7.51 C0.803825041,7.54114766 0.773367518,7.57837352 0.75,7.62 Z M5.17,3.25 L7.67,3.25 L11.15,7.59 L9.06,9.69 L6.7,7.33 C6.54107267,7.17632754 6.28892733,7.17632754 6.13,7.33 L3.78,9.68 L1.69,7.59 L5.17,3.25 Z" id="Shape"></path>
                    </g>
                </g>
            </g>
        </g>
    </g>
</svg>