<?xml version="1.0" encoding="UTF-8"?>
<svg width="30px" height="30px" viewBox="0 0 30 30" version="1.1" xmlns="http://www.w3.org/2000/svg" xmlns:xlink="http://www.w3.org/1999/xlink">
    <!-- Generator: sketchtool 51.2 (57519) - http://www.bohemiancoding.com/sketch -->
    <title>72E8D118-3143-4F67-B4FA-F0670444D5AD</title>
    <desc>Created with sketchtool.</desc>
    <defs></defs>
    <g id="FRONTEND" stroke="none" stroke-width="1" fill="none" fill-rule="evenodd">
        <g id="ICONOS" transform="translate(-312.000000, -127.000000)" fill-rule="nonzero">
            <g id="Categorías" transform="translate(64.000000, 50.000000)">
                <g id="trekking" transform="translate(248.000000, 77.000000)">
                    <g id="Capa_2" fill="#68AC9D">
                        <rect id="Rectangle-path" x="0" y="0" width="30" height="30"></rect>
                    </g>
                    <g id="Capa_1" transform="translate(4.000000, 7.000000)" fill="#FFFFFF">
                        <path d="M9.08,7.44 L4.52,7.44 C3.32491473,7.42932917 2.17510618,7.89661286 1.32627205,8.73793519 C0.477437909,9.57925752 -4.76385896e-05,10.7248671 8.8817842e-16,11.92 L8.8817842e-16,15.43 C8.8817842e-16,15.6067311 0.14326888,15.75 0.32,15.75 L21.63,15.75 C21.8067311,15.75 21.95,15.6067311 21.95,15.43 L21.95,0.57 C21.95,0.39326888 21.8067311,0.25 21.63,0.25 L13.16,0.25 C12.9832689,0.25 12.84,0.39326888 12.84,0.57 L12.84,3.68 C12.84,5.75659066 11.1565907,7.44 9.08,7.44 Z M20.52,14.64 L1.52,14.64 C1.34326888,14.64 1.2,14.4967311 1.2,14.32 L1.2,13.68 C1.2,13.5032689 1.34326888,13.36 1.52,13.36 L20.52,13.36 C20.6967311,13.36 20.84,13.5032689 20.84,13.68 L20.84,14.32 C20.84,14.4967311 20.6967311,14.64 20.52,14.64 Z M14.28,1.36 L20.52,1.36 C20.6967311,1.36 20.84,1.50326888 20.84,1.68 L20.84,2.32 C20.84,2.49673112 20.6967311,2.64 20.52,2.64 L14.28,2.64 C14.1190467,2.61972686 13.9987283,2.48222002 14,2.32 L14,1.68 C13.9987283,1.51777998 14.1190467,1.38027314 14.28,1.36 Z M12.28,7.51 C12.5018742,7.32609378 12.7060938,7.12187423 12.89,6.9 L13.02,6.74 L13.74,7.16 L14.3,6.16 L13.57,5.74 L13.64,5.55 C13.8509194,5.05875411 13.9728163,4.53391999 14,4 L14,3.76 L20.56,3.76 C20.7367311,3.76 20.88,3.90326888 20.88,4.08 L20.88,11.92 C20.88,12.0967311 20.7367311,12.24 20.56,12.24 L1.56,12.24 C1.38326888,12.24 1.24,12.0967311 1.24,11.92 C1.24,10.0643232 2.74432324,8.56 4.6,8.56 L6.52,8.56 L6.52,9.36 L7.63,9.36 L7.63,8.56 L8.92,8.56 L8.92,9.36 L10,9.36 L10,8.52 L10.2,8.52 C10.4830084,8.47311232 10.7609233,8.39944815 11.03,8.3 L11.22,8.23 L11.64,8.96 L12.64,8.4 L12.22,7.68 L12.28,7.51 Z" id="Shape"></path>
                    </g>
                </g>
            </g>
        </g>
    </g>
</svg>