<?xml version="1.0" encoding="UTF-8"?>
<svg width="25px" height="34px" viewBox="0 0 25 34" version="1.1" xmlns="http://www.w3.org/2000/svg" xmlns:xlink="http://www.w3.org/1999/xlink">
    <!-- Generator: sketchtool 51.2 (57519) - http://www.bohemiancoding.com/sketch -->
    <title>6F2AC88E-1FA6-4DB1-8B3E-65FC47B38625</title>
    <desc>Created with sketchtool.</desc>
    <defs></defs>
    <g id="FRONTEND" stroke="none" stroke-width="1" fill="none" fill-rule="evenodd">
        <g id="ICONOS" transform="translate(-73.000000, -281.000000)" fill-rule="nonzero">
            <g id="PINS" transform="translate(64.000000, 207.000000)">
                <g id="trekking" transform="translate(9.000000, 74.000000)">
                    <g id="Capa_2">
                        <path d="M12.19,33 C11.4620874,32.992808 10.7877499,32.6160832 10.4,32 C8,28.69 0.34,17.34 0.34,12.11 C0.34,5.55990287 5.64990287,0.25 12.2,0.25 C18.7500971,0.25 24.06,5.55990287 24.06,12.11 C24.06,17.34 16.36,28.69 14,32.04 C13.5990044,32.6467884 12.9172686,33.008372 12.19,33 Z" id="Shape" fill="#68AC9D"></path>
                        <path d="M12.19,0.5 C18.5997407,0.505513758 23.7944862,5.70025932 23.8,12.11 C23.8,17.27 16.13,28.56 13.8,31.91 C13.4428375,32.4376579 12.8471718,32.7537565 12.21,32.7537565 C11.5728282,32.7537565 10.9771625,32.4376579 10.62,31.91 C8.27,28.57 0.62,17.28 0.62,12.12 C0.619940769,5.72192682 5.79198605,0.527530435 12.19,0.5 Z M12.19,-2.49800181e-15 C8.97914711,-1.09652805e-06 5.89994833,1.27618929 3.63047047,3.54754275 C1.36099262,5.81889621 0.0873464026,8.89914821 0.09,12.11 C0.09,17.11 6.74,27.27 10.2,32.19 C10.6507179,32.8516054 11.3994574,33.2475023 12.2,33.2475023 C13.0005426,33.2475023 13.7492821,32.8516054 14.2,32.19 C17.66,27.27 24.3,17.07 24.3,12.11 C24.3026561,8.89741477 23.0276378,5.81564539 20.7559962,3.54400381 C18.4843546,1.27236224 15.4025852,-0.00265612805 12.19,0 Z" id="Shape" fill="#FFFFFF"></path>
                    </g>
                    <g id="Capa_1" transform="translate(5.000000, 5.000000)" fill="#FFFFFF">
                        <path d="M5.93,5.6 L2.93,5.6 C1.31018944,5.60550959 -9.37008072e-06,6.92018007 0,8.54 L0,10.85 C-8.8817842e-16,10.9659798 0.0940202025,11.06 0.21,11.06 L14.21,11.06 C14.3259798,11.06 14.42,10.9659798 14.42,10.85 L14.42,1.09 C14.42,0.974020203 14.3259798,0.88 14.21,0.88 L8.61,0.88 C8.4940202,0.88 8.4,0.974020203 8.4,1.09 L8.4,3.09 C8.41072186,3.75198762 8.15523146,4.39056693 7.69084941,4.86246934 C7.22646736,5.33437175 6.59207444,5.60008682 5.93,5.6 Z M13.44,10.32 L0.95,10.32 C0.834020203,10.32 0.74,10.2259798 0.74,10.11 L0.74,9.69 C0.74,9.5740202 0.834020203,9.48 0.95,9.48 L13.44,9.48 C13.5559798,9.48 13.65,9.5740202 13.65,9.69 L13.65,10.11 C13.6527368,10.167407 13.6318261,10.2234272 13.5921429,10.265 C13.5524597,10.3065729 13.4974722,10.3300652 13.44,10.33 L13.44,10.32 Z M9.34,1.6 L13.44,1.6 C13.5559798,1.6 13.65,1.6940202 13.65,1.81 L13.65,2.23 C13.65,2.3459798 13.5559798,2.44 13.44,2.44 L9.34,2.44 C9.2240202,2.44 9.13,2.3459798 9.13,2.23 L9.13,1.82 C9.1299348,1.76252783 9.15342712,1.70754026 9.19499996,1.6678571 C9.2365728,1.62817393 9.29259299,1.60726319 9.35,1.61 L9.34,1.6 Z M8.04,5.6 C8.18563456,5.47956313 8.31956313,5.34563456 8.44,5.2 L8.53,5.1 L9,5.37 L9.37,4.74 L8.89,4.47 L8.89,4.34 C9.00983325,4.01992303 9.07409132,3.68172264 9.08,3.34 L9.08,3.18 L13.39,3.18 C13.4456955,3.18 13.4991098,3.20212494 13.5384924,3.24150758 C13.5778751,3.28089022 13.6,3.33430454 13.6,3.39 L13.6,8.53 C13.6,8.6459798 13.5059798,8.74 13.39,8.74 L0.95,8.74 C0.834020203,8.74 0.74,8.6459798 0.74,8.53 C0.74,7.3094507 1.7294507,6.32 2.95,6.32 L4.21,6.32 L4.21,6.84 L4.94,6.84 L4.94,6.32 L5.78,6.32 L5.78,6.84 L6.51,6.84 L6.51,6.29 L6.64,6.29 C6.82428627,6.25695976 7.00507496,6.20674068 7.18,6.14 L7.31,6.14 L7.58,6.62 L8.21,6.25 L7.94,5.78 L8.04,5.6 Z" id="Shape"></path>
                    </g>
                </g>
            </g>
        </g>
    </g>
</svg>