<?xml version="1.0" encoding="UTF-8"?>
<svg width="114px" height="90px" viewBox="0 0 114 90" version="1.1" xmlns="http://www.w3.org/2000/svg" xmlns:xlink="http://www.w3.org/1999/xlink">
    <!-- Generator: sketchtool 51.2 (57519) - http://www.bohemiancoding.com/sketch -->
    <title>099A5060-AD16-4F3C-8A2D-6D3CAAAB117B</title>
    <desc>Created with sketchtool.</desc>
    <defs></defs>
    <g id="FRONTEND" stroke="none" stroke-width="1" fill="none" fill-rule="evenodd">
        <g id="HOME" transform="translate(-349.000000, -1254.000000)">
            <g id="Binocular" transform="translate(349.000000, 1254.000000)">
                <g id="Group">
                    <g>
                        <g id="Layer_x0020_1">
                            <path d="M80.2243352,51.9076607 C83.583255,49.8700305 87.575387,48.6880296 91.8546067,48.6880296 C97.2018397,48.6880296 102.094143,50.5275872 105.861586,53.5728423 L96.480172,18.745912 C95.9215266,18.3844008 95.3688025,18.0540617 94.8219998,17.7532547 C94.5152015,17.6796362 94.2458513,17.5327285 94.0312754,17.3364673 C93.6200624,16.9601493 93.4101029,16.4022118 93.5234007,15.8307838 C93.5902813,15.4974028 93.6394839,15.1759495 93.6698764,14.8683147 C93.6976564,14.5874959 93.711938,14.2597893 93.711938,13.884376 C93.711938,13.7363986 93.7086288,13.589162 93.7021846,13.442747 C84.673907,9.69832912 77.2526703,12.6391116 72.1212342,16.4622663 C72.3182188,17.1922 72.5918378,17.882734 72.9328593,18.5249011 C73.3680187,19.3470433 73.015241,20.3468564 72.1448334,20.7578878 C71.2744261,21.1689172 70.2159175,20.8357014 69.7807559,20.0135589 C69.5852518,19.6454665 69.4070773,19.2696416 69.2471032,18.8870725 C67.7161618,20.3374818 66.5146712,21.7454451 65.6764785,22.8215944 C65.0478163,22.264478 64.331026,21.7864933 63.5504035,21.3871431 C61.571239,20.3744976 59.1681517,19.8681342 56.7843878,19.8681342 C54.4007125,19.8681342 51.99755,20.3744976 50.0183721,21.3871431 C49.2378359,21.7864933 48.5209571,22.264478 47.8922972,22.8215944 C47.0541111,21.7456123 45.8525232,20.3377262 44.3215841,18.8874903 C44.1616973,19.2699779 43.9835222,19.6456378 43.7881061,20.0135652 C43.3529466,20.8357075 42.2944359,21.1689235 41.4240285,20.7578941 C40.5536212,20.3468647 40.2008432,19.3470496 40.6360027,18.5249073 C40.9768494,17.8829868 41.2504686,17.1926994 41.4473667,16.4630121 C36.3159306,12.6403505 28.8947825,9.70005696 19.8666597,13.4444121 C19.8601283,13.5903331 19.8569062,13.7369936 19.8569062,13.8843969 C19.8569062,14.2598102 19.871188,14.5875147 19.8989678,14.8683356 C19.9293603,15.1759704 19.9785629,15.4974237 20.0454436,15.8308047 C20.1587403,16.4022327 19.94878,16.9601702 19.5375688,17.3364882 C19.3229932,17.5327494 19.0536405,17.6796575 18.7467559,17.7532756 C18.2000417,18.0540826 17.6472292,18.3844217 17.0885838,18.7459329 L7.70716984,53.5728632 C11.4746129,50.5276039 16.3669161,48.6880505 21.7141491,48.6880505 C25.9933909,48.6880505 29.9853238,49.8699783 33.3444206,51.907598 C38.3887725,54.9675868 41.1097245,60.2326704 41.0709713,60.1864345 C43.1563776,63.5968173 43.9270729,65.4908384 47.7607857,67.8096112 C50.3605012,69.381922 53.4567974,70.2937302 56.784374,70.2937302 C60.1119506,70.2937302 63.2082247,69.3819304 65.8079623,67.8096112 C72.8858174,63.5285395 71.9349485,56.9360282 80.2243275,51.9076816 L80.2243352,51.9076607 Z M62.0192924,32.0264566 C62.9965519,32.0264566 63.7888446,32.7748158 63.7888446,33.6978852 L63.7888446,61.9782477 C63.7888446,62.9013171 62.9965519,63.6496762 62.0192924,63.6496762 L50.50371,63.6496762 C49.5264504,63.6496762 48.7341578,62.9013171 48.7341578,61.9782477 L48.7341578,33.6978852 C48.7341578,32.7748158 49.5264504,32.0264566 50.50371,32.0264566 L62.0192924,32.0264566 Z" id="Shape" fill="#F4F4F4"></path>
                            <path d="M2.24485737,60.3001125 L13.8234137,17.3168196 L15.5376674,17.7281791 L13.8227169,17.3159986 C13.9378422,16.8885182 14.2179044,16.5419767 14.5823525,16.3212854 C31.5270318,4.90160491 43.877511,17.6677235 47.8924039,22.8214294 C48.5210661,22.264313 49.2379426,21.7863283 50.0184789,21.386978 C51.9976434,20.3743326 54.4008192,19.8679691 56.7844946,19.8679691 C59.1682584,19.8679691 61.5713325,20.3743326 63.5505103,21.386978 C64.3311328,21.7863283 65.0479253,22.264313 65.6765853,22.8214294 C69.6970964,17.659661 82.0778571,4.86205473 99.061179,16.3701329 L98.0312332,17.7281687 L99.0627473,16.3700515 C99.429894,16.6188729 99.6660672,16.9760258 99.7576792,17.3622156 L111.324048,60.300171 C112.661314,62.9505971 113.410151,65.9168187 113.410151,69.0481983 C113.410151,74.6703408 110.9973,79.7604676 107.096543,83.4448603 C103.195875,87.1293156 97.8069248,89.4083712 91.854704,89.4083712 C85.9025054,89.4083712 80.5135553,87.1293156 76.6127764,83.4448603 C72.7120197,79.7604885 70.2991689,74.6703617 70.2991689,69.0481983 C70.2991689,68.9529465 70.2998656,68.8577773 70.301346,68.7626891 C69.4948593,69.4434348 68.6303733,70.0639693 67.7158974,70.6170534 C64.5558753,72.5282568 60.8042697,73.6364891 56.7844664,73.6364891 C52.764663,73.6364891 49.0130574,72.528263 45.8530353,70.6170534 C44.9385639,70.0639693 44.0740779,69.4434348 43.2675868,68.7626891 C43.2690672,68.8577762 43.2697639,68.9529457 43.2697639,69.0481983 C43.2697639,74.6703408 40.856913,79.7604676 36.9561563,83.4448603 C33.0553996,87.1293156 27.6664494,89.4083712 21.7142287,89.4083712 C15.7620301,89.4083712 10.3730799,87.1293156 6.47238957,83.4448603 C2.57163285,79.7604885 0.158782016,74.6703617 0.158782016,69.0481983 C0.158782016,65.9168187 0.907618921,62.950618 2.24488503,60.300171 L2.24485737,60.3001125 Z M74.1873308,65.6606973 C73.9583861,66.7335539 73.8381229,67.8657921 73.8381229,69.0481398 C73.8381229,73.7474657 75.8547334,78.0019618 79.1149056,81.0812764 C82.3750844,84.1606746 86.8793469,86.0654555 91.8545536,86.0654555 C96.8297603,86.0654555 101.334023,84.1606684 104.594113,81.0812764 C107.854292,78.0019618 109.870896,73.7474657 109.870896,69.0481398 C109.870896,64.3488139 107.854285,60.0943179 104.594113,57.0149196 C101.334023,53.9355214 96.8297603,52.0307405 91.8545536,52.0307405 C88.269286,52.0307405 84.932574,53.0161605 82.1321249,54.7150548 C80.0579509,55.9733146 78.2751646,57.6203111 76.9000234,59.5459848 C75.4618265,62.0165234 74.8056477,62.7656159 74.1873441,65.6606764 L74.1873308,65.6606973 Z M80.2242689,51.9075145 C83.5831887,49.8698842 87.5753207,48.6878834 91.8545404,48.6878834 C97.2017733,48.6878834 102.094077,50.527441 105.86152,53.5726961 L96.4801057,18.7457657 C79.8177585,7.96365161 68.3455522,24.8802846 67.3703078,26.385803 C67.2137303,26.6825798 66.9623176,26.9384776 66.6301793,27.1084159 C65.7709179,27.5480706 64.6969081,27.2464404 64.2314406,26.434826 L65.7873747,25.638758 L64.2321374,26.4287379 C63.7277464,25.549182 62.8965258,24.8463087 61.877549,24.3249734 C60.4258548,23.5822908 58.6146717,23.2108242 56.7842468,23.2108242 C54.9539105,23.2108242 53.142641,23.5822887 51.6909446,24.3249734 C50.7022759,24.8308438 49.8903898,25.5075592 49.3822541,26.3507574 C49.2376071,26.6415295 49.0029151,26.8961111 48.6890629,27.0733702 C47.8502664,27.5469967 46.7637171,27.2886314 46.2622769,26.4963492 L46.2670665,26.4936348 C46.2235245,26.4244581 34.4834412,7.48967999 17.0884772,18.7457486 L7.70706334,53.5726789 C11.4745064,50.5274196 16.3668096,48.6878662 21.7140426,48.6878662 C25.9932844,48.6878662 29.9852173,49.869794 33.3443141,51.9074137 C38.388666,54.9674025 41.109618,60.2324861 41.0708648,60.1862502 C43.1562711,63.596633 43.9269664,65.4906541 47.7606792,67.809427 C50.3603947,69.3817377 53.4566909,70.2935459 56.7842675,70.2935459 C60.1118441,70.2935459 63.2081182,69.3817461 65.8078558,67.809427 C72.8857109,63.5283552 71.934842,56.9358439 80.224221,51.9074973 L80.2242689,51.9075145 Z M31.4366077,54.7149712 C28.6360701,53.0161521 25.2994245,52.0307405 21.7141789,52.0307405 C16.7389722,52.0307405 12.2347097,53.9355277 8.97461937,57.0149196 C5.71444057,60.0943179 3.69783672,64.3488139 3.69783672,69.0481398 C3.69783672,73.7474657 5.7144472,78.0019618 8.97461937,81.0812764 C12.2347097,84.1606746 16.7389722,86.0654555 21.7141789,86.0654555 C26.6893856,86.0654555 31.1936481,84.1606684 34.453827,81.0812764 C37.7140058,78.0019618 39.7306096,73.7474657 39.7306096,69.0481398 C39.7306096,67.8659656 39.6103462,66.7337962 39.3814017,65.6611152 C38.4435921,61.2677025 35.4249926,57.1343641 31.4366209,54.7149921 L31.4366077,54.7149712 Z" id="Shape" fill="#0A93E2" fill-rule="nonzero"></path>
                            <path d="M50.5038206,32.0264357 L62.019403,32.0264357 C62.9966625,32.0264357 63.7889552,32.7747949 63.7889552,33.6978643 L63.7889552,61.9782268 C63.7889552,62.9012962 62.9966625,63.6496554 62.019403,63.6496554 L50.5038206,63.6496554 C49.526561,63.6496554 48.7342684,62.9012962 48.7342684,61.9782268 L48.7342684,33.6978643 C48.7342684,32.7747949 49.526561,32.0264357 50.5038206,32.0264357 Z M60.2498507,35.3692929 L52.2733728,35.3692929 L52.2733728,60.3067982 L60.2498507,60.3067982 L60.2498507,35.3692929 Z" id="Shape" fill="#0A93E2" fill-rule="nonzero"></path>
                            <path d="M16.5755319,16.4445429 C16.7549256,17.3495984 17.6772353,17.9458681 18.6354235,17.7764207 C19.5936117,17.6069746 20.2248862,16.7358081 20.0454912,15.8307525 C19.9786105,15.4973714 19.9294079,15.1759181 19.8990154,14.8682833 C19.8712354,14.5874645 19.8569538,14.259758 19.8569538,13.8843447 C19.8569538,11.0241543 21.0843196,8.43475629 23.0684478,6.560667 C25.0525759,4.686561 27.7939928,3.52725396 30.8220727,3.52725396 C33.8500863,3.52725396 36.5914987,4.686561 38.5756092,6.560667 C40.5597373,8.434773 41.7871032,11.0242588 41.7871032,13.8843447 C41.7871032,14.7129846 41.6862595,15.5139061 41.4958061,16.2766604 C41.2963831,17.0753588 41.0057839,17.8285714 40.6360227,18.5248572 C40.2008633,19.3469995 40.553641,20.3468125 41.4240485,20.757844 C42.2944559,21.1688733 43.3529644,20.8356575 43.7881261,20.013515 C44.291212,19.0661807 44.6800424,18.0675188 44.938074,17.0340682 C45.1918367,16.0178042 45.3262076,14.9629614 45.3262076,13.8843447 C45.3262076,10.1014213 43.7026081,6.67630896 41.0778887,4.19714164 C38.4531783,1.71797432 34.8270782,0.184396821 30.8220727,0.184396821 C26.8169788,0.184396821 23.1908787,1.71796596 20.5661682,4.19714164 C17.9414577,6.67630896 16.3178493,10.1013377 16.3178493,13.8843447 C16.3178493,14.2738231 16.3414492,14.7029498 16.3876037,15.1686787 C16.4320166,15.6176286 16.4949786,16.0431347 16.5755315,16.4445408 L16.5755319,16.4445429 Z" id="Shape" fill="#0A93E2" fill-rule="nonzero"></path>
                            <path d="M93.5234051,15.8307107 C93.3440114,16.7357663 93.9752846,17.6069316 94.9334728,17.7763789 C95.891661,17.945825 96.8139693,17.3495567 96.9933643,16.4445011 C97.0739172,16.043095 97.1368792,15.6175889 97.1812921,15.1686391 C97.2274466,14.7029101 97.2510465,14.2737834 97.2510465,13.884305 C97.2510465,10.101298 95.6274469,6.67626927 93.0027276,4.19710195 C90.3780171,1.71793462 86.751917,0.184357125 82.7468231,0.184357125 C78.7418176,0.184357125 75.1157175,1.71792627 72.4910071,4.19710195 C69.8662966,6.67626927 68.2426882,10.1013816 68.2426882,13.884305 C68.2426882,14.9629196 68.3770591,16.0177582 68.6308218,17.0340286 C68.8888534,18.0674854 69.2776838,19.0661472 69.7807697,20.0134753 C70.2159291,20.8356176 71.2744399,21.1688336 72.1448473,20.7578043 C73.0152546,20.3467749 73.3680325,19.3469598 72.9328731,18.5248175 C72.5631141,17.8285254 72.2725138,17.0753128 72.0730897,16.2766207 C71.8826363,15.5138664 71.7817926,14.712947 71.7817926,13.884305 C71.7817926,11.0241982 73.0091585,8.43471659 74.9932866,6.5606273 C76.9774148,4.6865213 79.7188317,3.52721427 82.7468231,3.52721427 C85.7749251,3.52721427 88.5163376,4.6865213 90.500448,6.5606273 C92.4845762,8.4347333 93.711942,11.0241355 93.711942,13.884305 C93.711942,14.2597183 93.6976602,14.5874227 93.6698804,14.8682436 C93.6394879,15.1758784 93.5902853,15.4973317 93.5234046,15.8307128 L93.5234051,15.8307107 Z" id="Shape" fill="#0A93E2" fill-rule="nonzero"></path>
                            <path d="M9.92223672,70.1379321 C9.92223672,71.0610016 10.7145294,71.8093607 11.691789,71.8093607 C12.6690485,71.8093607 13.4613412,71.0610016 13.4613412,70.1379321 C13.4613412,67.90248 14.4205734,65.8785889 15.9713626,64.4138743 C17.5220721,62.9491534 19.664772,62.04312 22.0314596,62.04312 C23.0087192,62.04312 23.8010119,61.2947608 23.8010119,60.3716914 C23.8010119,59.448622 23.0087192,58.7002629 22.0314596,58.7002629 C18.6877801,58.7002629 15.6603859,59.9805667 13.469083,62.0503489 C11.2776076,64.1201395 9.92223672,66.9796634 9.92223672,70.1379321 Z" id="Shape" fill="#0A93E2" fill-rule="nonzero"></path>
                            <path d="M79.8620194,70.1379321 C79.8620194,71.0610016 80.6543121,71.8093607 81.6315716,71.8093607 C82.6088312,71.8093607 83.4011239,71.0610016 83.4011239,70.1379321 C83.4011239,67.90248 84.3603561,65.8785889 85.9110568,64.4138743 C87.4618525,62.9491534 89.6044662,62.04312 91.9711539,62.04312 C92.9484134,62.04312 93.7407061,61.2947608 93.7407061,60.3716914 C93.7407061,59.448622 92.9484134,58.7002629 91.9711539,58.7002629 C88.6274743,58.7002629 85.6002349,59.9805667 83.4087772,62.0503489 C81.2174765,64.1201395 79.8620194,66.9796634 79.8620194,70.1379321 Z" id="Shape" fill="#0A93E2" fill-rule="nonzero"></path>
                            <path d="M72.1213343,16.4623018 C77.2527704,12.6391596 84.6739186,9.69836464 93.7022847,13.4427825 C93.5830664,10.7582175 92.3819996,8.33784268 90.5005453,6.56071714 C88.5164172,4.68661114 85.7750003,3.52730411 82.7469204,3.52730411 C79.7189069,3.52730411 76.9774944,4.68661114 74.993384,6.56071714 C73.0092558,8.43482314 71.78189,11.0243089 71.78189,13.8843948 C71.78189,14.7130348 71.8827337,15.5139562 72.073187,16.2767105 C72.088688,16.3388133 72.1047985,16.4006693 72.1213447,16.4622786 L72.1213343,16.4623018 Z" id="Shape" fill="#C2E4F8"></path>
                            <path d="M41.7870063,13.8843321 C41.7870063,11.0242254 40.5596404,8.43474375 38.5755123,6.56065446 C36.5913841,4.68654846 33.8499673,3.52724143 30.8219758,3.52724143 C27.7938738,3.52724143 25.0524613,4.68654846 23.0683509,6.56065446 C21.1864608,8.33819159 19.9853927,10.7591368 19.8666116,13.4443495 C28.8947344,9.69999429 36.3158604,12.6403025 41.4473186,16.4629495 C41.4640388,16.4010934 41.4801493,16.3389907 41.4957375,16.2766412 C41.6861909,15.5138868 41.7870346,14.7129675 41.7870346,13.8843255 L41.7870063,13.8843321 Z" id="Shape" fill="#C2E4F8"></path>
                            <path d="M39.3815212,65.6612196 C38.4437116,61.267807 35.4251121,57.1344686 31.4367404,54.7150966 C28.6362028,53.0162775 25.2995572,52.0308659 21.7143116,52.0308659 C16.7391049,52.0308659 12.2348424,53.9356531 8.97475209,57.015045 C5.71457328,60.0944432 3.69796943,64.3489393 3.69796943,69.0482652 C3.69796943,73.7475911 5.71457992,78.0020871 8.97475209,81.0814018 C12.2348424,84.1608 16.7391049,86.0655809 21.7143116,86.0655809 C26.6895184,86.0655809 31.1937809,84.1607937 34.4539597,81.0814018 C37.7141385,78.0020871 39.7307423,73.7475911 39.7307423,69.0482652 C39.7307423,67.8660909 39.6104789,66.7339216 39.3815345,65.6612405 L39.3815212,65.6612196 Z M13.4613412,70.1379739 C13.4613412,71.0610433 12.6690485,71.8094025 11.691789,71.8094025 C10.7145294,71.8094025 9.92223672,71.0610433 9.92223672,70.1379739 C9.92223672,66.9797052 11.2776164,64.1201834 13.469083,62.0503907 C15.6603837,59.9806001 18.6877801,58.7003046 22.0314596,58.7003046 C23.0087192,58.7003046 23.8010119,59.4486638 23.8010119,60.3717332 C23.8010119,61.2948026 23.0087192,62.0431618 22.0314596,62.0431618 C19.664772,62.0431618 17.5220654,62.9492035 15.9713626,64.4139161 C14.4205668,65.878637 13.4613412,67.9025218 13.4613412,70.1379739 Z" id="Shape" fill="#C2E4F8"></path>
                            <path d="M73.8382424,69.0481607 C73.8382424,73.7474866 75.8548529,78.0019827 79.115025,81.0812973 C82.3752039,84.1606955 86.8794664,86.0654764 91.8546731,86.0654764 C96.8298798,86.0654764 101.334142,84.1606893 104.594233,81.0812973 C107.854411,78.0019827 109.871015,73.7474866 109.871015,69.0481607 C109.871015,64.3488348 107.854405,60.0943387 104.594233,57.0149405 C101.334142,53.9355423 96.8298798,52.0307614 91.8546731,52.0307614 C88.2694054,52.0307614 84.9326935,53.0161814 82.1322443,54.7150757 C80.0580703,55.9733355 78.275284,57.620332 76.9001429,59.5460057 C75.4619459,62.0165443 74.8057672,62.7656368 74.1874635,65.6606973 C73.9585189,66.7335539 73.8382557,67.8657921 73.8382557,69.0481398 L73.8382424,69.0481607 Z M83.4012345,70.1378799 C83.4012345,71.0609493 82.6089418,71.8093085 81.6316822,71.8093085 C80.6544227,71.8093085 79.86213,71.0609493 79.86213,70.1378799 C79.86213,66.9796112 81.217596,64.1200894 83.4088878,62.0502967 C85.6003632,59.9805061 88.6275849,58.7002106 91.9712644,58.7002106 C92.948524,58.7002106 93.7408167,59.4485698 93.7408167,60.3716392 C93.7408167,61.2947086 92.948524,62.0430678 91.9712644,62.0430678 C89.6045768,62.0430678 87.4619587,62.9491095 85.9111674,64.4138221 C84.3604579,65.878543 83.4012345,67.9024278 83.4012345,70.1378799 Z" id="Shape" fill="#C2E4F8"></path>
                            <polygon id="Shape" fill="#C2E4F8" points="60.2498507 60.3067982 60.2498507 35.3692929 52.2733728 35.3692929 52.2733728 60.3067982"></polygon>
                        </g>
                    </g>
                </g>
            </g>
        </g>
    </g>
</svg>