<?xml version="1.0" encoding="UTF-8"?>
<svg width="108px" height="90px" viewBox="0 0 108 90" version="1.1" xmlns="http://www.w3.org/2000/svg" xmlns:xlink="http://www.w3.org/1999/xlink">
    <!-- Generator: sketchtool 51.2 (57519) - http://www.bohemiancoding.com/sketch -->
    <title>8547A079-59E0-4015-A489-B23CF015F64B</title>
    <desc>Created with sketchtool.</desc>
    <defs></defs>
    <g id="FRONTEND" stroke="none" stroke-width="1" fill="none" fill-rule="evenodd">
        <g id="HOME" transform="translate(-663.000000, -1254.000000)">
            <g id="calendario" transform="translate(663.000000, 1254.000000)">
                <g id="Calendar,-Event,-Month,-Plan,-Planning,-Schedule,-Timetable">
                    <g id="Layer_1">
                        <path d="M56.0077668,13.2219718 L56.0077668,1.93021486 C56.0077668,0.868596686 55.1562974,0 54.1156125,0 C53.0749277,0 52.2234582,0.868596686 52.2234582,1.93021486 L52.2234582,13.2219718 C50.7097348,13.9940577 49.5744422,15.5382296 49.5744422,17.3719337 C49.5744422,19.881213 51.5612042,22.0044494 54.1156125,22.0044494 C56.6700208,22.0044494 58.6567828,19.881213 58.6567828,17.3719337 C58.6567828,15.5382296 57.6160979,13.897547 56.0077668,13.2219718 Z" id="Shape" fill="#0A93E2" fill-rule="nonzero"></path>
                        <rect id="Rectangle" fill="#FFFFFF" x="3.6" y="30.6" width="99.9" height="54.9"></rect>
                        <path d="M84.3900811,13.2219718 L84.3900811,1.93021486 C84.3900811,0.868596686 83.5386116,0 82.4979268,0 C81.4572419,0 80.6057725,0.868596686 80.6057725,1.93021486 L80.6057725,13.2219718 C79.0920491,13.9940577 77.9567565,15.5382296 77.9567565,17.3719337 C77.9567565,19.881213 79.9435185,22.0044494 82.4979268,22.0044494 C85.0523351,22.0044494 87.0390971,19.881213 87.0390971,17.3719337 C87.0390971,15.5382296 85.9984122,13.897547 84.3900811,13.2219718 Z" id="Shape" fill="#0A93E2" fill-rule="nonzero"></path>
                        <rect id="Rectangle-path" fill="#0A93E2" fill-rule="nonzero" x="29.5176068" y="6.75575201" width="20.8136971" height="3.86042972"></rect>
                        <rect id="Rectangle-path" fill="#0A93E2" fill-rule="nonzero" x="57.8999211" y="6.75575201" width="20.8136971" height="3.86042972"></rect>
                        <path d="M27.6254525,13.2219718 L27.6254525,1.93021486 C27.6254525,0.868596686 26.7739831,0 25.7332983,0 C24.6926134,0 23.841144,0.868596686 23.841144,1.93021486 L23.841144,13.2219718 C22.3274206,13.9940577 21.192128,15.5382296 21.192128,17.3719337 C21.192128,19.881213 23.17889,22.0044494 25.7332983,22.0044494 C28.2877065,22.0044494 30.2744685,19.881213 30.2744685,17.3719337 C30.2744685,15.5382296 29.2337837,13.897547 27.6254525,13.2219718 Z" id="Shape" fill="#0A93E2" fill-rule="nonzero"></path>
                        <path d="M98.3920228,6.75575201 L86.0930199,6.75575201 L86.0930199,10.6161817 L98.3920228,10.6161817 C101.514077,10.6161817 104.068486,13.2219718 104.068486,16.4068263 L104.068486,27.023008 L3.78430857,27.023008 L3.78430857,16.4068263 C3.78430857,13.2219718 6.33871685,10.6161817 9.46077142,10.6161817 L21.7597743,10.6161817 L21.7597743,6.75575201 L9.46077142,6.75575201 C4.25734714,6.75575201 0,11.0987354 0,16.4068263 L0,80.1039166 C0,85.4120075 4.25734714,89.7549909 9.46077142,89.7549909 L98.3920228,89.7549909 C103.595447,89.7549909 107.852794,85.4120075 107.852794,80.1039166 L107.852794,16.4068263 C107.852794,11.0987354 103.595447,6.75575201 98.3920228,6.75575201 Z M98.3920228,85.8945612 L9.46077142,85.8945612 C6.33871685,85.8945612 3.78430857,83.2887711 3.78430857,80.1039166 L3.78430857,30.8834377 L104.068486,30.8834377 L104.068486,80.1039166 C104.068486,83.2887711 101.514077,85.8945612 98.3920228,85.8945612 Z" id="Shape" fill="#0A93E2" fill-rule="nonzero"></path>
                        <ellipse id="Oval" fill="#C2E4F8" fill-rule="nonzero" cx="41.6273942" cy="42.4647269" rx="3.12205457" ry="3.18485452"></ellipse>
                        <ellipse id="Oval" fill="#C2E4F8" fill-rule="nonzero" cx="30.0852531" cy="42.4647269" rx="3.12205457" ry="3.18485452"></ellipse>
                        <ellipse id="Oval" fill="#C2E4F8" fill-rule="nonzero" cx="87.7959588" cy="42.4647269" rx="3.12205457" ry="3.18485452"></ellipse>
                        <ellipse id="Oval" fill="#C2E4F8" fill-rule="nonzero" cx="18.543112" cy="53.1774194" rx="3.12205457" ry="3.18485452"></ellipse>
                        <ellipse id="Oval" fill="#C2E4F8" fill-rule="nonzero" cx="30.0852531" cy="53.1774194" rx="3.12205457" ry="3.18485452"></ellipse>
                        <ellipse id="Oval" fill="#C2E4F8" fill-rule="nonzero" cx="41.6273942" cy="53.1774194" rx="3.12205457" ry="3.18485452"></ellipse>
                        <ellipse id="Oval" fill="#C2E4F8" fill-rule="nonzero" cx="53.1695354" cy="53.1774194" rx="3.12205457" ry="3.18485452"></ellipse>
                        <ellipse id="Oval" fill="#C2E4F8" fill-rule="nonzero" cx="64.7116765" cy="53.1774194" rx="3.12205457" ry="3.18485452"></ellipse>
                        <ellipse id="Oval" fill="#C2E4F8" fill-rule="nonzero" cx="76.1592099" cy="53.1774194" rx="3.12205457" ry="3.18485452"></ellipse>
                        <ellipse id="Oval" fill="#C2E4F8" fill-rule="nonzero" cx="30.0852531" cy="63.9866226" rx="3.12205457" ry="3.18485452"></ellipse>
                        <ellipse id="Oval" fill="#C2E4F8" fill-rule="nonzero" cx="41.6273942" cy="63.9866226" rx="3.12205457" ry="3.18485452"></ellipse>
                        <ellipse id="Oval" fill="#C2E4F8" fill-rule="nonzero" cx="53.1695354" cy="63.9866226" rx="3.12205457" ry="3.18485452"></ellipse>
                        <ellipse id="Oval" fill="#C2E4F8" fill-rule="nonzero" cx="64.7116765" cy="63.9866226" rx="3.12205457" ry="3.18485452"></ellipse>
                        <ellipse id="Oval" fill="#C2E4F8" fill-rule="nonzero" cx="76.1592099" cy="63.9866226" rx="3.12205457" ry="3.18485452"></ellipse>
                        <ellipse id="Oval" fill="#C2E4F8" fill-rule="nonzero" cx="53.1695354" cy="42.7542591" rx="3.12205457" ry="3.18485452"></ellipse>
                        <ellipse id="Oval" fill="#C2E4F8" fill-rule="nonzero" cx="64.7116765" cy="42.7542591" rx="3.12205457" ry="3.18485452"></ellipse>
                        <ellipse id="Oval" fill="#C2E4F8" fill-rule="nonzero" cx="76.1592099" cy="42.7542591" rx="3.12205457" ry="3.18485452"></ellipse>
                        <ellipse id="Oval" fill="#C2E4F8" fill-rule="nonzero" cx="87.7013511" cy="53.1774194" rx="3.12205457" ry="3.18485452"></ellipse>
                        <ellipse id="Oval" fill="#C2E4F8" fill-rule="nonzero" cx="87.7959588" cy="63.9866226" rx="3.12205457" ry="3.18485452"></ellipse>
                        <ellipse id="Oval" fill="#C2E4F8" fill-rule="nonzero" cx="18.543112" cy="63.6005796" rx="3.12205457" ry="3.18485452"></ellipse>
                        <ellipse id="Oval" fill="#C2E4F8" fill-rule="nonzero" cx="18.543112" cy="74.1202506" rx="3.12205457" ry="3.18485452"></ellipse>
                        <ellipse id="Oval" fill="#C2E4F8" fill-rule="nonzero" cx="30.0852531" cy="74.1202506" rx="3.12205457" ry="3.18485452"></ellipse>
                        <ellipse id="Oval" fill="#C2E4F8" fill-rule="nonzero" cx="41.6273942" cy="74.1202506" rx="3.12205457" ry="3.18485452"></ellipse>
                        <ellipse id="Oval" fill="#C2E4F8" fill-rule="nonzero" cx="53.1695354" cy="74.1202506" rx="3.12205457" ry="3.18485452"></ellipse>
                    </g>
                </g>
            </g>
        </g>
    </g>
</svg>