<?xml version="1.0" encoding="UTF-8"?>
<svg width="27px" height="23px" viewBox="0 0 27 23" version="1.1" xmlns="http://www.w3.org/2000/svg" xmlns:xlink="http://www.w3.org/1999/xlink">
    <!-- Generator: sketchtool 51.2 (57519) - http://www.bohemiancoding.com/sketch -->
    <title>674F1942-485C-48EE-8F30-65CFA96FAEE2-483-0000039E909966C8</title>
    <desc>Created with sketchtool.</desc>
    <defs></defs>
    <g id="FRONTEND" stroke="none" stroke-width="1" fill="none" fill-rule="evenodd">
        <g id="Carro-de-compras" transform="translate(-1010.000000, -24.000000)" fill="#1EB2E8" fill-rule="nonzero">
            <g id="Header-registrado">
                <g id="noun_cart_1864278" transform="translate(1010.000000, 24.000000)">
                    <g id="Group">
                        <path d="M26.26875,4.77888889 C25.7625,4.19111111 24.975,3.83333333 24.159375,3.83333333 L7.03125,3.83333333 L6.496875,1.94222222 C6.1875,0.843333333 5.11875,0.0766666667 3.88125,0.0766666667 L1.0125,0.0766666667 C0.534375,0.0766666667 0.140625,0.434444444 0.140625,0.868888889 C0.140625,1.30333333 0.534375,1.66111111 1.0125,1.66111111 L3.88125,1.66111111 C4.303125,1.66111111 4.66875,1.91666667 4.78125,2.3 L8.2125,14.72 C8.521875,15.8188889 9.590625,16.5855556 10.828125,16.5855556 L22.05,16.5855556 C23.2875,16.5855556 24.384375,15.8188889 24.665625,14.72 L26.775,6.84888889 C26.971875,6.13333333 26.803125,5.36666667 26.26875,4.77888889 Z M25.059375,6.49111111 L22.95,14.3622222 C22.8375,14.7455556 22.471875,15.0011111 22.05,15.0011111 L10.828125,15.0011111 C10.40625,15.0011111 10.040625,14.7455556 9.928125,14.3622222 L7.48125,5.44333333 L24.159375,5.44333333 C24.440625,5.44333333 24.721875,5.57111111 24.890625,5.77555556 C25.059375,5.98 25.14375,6.23555556 25.059375,6.49111111 Z" id="Shape"></path>
                        <path d="M11.41875,17.6077778 C9.815625,17.6077778 8.49375,18.8088889 8.49375,20.2655556 C8.49375,21.7222222 9.815625,22.9233333 11.41875,22.9233333 C13.021875,22.9233333 14.34375,21.7222222 14.34375,20.2655556 C14.34375,18.8088889 13.021875,17.6077778 11.41875,17.6077778 Z M11.41875,21.3133333 C10.771875,21.3133333 10.265625,20.8533333 10.265625,20.2655556 C10.265625,19.6777778 10.771875,19.2177778 11.41875,19.2177778 C12.065625,19.2177778 12.571875,19.6777778 12.571875,20.2655556 C12.571875,20.8277778 12.0375,21.3133333 11.41875,21.3133333 Z" id="Shape"></path>
                        <path d="M21.09375,17.6077778 C19.490625,17.6077778 18.16875,18.8088889 18.16875,20.2655556 C18.16875,21.7222222 19.490625,22.9233333 21.09375,22.9233333 C22.696875,22.9233333 24.01875,21.7222222 24.01875,20.2655556 C23.990625,18.8088889 22.696875,17.6077778 21.09375,17.6077778 Z M21.09375,21.3133333 C20.446875,21.3133333 19.940625,20.8533333 19.940625,20.2655556 C19.940625,19.6777778 20.446875,19.2177778 21.09375,19.2177778 C21.740625,19.2177778 22.246875,19.6777778 22.246875,20.2655556 C22.246875,20.8277778 21.7125,21.3133333 21.09375,21.3133333 Z" id="Shape"></path>
                    </g>
                </g>
            </g>
        </g>
    </g>
</svg>