<?xml version="1.0" encoding="UTF-8"?>
<svg width="24px" height="25px" viewBox="0 0 24 25" version="1.1" xmlns="http://www.w3.org/2000/svg" xmlns:xlink="http://www.w3.org/1999/xlink">
    <!-- Generator: sketchtool 51.2 (57519) - http://www.bohemiancoding.com/sketch -->
    <title>C22E9FA7-2B75-4A03-85A5-F3E946B528A6</title>
    <desc>Created with sketchtool.</desc>
    <defs></defs>
    <g id="FRONTEND" stroke="none" stroke-width="1" fill="none" fill-rule="evenodd">
        <g id="Mi-cuenta---Niños" transform="translate(-1205.000000, -498.000000)" fill="#A3A3A3" fill-rule="nonzero">
            <g id="Close-Copy-2" transform="translate(1217.500000, 510.500000) rotate(-360.000000) translate(-1217.500000, -510.500000) translate(1205.000000, 498.000000)">
                <g id="Layer_1">
                    <g id="Icon-Close-O">
                        <path d="M12.05,24.9479167 C5.45,24.9479167 0.1,19.375 0.1,12.5 C0.1,5.625 5.45,0.0520833333 12.05,0.0520833333 C18.65,0.0520833333 24,5.625 24,12.5 C24,19.3229167 18.65,24.9479167 12.05,24.9479167 Z M12.05,1.35416667 C6.2,1.35416667 1.4,6.35416667 1.4,12.4479167 C1.4,18.5416667 6.2,23.5416667 12.05,23.5416667 C17.9,23.5416667 22.7,18.5416667 22.7,12.4479167 C22.7,6.35416667 17.9,1.35416667 12.05,1.35416667 Z" id="Fill-52"></path>
                        <polyline id="Fill-53" points="6.85 18.8541667 5.9 17.8645833 17.2 6.09375 18.15 7.08333333 6.85 18.8541667"></polyline>
                        <polyline id="Fill-54" points="17.2 18.8541667 5.9 7.08333333 6.85 6.09375 18.15 17.8645833 17.2 18.8541667"></polyline>
                    </g>
                </g>
            </g>
        </g>
    </g>
</svg>