<?xml version="1.0" encoding="UTF-8"?>
<svg width="22px" height="22px" viewBox="0 0 22 22" version="1.1" xmlns="http://www.w3.org/2000/svg" xmlns:xlink="http://www.w3.org/1999/xlink">
    <!-- Generator: sketchtool 51.2 (57519) - http://www.bohemiancoding.com/sketch -->
    <title>4AFB9371-D06A-45F8-9233-3034DF48481F-1077-00000AE48D2185C6</title>
    <desc>Created with sketchtool.</desc>
    <defs></defs>
    <g id="FRONTEND" stroke="none" stroke-width="1" fill="none" fill-rule="evenodd">
        <g id="Activid.-PARA-VER-+" transform="translate(-1060.000000, -24.000000)" fill-rule="nonzero" stroke="#4A4A4A">
            <g id="Header-registrado">
                <g id="coin-01" transform="translate(1061.000000, 25.000000)">
                    <circle id="Oval" stroke-width="1.1088" stroke-linecap="round" cx="10" cy="10" r="10"></circle>
                    <path d="M2.83923289,10.0562822 L2.85855969,10.0619553 C6.22298802,11.1330778 8.85890166,13.7725453 9.9341517,17.160556 C9.94098142,17.1860115 9.9638084,17.2035388 9.98970379,17.2035388 C10.0155992,17.2035388 10.0384262,17.1860115 10.051,17.1409609 C11.1248923,13.7672554 13.76977,11.1268293 17.1607671,10.0562822 C17.1859009,10.0495206 17.2035388,10.0264876 17.2035388,10 C17.2035388,9.97351244 17.1859009,9.95047936 17.1414403,9.93804474 C13.777012,8.86692223 11.1410983,6.22745474 10.0658483,2.83944396 C10.0590186,2.81398847 10.0361916,2.79646118 10.0102962,2.79646118 C9.98440082,2.79646118 9.96157384,2.81398847 9.94900004,2.85903909 C8.87510769,6.23274458 6.23022999,8.87317073 2.83923289,9.94371776 C2.81409913,9.95047936 2.79646118,9.97351244 2.79646118,10 C2.79646118,10.0264876 2.81409913,10.0495206 2.83923289,10.0562822 Z" id="Shape" stroke-width="0.88704"></path>
                </g>
            </g>
        </g>
    </g>
</svg>