<?xml version="1.0" encoding="UTF-8"?>
<svg width="20px" height="23px" viewBox="0 0 20 23" version="1.1" xmlns="http://www.w3.org/2000/svg" xmlns:xlink="http://www.w3.org/1999/xlink">
    <!-- Generator: sketchtool 51.2 (57519) - http://www.bohemiancoding.com/sketch -->
    <title>06C9738B-1F0F-4FC3-8966-5BBC8FF3677A</title>
    <desc>Created with sketchtool.</desc>
    <defs></defs>
    <g id="FRONTEND" stroke="none" stroke-width="1" fill="none" fill-rule="evenodd">
        <g id="Actividad" transform="translate(-1220.000000, -177.000000)" fill="#FFFFFF" fill-rule="nonzero">
            <g id="outline-share-24px" transform="translate(1220.000000, 177.000000)">
                <g id="Outline">
                    <path d="M16.6666667,16.192 C15.8222222,16.192 15.0666667,16.537 14.4888889,17.0775 L6.56666667,12.305 C6.62222222,12.0405 6.66666667,11.776 6.66666667,11.5 C6.66666667,11.224 6.62222222,10.9595 6.56666667,10.695 L14.4,5.9685 C15,6.5435 15.7888889,6.9 16.6666667,6.9 C18.5111111,6.9 20,5.359 20,3.45 C20,1.541 18.5111111,0 16.6666667,0 C14.8222222,0 13.3333333,1.541 13.3333333,3.45 C13.3333333,3.726 13.3777778,3.9905 13.4333333,4.255 L5.6,8.9815 C5,8.4065 4.21111111,8.05 3.33333333,8.05 C1.48888889,8.05 0,9.591 0,11.5 C0,13.409 1.48888889,14.95 3.33333333,14.95 C4.21111111,14.95 5,14.5935 5.6,14.0185 L13.5111111,18.8025 C13.4555556,19.044 13.4222222,19.297 13.4222222,19.55 C13.4222222,21.4015 14.8777778,22.908 16.6666667,22.908 C18.4555556,22.908 19.9111111,21.4015 19.9111111,19.55 C19.9111111,17.6985 18.4555556,16.192 16.6666667,16.192 Z M16.6666667,2.3 C17.2777778,2.3 17.7777778,2.8175 17.7777778,3.45 C17.7777778,4.0825 17.2777778,4.6 16.6666667,4.6 C16.0555556,4.6 15.5555556,4.0825 15.5555556,3.45 C15.5555556,2.8175 16.0555556,2.3 16.6666667,2.3 Z M3.33333333,12.65 C2.72222222,12.65 2.22222222,12.1325 2.22222222,11.5 C2.22222222,10.8675 2.72222222,10.35 3.33333333,10.35 C3.94444444,10.35 4.44444444,10.8675 4.44444444,11.5 C4.44444444,12.1325 3.94444444,12.65 3.33333333,12.65 Z M16.6666667,20.723 C16.0555556,20.723 15.5555556,20.2055 15.5555556,19.573 C15.5555556,18.9405 16.0555556,18.423 16.6666667,18.423 C17.2777778,18.423 17.7777778,18.9405 17.7777778,19.573 C17.7777778,20.2055 17.2777778,20.723 16.6666667,20.723 Z" id="Shape"></path>
                </g>
            </g>
        </g>
    </g>
</svg>