<?xml version="1.0" encoding="UTF-8"?>
<svg width="24px" height="15px" viewBox="0 0 24 15" version="1.1" xmlns="http://www.w3.org/2000/svg" xmlns:xlink="http://www.w3.org/1999/xlink">
    <!-- Generator: sketchtool 51.2 (57519) - http://www.bohemiancoding.com/sketch -->
    <title>BCFC9474-188B-427E-8EEB-51E1FF02B89B</title>
    <desc>Created with sketchtool.</desc>
    <defs></defs>
    <g id="PANEL" stroke="none" stroke-width="1" fill="none" fill-rule="evenodd">
        <g id="Panel-Prov.---P.-Control" transform="translate(-456.000000, -280.000000)">
            <g id="baseline-local_offer-24px-copy" transform="translate(455.000000, 272.000000)">
                <path d="M25.2236667,15.066 L15.9236667,5.766 C15.5516667,5.394 15.035,5.16666667 14.4666667,5.16666667 L7.23333333,5.16666667 C6.09666667,5.16666667 5.16666667,6.09666667 5.16666667,7.23333333 L5.16666667,14.4666667 C5.16666667,15.035 5.394,15.5516667 5.77633333,15.934 L15.0763333,25.234 C15.4483333,25.606 15.965,25.8333333 16.5333333,25.8333333 C17.1016667,25.8333333 17.6183333,25.606 17.9903333,25.2236667 L25.2236667,17.9903333 C25.606,17.6183333 25.8333333,17.1016667 25.8333333,16.5333333 C25.8333333,15.965 25.5956667,15.438 25.2236667,15.066 Z M8.78333333,10.3333333 C7.92566667,10.3333333 7.23333333,9.641 7.23333333,8.78333333 C7.23333333,7.92566667 7.92566667,7.23333333 8.78333333,7.23333333 C9.641,7.23333333 10.3333333,7.92566667 10.3333333,8.78333333 C10.3333333,9.641 9.641,10.3333333 8.78333333,10.3333333 Z" id="Shape" fill="#777777" fill-rule="nonzero" transform="translate(15.500000, 15.500000) rotate(-45.000000) translate(-15.500000, -15.500000) "></path>
                <path d="M14.7679873,13.2941576 C14.7679873,13.6251838 14.7065612,13.9338388 14.5837073,14.2201317 C14.4608533,14.5064246 14.2902253,14.7546905 14.0718182,14.9649369 C13.8534111,15.1751832 13.5986067,15.3406938 13.3073973,15.4614737 C13.0161878,15.5822535 12.7022323,15.6426425 12.3655214,15.6426425 C12.0288105,15.6426425 11.714855,15.5822535 11.4236456,15.4614737 C11.1324362,15.3406938 10.8776317,15.1751832 10.6592246,14.9649369 C10.4408176,14.7546905 10.2701896,14.5064246 10.1473356,14.2201317 C10.0244816,13.9338388 9.96305556,13.6251838 9.96305556,13.2941576 C9.96305556,12.9631315 10.0244816,12.6544765 10.1473356,12.3681836 C10.2701896,12.0818907 10.4408176,11.8336248 10.6592246,11.6233784 C10.8776317,11.4131321 11.1324362,11.2476215 11.4236456,11.1268416 C11.714855,11.0060618 12.0288105,10.9456728 12.3655214,10.9456728 C12.7022323,10.9456728 13.0161878,11.0060618 13.3073973,11.1268416 C13.5986067,11.2476215 13.8534111,11.4131321 14.0718182,11.6233784 C14.2902253,11.8336248 14.4608533,12.0818907 14.5837073,12.3681836 C14.7065612,12.6544765 14.7679873,12.9631315 14.7679873,13.2941576 Z M13.9489648,13.2941576 C13.9489648,13.0704913 13.9057391,12.8647214 13.8192863,12.6768416 C13.7328335,12.4889619 13.6190815,12.3256879 13.4780269,12.1870148 C13.3369724,12.0483417 13.1708945,11.9409834 12.9797883,11.8649369 C12.7886821,11.7888903 12.5839285,11.7508676 12.3655214,11.7508676 C12.1471143,11.7508676 11.9423608,11.7888903 11.7512546,11.8649369 C11.5601484,11.9409834 11.3940705,12.0483417 11.2530159,12.1870148 C11.1119614,12.3256879 10.9982094,12.4889619 10.9117566,12.6768416 C10.8253038,12.8647214 10.782078,13.0704913 10.782078,13.2941576 C10.782078,13.517824 10.8253038,13.7235939 10.9117566,13.9114737 C10.9982094,14.0993534 11.1119614,14.2626274 11.2530159,14.4013005 C11.3940705,14.5399736 11.5601484,14.6473319 11.7512546,14.7233784 C11.9423608,14.799425 12.1471143,14.8374477 12.3655214,14.8374477 C12.5839285,14.8374477 12.7886821,14.799425 12.9797883,14.7233784 C13.1708945,14.6473319 13.3369724,14.5399736 13.4780269,14.4013005 C13.6190815,14.2626274 13.7328335,14.0993534 13.8192863,13.9114737 C13.9057391,13.7235939 13.9489648,13.517824 13.9489648,13.2941576 Z M20.2963889,18.4205646 C20.2963889,18.7515908 20.2349628,19.0602457 20.1121088,19.3465386 C19.9892549,19.6328315 19.8186269,19.8810974 19.6002198,20.0913438 C19.3818127,20.3015902 19.1270083,20.4671008 18.8357988,20.5878806 C18.5445894,20.7086604 18.2306339,20.7690494 17.893923,20.7690494 C17.5572121,20.7690494 17.2432566,20.7086604 16.9520472,20.5878806 C16.6608377,20.4671008 16.4060333,20.3015902 16.1876262,20.0913438 C15.9692191,19.8810974 15.7985912,19.6328315 15.6757372,19.3465386 C15.5528832,19.0602457 15.4914571,18.7515908 15.4914571,18.4205646 C15.4914571,18.0895384 15.5528832,17.7808835 15.6757372,17.4945905 C15.7985912,17.2082976 15.9692191,16.9600317 16.1876262,16.7497854 C16.4060333,16.539539 16.6608377,16.3740284 16.9520472,16.2532486 C17.2432566,16.1324687 17.5572121,16.0720797 17.893923,16.0720797 C18.2306339,16.0720797 18.5445894,16.1324687 18.8357988,16.2532486 C19.1270083,16.3740284 19.3818127,16.539539 19.6002198,16.7497854 C19.8186269,16.9600317 19.9892549,17.2082976 20.1121088,17.4945905 C20.2349628,17.7808835 20.2963889,18.0895384 20.2963889,18.4205646 Z M19.4773664,18.4205646 C19.4773664,18.1968982 19.4341407,17.9911283 19.3476879,17.8032486 C19.2612351,17.6153688 19.1474831,17.4520948 19.0064285,17.3134217 C18.8653739,17.1747486 18.6992961,17.0673904 18.5081899,16.9913438 C18.3170837,16.9152972 18.1123301,16.8772745 17.893923,16.8772745 C17.6755159,16.8772745 17.4707624,16.9152972 17.2796562,16.9913438 C17.08855,17.0673904 16.9224721,17.1747486 16.7814175,17.3134217 C16.6403629,17.4520948 16.526611,17.6153688 16.4401582,17.8032486 C16.3537054,17.9911283 16.3104796,18.1968982 16.3104796,18.4205646 C16.3104796,18.6442309 16.3537054,18.8500009 16.4401582,19.0378806 C16.526611,19.2257603 16.6403629,19.3890343 16.7814175,19.5277074 C16.9224721,19.6663806 17.08855,19.7737388 17.2796562,19.8497854 C17.4707624,19.9258319 17.6755159,19.9638546 17.893923,19.9638546 C18.1123301,19.9638546 18.3170837,19.9258319 18.5081899,19.8497854 C18.6992961,19.7737388 18.8653739,19.6663806 19.0064285,19.5277074 C19.1474831,19.3890343 19.2612351,19.2257603 19.3476879,19.0378806 C19.4341407,18.8500009 19.4773664,18.6442309 19.4773664,18.4205646 Z M12.4064726,21.0240278 L11.6966531,20.6616901 L17.8529719,10.6906944 L18.549141,11.0530321 L12.4064726,21.0240278 Z" id="%" fill="#FFFFFF"></path>
            </g>
        </g>
    </g>
</svg>