<?xml version="1.0" encoding="UTF-8"?>
<svg width="109px" height="90px" viewBox="0 0 109 90" version="1.1" xmlns="http://www.w3.org/2000/svg" xmlns:xlink="http://www.w3.org/1999/xlink">
    <!-- Generator: sketchtool 51.2 (57519) - http://www.bohemiancoding.com/sketch -->
    <title>AD897BBE-0982-48B1-8D37-CC2559B725B8</title>
    <desc>Created with sketchtool.</desc>
    <defs></defs>
    <g id="FRONTEND" stroke="none" stroke-width="1" fill="none" fill-rule="evenodd">
        <g id="HOME" transform="translate(-982.000000, -1254.000000)">
            <g id="globo" transform="translate(982.000000, 1254.000000)">
                <g id="Group-5">
                    <path d="M27.7,1.8 C7.9,5.4 -2.9,22.5 1.6,37.8 C6.1,53.1 25.9,66.6 25.9,77.4 C25.9,84.6 26.5,88.2 27.7,88.2 L36.7,88.2 L36.7,74.7 C46.9,58.5 52.9,49.5 54.7,47.7 C56.5,45.9 59.5,39.9 63.7,29.7 L73.6,27.9 L88.9,27.9 L99.7,27.9 L102.4,20.7 L99.7,15.3 L92.5,12.6 C91.3,9.6 88.9,8.1 85.3,8.1 C79.9,8.1 79,7.2 75.4,9.9 C71.8,12.6 69.1,15.3 69.1,17.1 C69.1,18.3 66.7,20.1 61.9,22.5 C52.3,6.3 40.9,-0.6 27.7,1.8 Z" id="Path-3" fill="#FFFFFF"></path>
                    <g id="if_balloon_1075457" transform="translate(1.000000, 0.000000)" fill-rule="nonzero">
                        <path d="M20.2820849,27.4340787 C20.3070207,26.4017512 19.4560526,25.5459429 18.3838117,25.5229461 C17.3366379,25.4979277 16.422674,26.3172191 16.3977382,27.3505574 C16.2947138,31.7677059 17.014572,36.5742832 18.5388076,41.6344567 C18.7848849,42.4527373 19.5611768,42.9850746 20.403483,42.9850746 C20.5822335,42.9850746 20.7643964,42.961067 20.9455093,42.9097665 C21.9753592,42.6228123 22.5684383,41.5854307 22.2702582,40.5926526 C20.856659,35.8989111 20.1877224,31.4712751 20.2820849,27.4340787 Z" id="Shape" fill="#C2E4F8"></path>
                        <path d="M26.9734531,7.02221281 C26.1516685,7.56723113 25.3027628,8.25574293 24.3763852,9.12767886 C23.6670989,9.79610857 23.6560315,10.8906987 24.3523045,11.5716214 C24.7048801,11.9169865 25.1710486,12.0895522 25.6370954,12.0895522 C26.0923181,12.0895522 26.5483921,11.9257432 26.8980488,11.5948559 C27.6756854,10.862794 28.3687963,10.2976936 29.0187322,9.86744666 C29.8366249,9.325464 30.0425271,8.24920458 29.4778467,7.46308453 C28.9123149,6.67789853 27.7912242,6.48023014 26.9734531,7.02221281 Z" id="Shape" fill="#C2E4F8"></path>
                        <path d="M46.9613236,25.5229973 C45.7753869,25.5452487 44.8362666,26.4113901 44.8613542,27.4560541 C44.8948528,28.7860217 44.8409071,30.154098 44.7031423,31.5220464 C44.5990212,32.5626182 45.4709994,33.4827256 46.6521506,33.5745445 C46.7168275,33.5797877 46.7803443,33.5820896 46.843716,33.5820896 C47.9433685,33.5820896 48.8801686,32.8415278 48.9796492,31.857096 C49.1317705,30.3507798 49.1905017,28.8421617 49.1533778,27.3738263 C49.12713,26.3278835 48.1197073,25.4966538 46.9613236,25.5229973 Z" id="Shape" fill="#C2E4F8"></path>
                        <path d="M97.2901508,12.4442324 C94.8448932,8.13591182 89.9823949,5.41905056 84.5267296,5.41905056 C77.2143043,5.41905056 71.1596705,10.3724264 70.2747309,16.7526806 C67.8297563,16.8032032 65.6508013,17.8392976 64.2049566,19.434712 C59.4923066,8.09483037 47.352475,0 33.1509916,0 C14.8712018,0 0,13.4095188 0,29.8924908 C0,40.0445829 4.68831202,45.5227039 10.1176584,51.86698 C11.5693045,53.5638222 13.0700511,55.3185867 14.5860797,57.2746758 C17.2721699,60.7429957 25.3290256,74.5235233 25.4096805,74.6627154 L25.5358983,74.8785843 C25.3045461,75.1821022 25.1689893,75.5489008 25.1689893,75.9451709 L25.1689893,81.9377031 C25.1665838,81.9944771 25.1501699,82.0471685 25.1501699,82.1040702 L25.1501699,85.6295469 C25.1501699,88.0398283 27.3241724,90 29.9962541,90 L35.9982501,90 C38.6703318,90 40.8443343,88.0398283 40.8443343,85.6295469 L40.8443343,82.1040702 C40.8443343,82.0060871 40.8197134,81.9146107 40.8127799,81.8175207 L40.8127799,75.9452985 C40.8127799,75.6586214 40.7367945,75.3898059 40.6094447,75.1463792 L40.8923028,74.6627154 C40.9740896,74.5235233 49.0298133,60.7440164 51.7170355,57.2756965 C53.2330641,55.3185867 54.7349427,53.5638222 56.1867304,51.86698 C61.5471663,45.6018049 66.1768974,40.1720374 66.2926442,30.2623514 C67.5119478,30.9284576 68.935577,31.3193692 70.4630671,31.3193692 C72.723809,31.3193692 74.8440416,30.4583175 76.3460617,29.01345 C78.7338704,30.5121572 81.5649979,31.3193692 84.5267296,31.3193692 C86.8609099,31.3193692 89.1353773,30.8124855 91.1838695,29.8440096 C92.8531424,30.8020237 94.7981983,31.3193692 96.7943356,31.3193692 C102.568517,31.3193692 107.2673,27.083898 107.2673,21.8765062 C107.2673,16.820044 102.835244,12.678218 97.2901508,12.4442324 Z M40.1652769,67.8713916 C39.164732,69.5429725 38.3114884,70.9868193 37.7773267,71.8940558 L28.5246565,71.8940558 C27.9869573,70.9803127 27.1243747,69.5206456 26.1144908,67.8346479 L40.1652769,67.8713916 Z M36.6236791,77.7916669 C36.4168064,77.7674263 36.2121977,77.7346377 35.9983916,77.7346377 L29.9963956,77.7346377 C29.77792,77.7346377 29.5686418,77.7674263 29.3580902,77.7928151 L29.3580902,75.9452985 C29.3580902,75.8515256 29.3418177,75.7609423 29.3266772,75.6713796 L36.654243,75.6713796 C36.638961,75.7609423 36.6238206,75.8515256 36.6238206,75.9452985 L36.6238206,77.7916669 L36.6236791,77.7916669 Z M35.9982501,86.2226762 L29.9962541,86.2226762 C29.6338732,86.2226762 29.3394122,85.9570502 29.3394122,85.6295469 L29.3394122,85.2932404 C29.3440817,85.2373594 29.3579487,85.1824991 29.3579487,85.1257251 L29.3579487,82.0208866 C29.4047851,81.7354854 29.6665597,81.5119615 29.9962541,81.5119615 L35.9982501,81.5119615 C36.3044556,81.5119615 36.5499577,81.7058864 36.6235376,81.9610506 L36.6235376,85.1258527 C36.6235376,85.2248564 36.638678,85.3187568 36.655092,85.4134228 L36.655092,85.6296745 C36.6552335,85.9570502 36.360631,86.2226762 35.9982501,86.2226762 Z M52.8695512,49.5601677 C51.388473,51.2915847 49.856172,53.0820722 48.282836,55.1120313 C46.992358,56.7772331 44.6488388,60.4921693 42.4456873,64.100702 L38.3581833,64.0899851 C39.5749399,60.6670844 41.079224,57.2639589 42.5566231,53.961113 C44.797272,48.953132 47.1140478,43.774191 48.4815017,38.3361307 C48.7374747,37.3191736 48.0304004,36.3074474 46.9013737,36.077672 C45.7733375,35.8458553 44.6512443,36.4844038 44.3964032,37.5014885 C43.1038027,42.6434307 40.8501358,47.6788418 38.6714638,52.5487789 C37.0034645,56.2774939 35.2887702,60.1306016 33.9633418,64.0782475 L31.651377,64.071996 C30.3258071,60.1126125 28.6415353,56.3532777 27.0039584,52.7173149 C26.2816021,51.11348 25.5603777,49.5104107 24.8684438,47.8896074 C24.453425,46.9156455 23.2389324,46.430068 22.1612701,46.8050318 C21.0824759,47.1802509 20.5436447,48.2720986 20.9585221,49.245933 C21.6597949,50.8879149 22.3903583,52.5128007 23.1231856,54.1380694 C24.5678983,57.3471424 26.038364,60.6575157 27.2491775,64.060386 L23.827996,64.0520932 C21.63291,60.4581049 19.3045312,56.7695782 18.0199963,55.1119037 C16.4479338,53.0820722 14.9154912,51.2915847 13.4332811,49.5600401 C8.06591163,43.2883583 4.18881782,38.7565138 4.18881782,29.8923632 C4.18881782,15.4920417 17.1806196,3.77706867 33.1507086,3.77706867 C49.1207976,3.77706867 62.1137314,15.4920417 62.1137314,29.8923632 C62.1140144,38.7557483 58.2367791,43.2873376 52.8695512,49.5601677 Z M96.7943356,27.5423006 C95.2889195,27.5423006 93.8303398,27.0502163 92.6873046,26.1553553 C92.2943598,25.8487755 91.805761,25.6927426 91.3126343,25.6927426 C90.910492,25.6927426 90.5059441,25.7969772 90.1530437,26.0090186 C88.4810823,27.0121969 86.5358849,27.5424281 84.5267296,27.5424281 C81.8382339,27.5424281 79.301992,26.6034237 77.383821,24.8971405 C76.8966373,24.4629785 76.2045619,24.2722432 75.5291835,24.3850258 C74.8545126,24.4988291 74.284127,24.9024989 74.0036744,25.467305 C73.3738589,26.7276887 71.9840482,27.5424281 70.4632086,27.5424281 C68.318638,27.5424281 66.5733798,25.9689579 66.5733798,24.0350681 C66.5733798,22.1013059 68.318638,20.5278356 70.4632086,20.5278356 C70.819788,20.5278356 71.1950454,20.5889474 71.6460052,20.7207397 C72.2995927,20.9103268 73.0172795,20.7986924 73.5631856,20.4224528 C74.1089503,20.0451924 74.4151558,19.4507873 74.3814788,18.8309934 L74.3660554,18.6054282 C74.3602539,18.5274755 74.3533204,18.4483746 74.3533204,18.3692737 C74.3533204,13.3116633 78.9164051,9.1963744 84.5268711,9.1963744 C88.7463944,9.1963744 92.4652915,11.492725 93.9987245,15.0465249 C94.340022,15.8358755 95.2258106,16.3186463 96.1588601,16.240566 C96.3667233,16.2215563 96.5795389,16.2110945 96.7944771,16.2110945 C100.258958,16.2110945 103.078482,18.7530407 103.078482,21.8767613 C103.078482,25.0013751 100.258958,27.5423006 96.7943356,27.5423006 Z" id="Shape" fill="#0A93E2"></path>
                    </g>
                </g>
            </g>
        </g>
    </g>
</svg>