<?xml version="1.0" encoding="UTF-8"?>
<svg width="150px" height="102px" viewBox="0 0 150 102" version="1.1" xmlns="http://www.w3.org/2000/svg" xmlns:xlink="http://www.w3.org/1999/xlink">
    <!-- Generator: sketchtool 51.2 (57519) - http://www.bohemiancoding.com/sketch -->
    <title>48B84917-E3BB-48EB-8B83-4C43D6615D43</title>
    <desc>Created with sketchtool.</desc>
    <defs></defs>
    <g id="FRONTEND" stroke="none" stroke-width="1" fill="none" fill-rule="evenodd">
        <g id="HOME" transform="translate(-389.000000, -2479.000000)" fill-rule="nonzero">
            <g id="Group-8" transform="translate(389.000000, 2482.000000)">
                <g id="if_cryptocurrency__crypto__currency__money_coin__lite__5_3233833" transform="translate(0.000000, 9.642655)" fill="#4A4A4A">
                    <g id="Group">
                        <path d="M26.6505269,21.3380891 L25.6924463,23.2715476 C24.4869864,25.6737676 22.3537073,27.5194616 19.842308,28.3251916 L19.2902585,28.5013075 L21.1485412,33.9796842 L21.5698499,33.832921 C25.5473093,32.5437531 28.9151344,29.6440057 30.8166057,25.8498835 L31.7746863,23.9164251 C32.95106,21.5291748 35.0555467,19.7125399 37.5528436,18.8633681 L74.0744882,6.67644537 C74.6999876,8.12617227 75.1779996,10.0308651 74.6694324,11.6710906 C74.0891782,13.4727557 72.2602755,14.8790407 69.2267943,15.9043284 L52.9535265,21.3533525 C52.1996366,21.6172328 51.5894148,22.1737588 51.2703484,22.8911373 C50.951282,23.6234857 50.9362982,24.4582748 51.2265722,25.2052995 C51.2556584,25.3083273 54.5650175,33.4081883 51.1974861,40.8787288 C49.0780155,45.5810217 44.6801289,49.0960004 38.0749256,51.3223982 C36.5797792,51.8348953 35.7527333,53.460738 36.2607128,54.9697572 C36.7548838,56.4638066 38.3801834,57.2991828 39.8603459,56.8004814 C43.649186,55.5262833 46.8865641,53.8705009 49.5281166,51.8501586 C52.5915653,49.4910869 54.8849653,46.6497514 56.394214,43.2956252 C59.3989028,36.6158448 58.3829437,29.7464465 57.4104669,25.9376479 L70.9825409,21.3821181 C75.8319976,19.7712452 78.8945649,17.1054384 80.0553673,13.4431095 C81.9427361,7.59899885 77.8927082,1.7983301 77.7181912,1.52006707 C76.9778161,0.494779345 75.6856854,0.084722961 74.5104868,0.465426704 L35.7233533,13.3993741 C31.8325648,14.7029248 28.5229119,17.6179355 26.6505269,21.3380891 Z" id="Shape"></path>
                        <path d="M41.5153192,76.179388 L50.7332827,75.7986842 C59.0795426,75.4317762 67.3541154,73.8790216 75.2505681,71.1401267 L101.481293,62.0590069 C102.700561,62.2048895 103.948622,62.2788582 105.226063,62.2788582 C110.713065,62.2788582 115.866017,60.8282507 120.337941,58.2798545 C119.887546,59.4069958 119.219446,60.4334577 118.363314,61.2967188 C117.434319,62.2486249 116.287325,62.9812668 114.952006,63.4359392 L77.0506784,76.5600917 C68.6165724,79.4897787 59.8346076,81.1446806 50.9360044,81.5403542 L40.0060705,81.9800567 L20.5973731,88.6883091 C19.1022268,89.2157761 17.475752,88.4244289 16.9539639,86.9165838 L0.435079587,38.0955114 C0.187994097,37.3481932 0.231182643,36.5864922 0.564939024,35.8834965 C0.898989205,35.1948835 1.49393346,34.6680036 2.19111998,34.4185062 L21.975881,27.5631971 C23.4713211,27.0360237 25.097502,27.8267838 25.619584,29.335803 L41.5153192,76.179388 Z M90.4203245,58.4556768 L80.6508991,61.5603055 C79.1704428,62.0883595 77.5304532,61.2970123 77.0218861,59.7888737 C76.5139065,58.2798545 77.283074,56.6393354 78.7785141,56.1118685 L84.5845824,54.2661744 C86.3553128,55.8776344 88.3149563,57.2985957 90.4203245,58.4556768 Z M79.8085756,48.7440622 L70.5618198,51.615044 C69.0663797,52.1275411 67.4410801,51.3511637 66.9181168,49.842438 C66.4101372,48.3334188 67.1939946,46.6934868 68.6894347,46.1663134 L76.9778161,43.5879775 C77.7622611,45.4046124 78.7050642,47.1323088 79.8085756,48.7440622 Z M75.0610673,37.5093392 L69.6184292,39.1935937 C68.1232828,39.7060908 66.4968081,38.9159177 65.9750199,37.407192 C65.4670404,35.8981728 66.2508978,34.2573602 67.7460441,33.7448631 L74.4373307,31.6655221 C74.4667107,33.6568052 74.6841224,35.6196162 75.0610673,37.5093392 Z M6.76322985,38.9449768 L21.5257799,82.3457906 L35.9266626,77.3652346 L21.1485412,33.9793907 L6.76322985,38.9449768 Z" id="Shape"></path>
                    </g>
                </g>
                <g id="coin-01" transform="translate(74.730573, 0.000000)" stroke="#4A4A4A">
                    <circle id="Oval" stroke-width="5" stroke-linecap="round" cx="36.1824266" cy="36.1824266" r="36.1824266"></circle>
                    <path d="M10.8910512,36.15677 C22.8060811,40.1059662 32.1619674,49.4446585 36.1595505,61.4303103 C40.1233724,49.4961759 49.4939309,40.135339 61.5056337,36.1586669 C49.5906038,32.2094707 40.2347175,22.8707784 36.2371344,10.8851267 C32.2733125,22.819261 22.902754,32.1800979 10.8910512,36.15677 Z M36.3355002,61.9704506 C36.3363927,61.9732571 36.3372848,61.9760637 36.3381767,61.9788705 C36.337406,61.9760017 36.3365697,61.9731641 36.3356698,61.9703594 Z M62.048754,35.9831017 C62.0514429,35.9822534 62.0541319,35.9814054 62.056821,35.9805577 C62.0540754,35.9812953 62.0513585,35.982093 62.0486715,35.9829489 Z M10.3479309,36.3323352 C10.345242,36.3331835 10.342553,36.3340315 10.3398639,36.3348793 C10.3426095,36.3341416 10.3453264,36.333344 10.3480134,36.332488 Z" id="Shape" stroke-width="4"></path>
                </g>
            </g>
        </g>
    </g>
</svg>