<?xml version="1.0" encoding="UTF-8"?>
<svg width="14px" height="14px" viewBox="0 0 14 14" version="1.1" xmlns="http://www.w3.org/2000/svg" xmlns:xlink="http://www.w3.org/1999/xlink">
    <!-- Generator: sketchtool 51.2 (57519) - http://www.bohemiancoding.com/sketch -->
    <title>7F01AB84-8C9F-4E86-A86F-8D59E369979D</title>
    <desc>Created with sketchtool.</desc>
    <defs></defs>
    <g id="PANEL" stroke="none" stroke-width="1" fill="none" fill-rule="evenodd">
        <g id="Panel-Prov.---ACTIVIDADES-Futuras" transform="translate(-1136.000000, -189.000000)" fill="#000000" fill-rule="nonzero">
            <g id="Group-4" transform="translate(1010.000000, 172.000000)">
                <g id="baseline-control_point_duplicate-24px-copy" transform="translate(126.000000, 17.000000)">
                    <path d="M6.5,6 L4.25,6 L4.25,7.5 L6.5,7.5 L8,7.5 L10.25,7.5 L10.25,6 L8,6 L6.5,6 Z M7.25,0 C3.53,0 0.5,3.03 0.5,6.75 C0.5,10.47 3.53,13.5 7.25,13.5 C10.97,13.5 14,10.47 14,6.75 C14,3.03 10.97,0 7.25,0 Z M7.25,12 C4.355,12 2,9.645 2,6.75 C2,3.855 4.355,1.5 7.25,1.5 C10.145,1.5 12.5,3.855 12.5,6.75 C12.5,9.645 10.145,12 7.25,12 Z" id="Shape"></path>
                </g>
            </g>
        </g>
    </g>
</svg>