<?xml version="1.0" encoding="UTF-8"?>
<svg width="161px" height="31px" viewBox="0 0 161 31" version="1.1" xmlns="http://www.w3.org/2000/svg" xmlns:xlink="http://www.w3.org/1999/xlink">
    <!-- Generator: sketchtool 51.2 (57519) - http://www.bohemiancoding.com/sketch -->
    <title>13D4DD72-0D4E-4057-8F4A-427D3E31E6F3-483-000000319DEA2CDA</title>
    <desc>Created with sketchtool.</desc>
    <defs></defs>
    <g id="FRONTEND" stroke="none" stroke-width="1" fill="none" fill-rule="evenodd">
        <g id="Activid.-PARA-VER-+" transform="translate(-180.000000, -20.000000)" fill="#1EB2E8" fill-rule="nonzero">
            <g id="Header-registrado">
                <g id="SVG-entrekids" transform="translate(180.000000, 20.000000)">
                    <g id="Group" style="mix-blend-mode: multiply;">
                        <path d="M19.47,26.75 C18.4610426,28.149126 17.1118349,29.2677293 15.55,30 C13.9799534,30.6408488 12.2954594,30.9539265 10.6,30.92 C9.15065342,30.9427697 7.71276653,30.6599626 6.38,30.09 C5.17417069,29.5618347 4.09127228,28.7888223 3.2,27.82 C2.31803864,26.8544045 1.63804358,25.7222128 1.2,24.49 C0.72574228,23.1755618 0.48872771,21.7873336 0.5,20.39 C0.484479984,18.9372926 0.745803325,17.4949235 1.27,16.14 C1.74719014,14.897222 2.47183949,13.7643195 3.4,12.81 C4.32185066,11.8796016 5.42451364,11.1478962 6.64,10.66 C7.94305796,10.1373255 9.33609674,9.87570604 10.74,9.89 C12.053127,9.87396247 13.3569963,10.111647 14.58,10.59 C15.7140181,11.0296572 16.7380018,11.712313 17.58,12.59 C18.4492151,13.5392364 19.1100588,14.6599455 19.52,15.88 C19.9948909,17.3043015 20.2248169,18.7988204 20.2,20.3 L20.2,21.37 L4.07,21.37 C4.12631224,22.2175187 4.33640215,23.0477127 4.69,23.82 C5.0348483,24.5616543 5.50507949,25.2382459 6.08,25.82 C6.65154434,26.4070849 7.33050346,26.8789615 8.08,27.21 C8.87441137,27.55652 9.73336379,27.7303556 10.6,27.72 C11.8670607,27.757719 13.1249479,27.4938026 14.27,26.95 C15.3218079,26.4300498 16.25207,25.6940182 17,24.79 L19.47,26.75 Z M16.61,18.6 C16.6372619,17.0770502 16.0580801,15.6057125 15,14.51 C13.7960711,13.4354479 12.2100496,12.8911541 10.6,13 C8.96524311,12.9254871 7.36343089,13.47611 6.12,14.54 C4.97540891,15.6168612 4.26408036,17.0750848 4.12,18.64 L16.61,18.6 Z" id="Shape"></path>
                        <path d="M23.82,15.15 C23.82,14.2433333 23.79,13.39 23.73,12.59 C23.67,11.79 23.6433333,11.0633333 23.65,10.41 L26.81,10.41 C26.81,10.95 26.81,11.49 26.81,12.03 C26.81,12.57 26.81,13.1233333 26.81,13.69 L27,13.69 C27.2605091,13.1723734 27.5976379,12.6970217 28,12.28 C28.4313312,11.8074231 28.9260302,11.3968566 29.47,11.06 C30.0692721,10.6923912 30.7149887,10.4065271 31.39,10.21 C32.1370229,9.99203895 32.9118503,9.88423687 33.69,9.89 C34.8485428,9.86406517 36.0007388,10.0679937 37.08,10.49 C37.986707,10.854522 38.7975586,11.4224602 39.45,12.15 C40.096686,12.8978268 40.5712017,13.7785825 40.84,14.73 C41.1244465,15.7959835 41.2557626,16.8970191 41.23,18 L41.23,30.38 L37.9,30.38 L37.9,18.38 C37.9854685,16.9602914 37.5948469,15.5526461 36.79,14.38 C35.9283568,13.3926377 34.6448881,12.8792502 33.34,13 C32.3807483,12.9744933 31.4278049,13.1623496 30.55,13.55 C29.7871644,13.9065877 29.1267431,14.4500594 28.63,15.13 C28.1089356,15.8620991 27.7322113,16.6868198 27.52,17.56 C27.2697201,18.5774076 27.1487655,19.6223206 27.16,20.67 L27.16,30.4 L23.82,30.4 L23.82,15.15 Z" id="Shape"></path>
                        <path d="M56.93,13.23 L51,13.23 L51,23.23 C51,23.8966667 51,24.5 51,25.04 C51.0152492,25.541204 51.1308622,26.0342596 51.34,26.49 C51.5331089,26.9059266 51.8466425,27.2542972 52.24,27.49 C52.7674604,27.7610131 53.3580429,27.8853463 53.95,27.85 C54.4513774,27.8477947 54.9510114,27.7907895 55.44,27.68 C55.9816515,27.5699964 56.5062559,27.3884026 57,27.14 L57.13,30.14 C56.5232913,30.4052117 55.8845639,30.5901064 55.23,30.69 C54.5690171,30.800576 53.9001633,30.8574286 53.23,30.86 C52.2546807,30.89854 51.2816913,30.7386431 50.37,30.39 C49.7045835,30.1230005 49.1264214,29.6763962 48.7,29.1 C48.2784397,28.4701887 48.0080768,27.7515027 47.91,27 C47.776557,26.0761054 47.7130433,25.1434559 47.72,24.21 L47.72,13.21 L43.37,13.21 L43.37,10.41 L47.72,10.41 L47.72,4.74 L51,4.74 L51,10.41 L56.89,10.41 L56.93,13.23 Z" id="Shape"></path>
                        <path d="M59.49,15.15 C59.49,14.2433333 59.46,13.39 59.4,12.59 C59.34,11.79 59.3133333,11.0633333 59.32,10.41 L62.48,10.41 C62.48,10.95 62.48,11.49 62.48,12.03 C62.48,12.57 62.48,13.1233333 62.48,13.69 L62.56,13.69 C62.8205091,13.1723734 63.1576379,12.6970217 63.56,12.28 C63.9913312,11.8074231 64.4860302,11.3968566 65.03,11.06 C65.6454374,10.6917664 66.308208,10.4091637 67,10.22 C67.7470229,10.0020389 68.5218503,9.89423687 69.3,9.9 C69.5264521,9.8860507 69.7535479,9.8860507 69.98,9.9 C70.2124465,9.93034642 70.4406195,9.98738967 70.66,10.07 L70.45,13.44 C69.8691894,13.2665771 69.266148,13.1789845 68.66,13.18 C66.9285688,13.0367914 65.2447341,13.7918742 64.2,15.18 C63.1908874,16.8083625 62.7057195,18.7071492 62.81,20.62 L62.81,30.35 L59.49,30.35 L59.49,15.15 Z" id="Shape"></path>
                        <path d="M90,26.75 C89.0021744,28.1438859 87.6672573,29.262051 86.12,30 C84.5499534,30.6408488 82.8654594,30.9539265 81.17,30.92 C79.7206534,30.9427697 78.2827665,30.6599626 76.95,30.09 C75.7468499,29.5706538 74.6641588,28.8080035 73.77,27.85 C72.8880386,26.8844045 72.2080436,25.7522128 71.77,24.52 C71.2957423,23.2055618 71.0587277,21.8173336 71.07,20.42 C71.05448,18.9672926 71.3158033,17.5249235 71.84,16.17 C72.3236694,14.9175419 73.0587797,13.7774402 74,12.82 C74.9218507,11.8896016 76.0245136,11.1578962 77.24,10.67 C78.543058,10.1473255 79.9360967,9.88570604 81.34,9.9 C82.653127,9.88396247 83.9569963,10.121647 85.18,10.6 C86.3140181,11.0396572 87.3380018,11.722313 88.18,12.6 C89.0492151,13.5492364 89.7100588,14.6699455 90.12,15.89 C90.5948909,17.3143015 90.8248169,18.8088204 90.8,20.31 L90.8,21.38 L74.64,21.38 C74.6963122,22.2275187 74.9064022,23.0577127 75.26,23.83 C75.6048483,24.5716543 76.0750795,25.2482459 76.65,25.83 C77.2215443,26.4170849 77.9005035,26.8889615 78.65,27.22 C79.4444114,27.56652 80.3033638,27.7403556 81.17,27.73 C82.4370607,27.767719 83.6949479,27.5038026 84.84,26.96 C85.8869714,26.4062233 86.8039828,25.6357973 87.53,24.7 L90,26.75 Z M87.18,18.6 C87.1966149,17.0664493 86.5988427,15.590024 85.52,14.5 C84.3269607,13.4417773 82.7617229,12.9020402 81.17,13 C77.8220176,12.7812751 74.9165478,15.2862972 74.64,18.63 L87.18,18.6 Z" id="Shape"></path>
                        <polygon id="Shape" points="94.39 0.12 97.72 0.12 97.72 19.2 106.81 10.41 111.55 10.41 101.9 19.5 112.52 30.38 107.61 30.38 97.71 19.88 97.71 30.38 94.39 30.38"></polygon>
                        <path d="M113.72,2.6 C113.712378,1.95877112 113.96493,1.341823 114.42,0.89 C114.875278,0.42454834 115.498906,0.162187933 116.15,0.162187933 C116.801094,0.162187933 117.424722,0.42454834 117.88,0.89 C118.33507,1.341823 118.587622,1.95877112 118.58,2.6 C118.58,3.94205194 117.492052,5.03 116.15,5.03 C114.807948,5.03 113.72,3.94205194 113.72,2.6 Z M114.49,10.41 L117.82,10.41 L117.82,30.41 L114.49,30.41 L114.49,10.41 Z" id="Shape"></path>
                        <path d="M139.49,26.84 L139.41,26.84 C138.69679,28.059916 137.657999,29.0571554 136.41,29.72 C134.972295,30.5227056 133.346204,30.9266389 131.7,30.89 C130.349643,30.8994026 129.011831,30.6304785 127.77,30.1 C126.571481,29.590441 125.489442,28.841861 124.59,27.9 C123.678826,26.9362049 122.962372,25.8054987 122.48,24.57 C121.456069,21.8773915 121.456069,18.9026085 122.48,16.21 C122.963968,14.9706584 123.687801,13.8390315 124.61,12.88 C125.54684,11.9226535 126.674591,11.1730903 127.92,10.68 C129.285047,10.1402883 130.742241,9.87194717 132.21,9.89 C133.595284,9.87387074 134.965126,10.1820853 136.21,10.79 C137.433712,11.3997162 138.51678,12.2579966 139.39,13.31 L139.47,13.31 L139.47,0.12 L142.8,0.12 L142.8,30.38 L139.47,30.38 L139.49,26.84 Z M139.49,20.4 C139.498959,19.4054795 139.333104,18.4171195 139,17.48 C138.373769,15.7182459 137.044838,14.2951673 135.33,13.55 C133.455719,12.7814878 131.354281,12.7814878 129.48,13.55 C127.764453,14.2941618 126.43518,15.7176067 125.81,17.48 C125.153942,19.374819 125.153942,21.435181 125.81,23.33 C126.43518,25.0923933 127.764453,26.5158382 129.48,27.26 C131.354281,28.0285122 133.455719,28.0285122 135.33,27.26 C137.046875,26.5125653 138.37612,25.0855291 139,23.32 C139.333306,22.3829329 139.499167,21.3945369 139.49,20.4 Z" id="Shape"></path>
                        <path d="M147.85,25.13 C148.446661,25.9186132 149.177887,26.5956744 150.01,27.13 C150.920618,27.6527059 151.961028,27.9058724 153.01,27.86 C153.534577,27.8591651 154.057556,27.8021737 154.57,27.69 C155.073695,27.5866419 155.556863,27.4008082 156,27.14 C156.404383,26.8862222 156.746222,26.5443831 157,26.14 C157.263715,25.7254888 157.396159,25.2410235 157.38,24.75 C157.400603,24.2832228 157.27473,23.8216864 157.02,23.43 C156.751477,23.0729784 156.410743,22.7765399 156.02,22.56 C155.592222,22.3044993 155.131197,22.109321 154.65,21.98 C154.136667,21.84 153.61,21.7133333 153.07,21.6 C152.13,21.4 151.233333,21.1733333 150.38,20.92 C149.590126,20.6933793 148.836068,20.3567461 148.14,19.92 C147.506722,19.5167351 146.978778,18.9682212 146.6,18.32 C146.18543,17.5467417 145.98518,16.6766894 146.02,15.8 C146.000245,14.9047526 146.221276,14.0206279 146.66,13.24 C147.08283,12.5074621 147.667777,11.8814661 148.37,11.41 C149.102976,10.9159771 149.909662,10.5413237 150.76,10.3 C151.647386,10.0445624 152.566588,9.91661491 153.49,9.92 C154.853555,9.90545751 156.203121,10.1958704 157.44,10.77 C158.666659,11.3542676 159.665307,12.3283008 160.28,13.54 L157.51,15.37 C157.091366,14.6678299 156.512187,14.0749426 155.82,13.64 C155.054044,13.1812135 154.172411,12.9521279 153.28,12.98 C152.811561,12.981285 152.344942,13.0383535 151.89,13.15 C151.44582,13.2527638 151.020605,13.4248743 150.63,13.66 C150.264929,13.8812424 149.951277,14.1778481 149.71,14.53 C149.467952,14.8902313 149.342295,15.3160711 149.35,15.75 C149.340842,16.1526359 149.487756,16.5432124 149.76,16.84 C150.076019,17.1719592 150.452841,17.4401482 150.87,17.63 C151.390934,17.8781297 151.933115,18.0789375 152.49,18.23 C153.115724,18.4050937 153.749859,18.5486083 154.39,18.66 C155.243939,18.8228462 156.085866,19.0433509 156.91,19.32 C157.660406,19.5648008 158.366211,19.9295229 159,20.4 C159.595685,20.8535301 160.078285,21.4388108 160.41,22.11 C160.773141,22.8990781 160.947742,23.7618146 160.92,24.63 C160.951052,25.6395208 160.716572,26.6395085 160.24,27.53 C159.79921,28.3111704 159.17877,28.9761718 158.43,29.47 C157.646886,29.9800775 156.780451,30.3489893 155.87,30.56 C154.913299,30.7870602 153.933276,30.9011725 152.95,30.9 C151.438529,30.9366181 149.935206,30.6679246 148.53,30.11 C147.159976,29.4725758 145.998491,28.460177 145.18,27.19 L147.85,25.13 Z" id="Shape"></path>
                    </g>
                </g>
            </g>
        </g>
    </g>
</svg>