<?xml version="1.0" encoding="UTF-8"?>
<svg width="112px" height="112px" viewBox="0 0 112 112" version="1.1" xmlns="http://www.w3.org/2000/svg" xmlns:xlink="http://www.w3.org/1999/xlink">
    <!-- Generator: sketchtool 51.2 (57519) - http://www.bohemiancoding.com/sketch -->
    <title>8541794E-070D-41CE-817E-3FE9624FB411</title>
    <desc>Created with sketchtool.</desc>
    <defs></defs>
    <g id="FRONTEND" stroke="none" stroke-width="1" fill="none" fill-rule="evenodd">
        <g id="HOME" transform="translate(-284.000000, -1783.000000)" fill="#F56A80" fill-rule="nonzero">
            <g id="lupa_roja" transform="translate(284.000000, 1783.000000)">
                <g id="Group-17">
                    <g id="if_SEO_search_969259">
                        <path d="M110.181997,97.7076566 L81.0773186,68.6032483 C79.8653166,67.3912575 78.3913725,66.7842227 76.9195074,66.7842227 C76.3935443,66.7842227 75.8738179,66.8902459 75.3603282,67.0440835 L71.246174,62.9299675 C76.0962608,56.3710812 78.998413,48.2862923 78.998413,39.4988399 C78.998413,17.6809281 61.3173208,0 39.4992065,0 C17.6810922,0 0,17.6809281 0,39.4988399 C0,61.3167517 17.6810922,78.9976798 39.4992065,78.9976798 C48.2846616,78.9976798 56.3716044,76.0955545 62.9305516,71.2455128 L67.0447058,75.3596288 C66.4584544,77.311703 66.9594706,79.4321671 68.603885,81.0765661 L97.7085634,110.180974 C98.9205654,111.392965 100.394509,112 101.866375,112 C103.33824,112 104.812184,111.392965 106.024186,110.180974 L110.181997,106.023202 C112.606001,103.59922 112.606001,100.131638 110.181997,97.7076566 Z M39.4992065,76.9187935 C18.8660684,76.9187935 2.0789056,60.1317865 2.0789056,39.4988399 C2.0789056,18.8658933 18.8660684,2.07888631 39.4992065,2.07888631 C60.1323446,2.07888631 76.9195074,18.8658933 76.9195074,39.4988399 C76.9195074,60.1317865 60.1323446,76.9187935 39.4992065,76.9187935 Z M68.0488172,73.4241856 L64.6123862,69.9877865 C66.5707153,68.3724919 68.3731264,66.5700974 69.9884361,64.6117865 L73.4248671,68.0481856 C73.2003452,68.2228121 72.9737445,68.3912019 72.7616962,68.6032483 L68.603885,72.7610209 C68.3918366,72.9730673 68.2234452,73.1996659 68.0488172,73.4241856 Z M108.712211,104.553429 L104.5544,108.711202 C103.764415,109.503258 102.833066,109.921114 101.866375,109.921114 C100.899684,109.921114 99.9683338,109.503258 99.1783497,108.711202 L70.0736712,79.6067935 C68.4666772,77.9998144 68.4666772,75.8377726 70.0736712,74.2307935 L74.2314824,70.0730209 C75.0214666,69.2809652 75.9528163,68.863109 76.9195074,68.863109 C77.8861985,68.863109 78.8175482,69.2809652 79.6075323,70.0730209 L108.712211,99.1774292 C110.319205,100.784408 110.319205,102.94645 108.712211,104.553429 Z" id="Shape"></path>
                        <path d="M59.0529474,19.7147664 C58.651158,19.3128557 57.9979927,19.3128557 57.5962033,19.7147664 C57.1944139,20.1166771 57.1944139,20.7700396 57.5962033,21.1719503 C62.4609456,26.0381613 65.141602,32.5099541 65.1395416,39.393963 C65.1374811,46.2759108 62.4588852,52.7435814 57.5962033,57.6077314 C47.553529,67.6513766 31.2161542,67.6513766 21.1714195,57.6077314 C20.7696301,57.2058207 20.1164648,57.2058207 19.7146754,57.6077314 C19.312886,58.009642 19.312886,58.6630046 19.7146754,59.0649153 C25.1378019,64.4896791 32.2608067,67.2 39.3838114,67.2 C46.5068161,67.2 53.6298209,64.4896791 59.0529474,59.0649153 C64.3050559,53.8112211 67.1979395,46.8262193 67.2,39.393963 C67.2,31.9617067 64.3091768,24.9705216 59.0529474,19.7147664 Z" id="Shape"></path>
                        <path d="M39.2,5.97333333 C20.8796467,5.97333333 5.97333333,20.8796467 5.97333333,39.2 C5.97333333,57.5203533 20.8796467,72.4266667 39.2,72.4266667 C57.5203533,72.4266667 72.4266667,57.5203533 72.4266667,39.2 C72.4266667,20.8796467 57.5203533,5.97333333 39.2,5.97333333 Z M39.2,70.35 C21.9968933,70.35 8.05,56.4031067 8.05,39.2 C8.05,21.9968933 21.9968933,8.05 39.2,8.05 C56.4031067,8.05 70.35,21.9968933 70.35,39.2 C70.35,56.4031067 56.4031067,70.35 39.2,70.35 Z" id="Shape"></path>
                    </g>
                    <g id="if_00-ELASTOFONT-STORE-READY_user_2703063" transform="translate(18.967742, 16.258065)">
                        <path d="M27.071145,25.6406578 C30.7653229,23.2002628 33.241428,18.8358038 33.241428,13.8522358 C33.241428,6.21411309 27.4456199,0 20.3225806,0 C13.1995413,0 7.40373328,6.21411309 7.40373328,13.8522358 C7.40373328,18.8358038 9.87983838,23.2002628 13.5740163,25.6406578 C5.59730804,27.5591408 0,32.7998862 0,39.1421231 C-7.87930743e-16,44.332177 7.40373328,50.5806452 20.3225806,50.5806452 C33.241428,50.5806452 40.6451613,44.332177 40.6451613,39.1421229 C40.6451613,32.7998862 35.0478531,27.5591408 27.071145,25.6406578 Z M10.0651267,13.8522358 C10.0651267,7.78973178 14.6671196,2.8573201 20.3225806,2.8573201 C25.9780417,2.8573201 30.5800346,7.78973178 30.5800346,13.8522358 C30.5800346,19.9147399 25.9780417,24.8462212 20.3225806,24.8462212 C14.6671196,24.8462212 10.0651267,19.9147397 10.0651267,13.8522358 Z M20.3225806,47.662531 C6.32258065,47.662531 2.97847364,40.4025481 2.66215159,39.1324729 C2.67038186,32.8297662 10.5900199,27.7035413 20.3225806,27.7035413 C30.0541668,27.7035413 37.9731551,32.828836 37.9829015,39.1306126 C37.6744848,40.3997577 34.3225806,47.662531 20.3225806,47.662531 Z" id="Shape"></path>
                    </g>
                </g>
            </g>
        </g>
    </g>
</svg>