<?xml version="1.0" encoding="UTF-8"?>
<svg width="18px" height="16px" viewBox="0 0 18 16" version="1.1" xmlns="http://www.w3.org/2000/svg" xmlns:xlink="http://www.w3.org/1999/xlink">
    <!-- Generator: sketchtool 51.2 (57519) - http://www.bohemiancoding.com/sketch -->
    <title>ABB664AF-A6E3-4313-98A5-709EDACC5B26</title>
    <desc>Created with sketchtool.</desc>
    <defs></defs>
    <g id="FRONTEND" stroke="none" stroke-width="1" fill="none" fill-rule="evenodd">
        <g id="Mi-cuenta---Perfil-Menu-dropdown" transform="translate(-277.000000, -357.000000)" fill="#777777" fill-rule="nonzero">
            <g id="baseline-camera_alt-24px" transform="translate(277.000000, 357.000000)">
                <circle id="Oval" cx="9" cy="9" r="2.66666667"></circle>
                <path d="M6.5,0.666666667 L4.975,2.33333333 L2.33333333,2.33333333 C1.41666667,2.33333333 0.666666667,3.08333333 0.666666667,4 L0.666666667,14 C0.666666667,14.9166667 1.41666667,15.6666667 2.33333333,15.6666667 L15.6666667,15.6666667 C16.5833333,15.6666667 17.3333333,14.9166667 17.3333333,14 L17.3333333,4 C17.3333333,3.08333333 16.5833333,2.33333333 15.6666667,2.33333333 L13.025,2.33333333 L11.5,0.666666667 L6.5,0.666666667 Z M9,13.1666667 C6.7,13.1666667 4.83333333,11.3 4.83333333,9 C4.83333333,6.7 6.7,4.83333333 9,4.83333333 C11.3,4.83333333 13.1666667,6.7 13.1666667,9 C13.1666667,11.3 11.3,13.1666667 9,13.1666667 Z" id="Shape"></path>
            </g>
        </g>
    </g>
</svg>