<?xml version="1.0" encoding="UTF-8"?>
<svg width="86px" height="107px" viewBox="0 0 86 107" version="1.1" xmlns="http://www.w3.org/2000/svg" xmlns:xlink="http://www.w3.org/1999/xlink">
    <!-- Generator: sketchtool 51.2 (57519) - http://www.bohemiancoding.com/sketch -->
    <title>939B01FF-A273-4D29-9A3B-A1FA4A781F3E</title>
    <desc>Created with sketchtool.</desc>
    <defs></defs>
    <g id="FRONTEND" stroke="none" stroke-width="1" fill="none" fill-rule="evenodd">
        <g id="HOME" transform="translate(-293.000000, -1922.000000)" stroke="#19C6B7" stroke-width="2.7">
            <g id="premio_verde" transform="translate(297.000000, 1923.000000)">
                <g id="if_certificate_477144">
                    <g id="Group">
                        <path d="M61.328045,66.4468379 C55.619963,70.5083298 48.7045756,73.0743846 41.1747076,73.5641447 L60.7460481,101.938667 L61.8865817,85.4212118 L78.201446,90.9113964 L61.328045,66.4468379 Z" id="Shape"></path>
                        <path d="M0.0315812317,90.9095925 L16.3482502,85.4194079 L17.4860768,101.936863 L37.0231291,73.6173599 C29.408443,73.3287351 22.3712422,70.9322475 16.5323236,66.9898132 L0.0315812317,90.9095925 Z" id="Shape"></path>
                        <path d="M76.8263089,37.0576188 C76.8263089,16.8232173 59.6894303,0.423015705 38.5516607,0.423015705 C17.4175005,0.423015705 0.281524123,16.8241193 0.281524123,37.0576188 C0.281524123,49.4351125 6.71326754,60.3568548 16.5341283,66.9898132 C22.3730469,70.9340514 29.4102476,73.3278332 37.0249338,73.6182619 C37.5347451,73.6372029 38.0364355,73.692222 38.5516607,73.692222 C39.4377399,73.692222 40.3048702,73.6227716 41.1756099,73.5641447 C48.7054779,73.0743846 55.6208653,70.5083298 61.3289474,66.4468379 C70.7166941,59.7723896 76.8263089,49.1095076 76.8263089,37.0576188 Z" id="Shape"></path>
                    </g>
                    <path d="M62.4712856,37.0576188 C62.4712856,49.7020904 51.7634434,59.9536821 38.5498561,59.9536821 C25.3407803,59.9536821 14.6329381,49.7020904 14.6329381,37.0576188 C14.6329381,24.4122453 25.3407803,14.1606537 38.5498561,14.1606537 C51.7634434,14.1606537 62.4712856,24.4122453 62.4712856,37.0576188 Z" id="Shape"></path>
                </g>
            </g>
        </g>
    </g>
</svg>