<?xml version="1.0" encoding="UTF-8"?>
<svg width="71px" height="50px" viewBox="0 0 71 50" version="1.1" xmlns="http://www.w3.org/2000/svg" xmlns:xlink="http://www.w3.org/1999/xlink">
    <!-- Generator: sketchtool 51.2 (57519) - http://www.bohemiancoding.com/sketch -->
    <title>7F68E571-96C2-469C-9472-F8F937E470F9</title>
    <desc>Created with sketchtool.</desc>
    <defs></defs>
    <g id="FRONTEND" stroke="none" stroke-width="1" fill="none" fill-rule="evenodd">
        <g id="HOME-PROVEEDOR" transform="translate(-531.000000, -989.000000)" fill="#37474F" fill-rule="nonzero">
            <g id="if_Programming_Development_analysis_1743801" transform="translate(531.000000, 989.000000)">
                <g id="Group">
                    <path d="M0,0 L0,50 L71,50 L71,0 L0,0 Z M69.5510204,48.5465116 L1.44897959,48.5465116 L1.44897959,2.03488372 L69.5510204,2.03488372 L69.5510204,48.5465116 Z" id="Shape"></path>
                </g>
                <path d="M62.1119592,10.8459302 L63.1726122,9.04360465 L62.3061224,5.66860465 L58.9415918,6.5377907 L57.8809388,8.34011628 L60.2529184,7.72674419 L51.1852041,23.130814 C50.6737143,22.6715116 50.0042857,22.3837209 49.2653061,22.3837209 C48.6668776,22.3837209 48.1104694,22.5668605 47.6482449,22.8793605 L42.7767755,16.9796512 C43.2027755,16.4738372 43.4693878,15.8284884 43.4693878,15.1162791 C43.4693878,13.5130814 42.1696531,12.2093023 40.5714286,12.2093023 C38.9732041,12.2093023 37.6734694,13.5130814 37.6734694,15.1162791 C37.6734694,15.8357558 37.9444286,16.4854651 38.3776735,16.994186 L31.025551,29.7151163 C30.8328367,29.6744186 30.6328776,29.6511628 30.4285714,29.6511628 C29.8301429,29.6511628 29.2737347,29.8343023 28.8100612,30.1468023 L23.0706531,26.0479651 C23.1373061,25.8052326 23.1836735,25.5552326 23.1836735,25.2906977 C23.1836735,23.6875 21.8839388,22.3837209 20.2857143,22.3837209 C18.6874898,22.3837209 17.3877551,23.6875 17.3877551,25.2906977 C17.3877551,25.6875 17.468898,26.0668605 17.6123469,26.4113372 L9.42706122,38.4767442 C9.19232653,38.4156977 8.94889796,38.372093 8.69387755,38.372093 C7.09565306,38.372093 5.79591837,39.6758721 5.79591837,41.2790698 C5.79591837,42.8822674 7.09565306,44.1860465 8.69387755,44.1860465 C10.292102,44.1860465 11.5918367,42.8822674 11.5918367,41.2790698 C11.5918367,40.4578488 11.2469796,39.7180233 10.6978163,39.1889535 L18.5541837,27.6090116 C19.0395918,27.9738372 19.6336735,28.1976744 20.2857143,28.1976744 C21.0956939,28.1976744 21.8274286,27.8604651 22.3534082,27.3212209 L27.8551837,31.25 C27.6537755,31.6438953 27.5306122,32.0843023 27.5306122,32.5581395 C27.5306122,34.1613372 28.8303469,35.4651163 30.4285714,35.4651163 C32.0267959,35.4651163 33.3265306,34.1613372 33.3265306,32.5581395 C33.3265306,31.6831395 32.9309592,30.9055233 32.3194898,30.3735465 L39.5672857,17.8343023 C39.8817143,17.9505814 40.2164286,18.0232558 40.5714286,18.0232558 C40.9336735,18.0232558 41.2770816,17.9491279 41.5973061,17.8255814 L46.6875714,23.9912791 C46.4890612,24.3837209 46.3673469,24.8212209 46.3673469,25.2906977 C46.3673469,26.8938953 47.6670816,28.1976744 49.2653061,28.1976744 C50.8635306,28.1976744 52.1632653,26.8938953 52.1632653,25.2906977 C52.1632653,25.0232558 52.115449,24.7703488 52.0473469,24.5232558 L61.5004898,8.46511628 L62.1119592,10.8459302 Z M8.69387755,42.7325581 C7.8954898,42.7325581 7.24489796,42.0799419 7.24489796,41.2790698 C7.24489796,40.4781977 7.8954898,39.8255814 8.69387755,39.8255814 C9.49226531,39.8255814 10.1428571,40.4781977 10.1428571,41.2790698 C10.1428571,42.0799419 9.49226531,42.7325581 8.69387755,42.7325581 Z M20.2857143,26.744186 C19.4873265,26.744186 18.8367347,26.0915698 18.8367347,25.2906977 C18.8367347,24.4898256 19.4873265,23.8372093 20.2857143,23.8372093 C21.084102,23.8372093 21.7346939,24.4898256 21.7346939,25.2906977 C21.7346939,26.0915698 21.084102,26.744186 20.2857143,26.744186 Z M30.4285714,34.0116279 C29.6301837,34.0116279 28.9795918,33.3590116 28.9795918,32.5581395 C28.9795918,31.7572674 29.6301837,31.1046512 30.4285714,31.1046512 C31.2269592,31.1046512 31.877551,31.7572674 31.877551,32.5581395 C31.877551,33.3590116 31.2269592,34.0116279 30.4285714,34.0116279 Z M39.122449,15.1162791 C39.122449,14.315407 39.7730408,13.6627907 40.5714286,13.6627907 C41.3698163,13.6627907 42.0204082,14.315407 42.0204082,15.1162791 C42.0204082,15.9171512 41.3698163,16.5697674 40.5714286,16.5697674 C39.7730408,16.5697674 39.122449,15.9171512 39.122449,15.1162791 Z M49.2653061,26.744186 C48.4669184,26.744186 47.8163265,26.0915698 47.8163265,25.2906977 C47.8163265,24.4898256 48.4669184,23.8372093 49.2653061,23.8372093 C50.0636939,23.8372093 50.7142857,24.4898256 50.7142857,25.2906977 C50.7142857,26.0915698 50.0636939,26.744186 49.2653061,26.744186 Z" id="Shape"></path>
            </g>
        </g>
    </g>
</svg>