<?xml version="1.0" encoding="UTF-8"?>
<svg width="60px" height="58px" viewBox="0 0 60 58" version="1.1" xmlns="http://www.w3.org/2000/svg" xmlns:xlink="http://www.w3.org/1999/xlink">
    <!-- Generator: sketchtool 51.2 (57519) - http://www.bohemiancoding.com/sketch -->
    <title>F7F72D97-BEFB-4C2C-8F1D-5167F519A65C</title>
    <desc>Created with sketchtool.</desc>
    <defs></defs>
    <g id="FRONTEND" stroke="none" stroke-width="1" fill="none" fill-rule="evenodd">
        <g id="HOME-PROVEEDOR" transform="translate(-232.000000, -981.000000)" fill="#515151" fill-rule="nonzero">
            <path d="M249.575027,981.000324 C249.523613,981.000544 249.472288,981.0046 249.421477,981.012459 L240.277185,981.012459 C239.130587,981.012459 238.130853,981.534612 237.460759,982.278509 C236.790666,983.0222 236.395972,983.952246 236.167709,984.911733 L232.029947,1002.3088 C232.001355,1002.42516 231.993152,1002.54559 232.005702,1002.66475 C232.002963,1002.69569 232.001614,1002.72673 232.001662,1002.75779 C232.001671,1005.75139 233.571104,1008.52313 236.131342,1010.02645 C236.133965,1010.028 236.136799,1010.02896 236.139423,1010.0305 L236.139423,1037.96451 C236.13948,1038.53637 236.602582,1038.99994 237.173864,1039 L286.827003,1039 C287.398285,1038.99994 287.861387,1038.53637 287.861444,1037.96451 L287.861444,1010.0305 C287.863018,1010.02958 287.86391,1010.02738 287.865484,1010.02645 C290.425724,1008.52313 291.999206,1005.75139 291.999206,1002.75779 C291.998913,1002.73078 291.997565,1002.70379 291.995165,1002.67689 C291.995176,1002.67419 291.995176,1002.6715 291.995165,1002.6688 C291.995207,1002.66341 291.995207,1002.65801 291.995165,1002.65262 C292.006326,1002.53746 291.998131,1002.42125 291.97092,1002.3088 L287.833158,984.911733 C287.604894,983.952246 287.210202,983.0222 286.540108,982.278509 C285.870016,981.534612 284.870281,981.012459 283.723682,981.012459 L274.57939,981.012459 C274.517923,981.002827 274.455712,980.998766 274.393516,981.000324 C274.344801,981.000935 274.29619,981.00499 274.248047,981.012459 L262.166105,981.012459 C262.105969,981.003067 262.045121,980.999007 261.984271,981.000324 C261.931509,981.00034 261.878825,981.004397 261.826681,981.012459 L249.74878,981.012459 C249.691306,981.003532 249.633182,980.999473 249.575027,981.000324 Z M240.277185,983.083442 L248.443607,983.083442 L246.560602,1001.72229 L240.277185,1001.72229 L234.296826,1001.72229 L238.180019,985.393075 C238.349967,984.678585 238.64404,984.056908 238.996257,983.665906 C239.348474,983.274905 239.704523,983.083442 240.277185,983.083442 Z M250.52461,983.083442 L260.965993,983.083442 L260.965993,1001.72229 L254.759351,1001.72229 L248.645646,1001.72229 L250.52461,983.083442 Z M263.034874,983.083442 L273.476257,983.083442 L275.355221,1001.72229 L269.241516,1001.72229 L263.034874,1001.72229 L263.034874,983.083442 Z M275.557261,983.083442 L283.723682,983.083442 C284.296344,983.083442 284.648352,983.27594 285.000571,983.665906 C285.352787,984.056908 285.650901,984.678585 285.820849,985.393075 L289.704041,1001.72229 L283.723682,1001.72229 L277.440266,1001.72229 L275.557261,983.083442 Z M234.341275,1003.79328 L240.277185,1003.79328 L246.209054,1003.79328 C245.89402,1005.62423 244.978917,1007.29933 243.372425,1008.24266 C241.451869,1009.37031 239.098461,1009.37031 237.177905,1008.24266 C235.571209,1007.29912 234.656152,1005.62465 234.341275,1003.79328 Z M248.82344,1003.79328 L254.759351,1003.79328 L260.691221,1003.79328 C260.37619,1005.62423 259.461083,1007.29933 257.854591,1008.24266 C255.934043,1009.37031 253.580618,1009.37031 251.66007,1008.24266 C250.053375,1007.29912 249.138313,1005.62465 248.82344,1003.79328 Z M263.305606,1003.79328 L269.241516,1003.79328 L275.173387,1003.79328 C274.858356,1005.62423 273.943249,1007.29933 272.336757,1008.24266 C270.416206,1009.37031 268.062786,1009.37031 266.142236,1008.24266 C264.535541,1007.29912 263.620479,1005.62465 263.305606,1003.79328 Z M277.787771,1003.79328 L283.723682,1003.79328 L289.655553,1003.79328 C289.340522,1005.62423 288.425415,1007.29933 286.818922,1008.24266 C284.898372,1009.37031 282.544952,1009.37031 280.624402,1008.24266 C279.017707,1007.29912 278.102647,1005.62465 277.787771,1003.79328 Z M247.514227,1006.80268 C248.228325,1008.11921 249.285309,1009.24656 250.613508,1010.02645 C253.173746,1011.52978 256.340915,1011.52978 258.901153,1010.02645 C260.22883,1009.24687 261.281257,1008.11854 261.996393,1006.80268 C262.710492,1008.11921 263.767477,1009.24656 265.095674,1010.02645 C267.655914,1011.52978 270.823081,1011.52978 273.383319,1010.02645 C274.710996,1009.24687 275.763423,1008.11854 276.478559,1006.80268 C277.192658,1008.11921 278.249643,1009.24656 279.57784,1010.02645 C281.480804,1011.14384 283.71744,1011.42764 285.792563,1010.88397 L285.792563,1036.92902 L238.208304,1036.92902 L238.208304,1010.88397 C240.282344,1011.42627 242.517198,1011.14315 244.418987,1010.02645 C245.746663,1009.24687 246.799092,1008.11854 247.514227,1006.80268 Z" id="rect4325"></path>
        </g>
    </g>
</svg>