<?xml version="1.0" encoding="UTF-8"?>
<svg width="65px" height="78px" viewBox="0 0 65 78" version="1.1" xmlns="http://www.w3.org/2000/svg" xmlns:xlink="http://www.w3.org/1999/xlink">
    <!-- Generator: sketchtool 51.2 (57519) - http://www.bohemiancoding.com/sketch -->
    <title>3D12CA13-B0A6-4255-B37C-D9022E42D374</title>
    <desc>Created with sketchtool.</desc>
    <defs></defs>
    <g id="FRONTEND" stroke="none" stroke-width="1" fill="none" fill-rule="evenodd">
        <g id="Activid.-Pop-Up-Acuerdo-comercial" transform="translate(-689.000000, -213.000000)" fill="#1EB2E8" fill-rule="nonzero">
            <g id="noun_working_621967" transform="translate(689.000000, 213.000000)">
                <path d="M20.2982016,21.0122702 L20.2982016,21.014997 C19.9020563,21.0054534 18.6632514,21.0027267 14.1395715,21 C11.4659311,21 10.6995056,24.896482 10.4122662,26.3634571 C10.0106756,28.4030432 9.86773662,30.4085453 9.85684603,30.5721485 L8.0054453,54.8290444 C8.00272265,54.8713086 8,54.9149361 8,54.9572002 C8,57.063591 10.7240095,59.0418259 12.3657663,59.0418259 L33.5370782,59.0418259 L33.5370782,73.6338649 C33.5370782,75.5534753 34.6737838,77 36.1807695,77 L43.35767,77 C44.8646557,77 46,75.5534753 46,73.6338649 L46,49.9604869 C46,48.0422398 44.8632944,46.5957152 43.3563087,46.5957152 L22.3007093,46.6093488 L22.4776815,43.7735606 C22.5362184,42.846476 21.8324138,42.0475472 20.9067135,41.9889227 C19.9810131,41.9316616 19.1819159,42.6365186 19.1247403,43.5636032 L18.8361396,48.1881193 C18.8075518,48.6516616 18.972272,49.1070237 19.2894605,49.4451369 C19.606649,49.7832502 20.0504406,49.9754839 20.5132908,49.9754839 L20.5146521,49.9754839 L42.6416135,49.9591236 L42.6416135,73.6338649 L36.9009099,73.6338649 L36.9009099,57.3567133 C36.9009099,56.426902 36.1494591,55.6743274 35.221036,55.6743274 C35.1624991,55.6743274 35.1039622,55.6784175 35.0467866,55.683871 C35.0086695,55.6811442 34.9719137,55.6784175 34.9337967,55.6784175 L12.4420004,55.6784175 C12.1329799,55.5829823 11.5625851,55.1289836 11.3747224,54.8399513 L13.2070646,30.8230067 C13.2070646,30.8189166 13.2084259,30.8120998 13.2084259,30.8120998 C13.3908433,28.1221911 13.9884646,25.2236884 14.5139357,24.3661351 C16.4388479,24.3674985 18.9804399,24.3715886 19.904779,24.3756786 C20.5840797,25.0682654 21.9617396,27.4350578 22.8125672,28.8924893 C23.6062191,30.2531223 24.4257362,31.6601096 25.1472379,32.6921729 C25.6686251,33.4379306 26.6705596,34.8680949 28.0182704,34.8680949 C28.0863366,34.8680949 28.1571255,34.8640049 28.2279143,34.8558247 L42.026295,36.3705173 C42.9506341,36.471406 43.7783191,35.8047231 43.8790571,34.8817285 C43.9797951,33.958734 43.3141076,33.1270846 42.3911299,33.026196 L28.4593394,31.4965064 C27.8222397,30.8120998 26.5684603,28.6620816 25.7135488,27.1951065 C23.2155191,22.9073402 22.0366125,21.0122702 20.2982016,21.0122702 Z" id="Shape"></path>
                <path d="M38.6728963,42 C37.7483296,42 37,42.7551697 37,43.6851346 C37,44.6164651 37.7496853,45.3702692 38.6728963,45.3702692 L61.6542074,45.3702692 L61.6542074,75.3148654 C61.6542074,76.2461959 62.402537,77 63.3271037,77 C64.2503147,77 65,76.2448303 65,75.3148654 L65,45.2692158 C65,43.4666407 63.4979181,42 61.6528517,42 L38.6728963,42 Z" id="Shape"></path>
                <path d="M1.68523532,78 C2.61525578,78 3.37047064,77.2398853 3.37047064,76.3038308 L3.37047064,66.4072193 C3.40188102,66.4072193 3.43192574,66.4085938 3.46333612,66.4085938 L20.952091,66.4085938 C21.1296279,66.4085938 21.5010898,66.4085938 21.5516196,67.0834877 L21.6294627,76.317576 C21.6376567,77.249507 22.3915059,78 23.314698,78 C23.3201607,78 23.3242577,78 23.3242577,78 C24.2597409,77.9917528 25.0081274,77.2247654 24.9999334,76.2887109 L24.9207246,67.0133867 C24.9207246,67.0023905 24.9207246,66.9927688 24.9207246,66.9817725 C24.8783888,65.3873185 23.7858538,63.0162553 20.9507253,63.0162553 L3.46333612,63.0162553 C3.41280637,63.0162553 3.37047064,62.9750194 3.37047064,62.9241618 L3.37866465,33.6961692 C3.37866465,32.7601147 2.62481546,32 1.69342933,32 C0.7620432,32 0.0081940129,32.7587402 0.0081940129,33.6961692 L0,62.9241618 L0,76.3038308 C0,77.2398853 0.755214855,78 1.68523532,78 Z" id="Shape"></path>
                <path d="M41,39.2733751 C41,40.226237 41.7655399,41 42.7082754,41 L56.9932783,41 C57.7671242,41 58.4454508,40.4738971 58.6447957,39.7169246 L61.9422932,27.1716099 C62.1845527,26.2495306 61.6418915,25.3036648 60.7296115,25.0588031 C59.8173315,24.8125422 58.8815178,25.3624316 58.6392583,26.2845109 L55.6795397,37.5453511 L42.7096597,37.5453511 C41.7655399,37.5467503 41,38.3191141 41,39.2733751 Z" id="Shape"></path>
                <path d="M18.5,21 C24.2898368,21 29,16.2898368 29,10.5 C29,4.71016319 24.2898368,0 18.5,0 C12.7101632,0 8,4.71016319 8,10.5 C8,16.2898368 12.7101632,21 18.5,21 Z M18.5,3.43963115 C22.3937906,3.43963115 25.5603688,6.60760249 25.5603688,10.5013931 C25.5603688,14.3951838 22.3937906,17.561762 18.5,17.561762 C14.6062094,17.561762 11.4396312,14.3937906 11.4396312,10.5013931 C11.4396312,6.60899562 14.6062094,3.43963115 18.5,3.43963115 Z" id="Shape"></path>
                <path d="M14.6147377,9 C15.057277,9 15.4958885,8.79543584 15.8153548,8.39078703 C16.1060167,8.02197427 16.4765452,7.74573799 16.8863523,7.59343475 C17.734771,7.27688291 18.1969496,6.23614408 17.9193806,5.26857053 C17.6418115,4.30249015 16.7279285,3.77540147 15.8808192,4.09195331 C14.9368225,4.44583438 14.0831668,5.07893806 13.4154299,5.92407174 C12.8183946,6.68110846 12.8707661,7.84578032 13.5345751,8.52666541 C13.8409485,8.84321725 14.2284977,9 14.6147377,9 Z" id="Shape"></path>
            </g>
        </g>
    </g>
</svg>