<?xml version="1.0" encoding="UTF-8"?>
<svg width="25px" height="24px" viewBox="0 0 25 24" version="1.1" xmlns="http://www.w3.org/2000/svg" xmlns:xlink="http://www.w3.org/1999/xlink">
    <!-- Generator: sketchtool 51.2 (57519) - http://www.bohemiancoding.com/sketch -->
    <title>FED8AF4E-9983-4444-AA77-5E8C299814C3</title>
    <desc>Created with sketchtool.</desc>
    <defs></defs>
    <g id="FRONTEND" stroke="none" stroke-width="1" fill="none" fill-rule="evenodd">
        <g id="Referidos" transform="translate(-1013.000000, -23.000000)" fill="#F56A80" fill-rule="nonzero">
            <g id="Gift" transform="translate(1013.000000, 23.000000)">
                <g id="Layer_1">
                    <path d="M24.0141468,6.091994 L17.3785367,6.091994 C18.2001547,5.15502249 18.6898762,3.98632684 18.6898762,2.92173913 C18.6898762,2.1510045 18.446176,1.48437781 17.9850796,0.996581709 C17.5286251,0.512983508 16.9089302,0.256911544 16.1933024,0.256911544 C15.1450044,0.256911544 13.9814324,0.826986507 13.0816755,1.77991004 C12.8319466,2.04632007 12.6070166,2.33878771 12.4101459,2.65307346 C12.2132333,2.33858371 11.988027,2.04609386 11.7378426,1.77991004 C10.8380858,0.826146927 9.6745137,0.256911544 8.62621574,0.256911544 C7.90981432,0.256911544 7.29011936,0.512983508 6.8352122,0.995742129 C6.37334218,1.48437781 6.12964191,2.1510045 6.12964191,2.92173913 C6.12964191,3.98632684 6.6193634,5.15502249 7.44098143,6.091994 L0.804597701,6.091994 C0.377321701,6.091994 0.0309460654,6.46788687 0.0309460654,6.93157421 L0.0309460654,12.7809295 C0.0309460654,13.2446169 0.377321701,13.6205097 0.804597701,13.6205097 L2.03625111,13.6205097 L2.03625111,22.9255772 C2.03625111,23.3892646 2.38262674,23.7651574 2.80990274,23.7651574 L22.0080681,23.7651574 C22.4353441,23.7651574 22.7817197,23.3892646 22.7817197,22.9255772 L22.7817197,13.6205097 L24.0141468,13.6205097 C24.4414228,13.6205097 24.7877984,13.2446169 24.7877984,12.7809295 L24.7877984,6.93157421 C24.7877984,6.46788687 24.4414228,6.091994 24.0141468,6.091994 Z M9.17086649,11.9413493 L9.17086649,7.77115442 L15.6463307,7.77115442 L15.6463307,11.9413493 L9.17086649,11.9413493 Z M15.6471043,13.6205097 L15.6471043,22.085997 L9.17164014,22.085997 L9.17164014,13.6205097 L15.6471043,13.6205097 Z M16.1933024,1.93607196 C16.4045093,1.93607196 16.7000442,1.9814093 16.9042882,2.19802099 C17.0628868,2.36593703 17.1433466,2.60941529 17.1433466,2.92173913 C17.1433466,3.59256372 16.7681256,4.40611694 16.1639036,5.04587706 C15.5550398,5.69151424 14.7759726,6.091994 14.1322944,6.091994 C13.9210875,6.091994 13.6255526,6.04665667 13.4220822,5.83088456 C13.2634836,5.66296852 13.1830239,5.41865067 13.1830239,5.10548726 C13.1830239,4.43550225 13.5574713,3.62110945 14.1616932,2.98218891 C14.770557,2.33655172 15.5488506,1.93607196 16.1933024,1.93607196 Z M7.91445623,2.19634183 C8.11792661,1.98056972 8.41346154,1.93523238 8.62466844,1.93523238 C9.26912025,1.93523238 10.0474138,2.33655172 10.6562776,2.98134933 C11.2597259,3.62110945 11.6349469,4.43382309 11.6357206,5.1038081 C11.6357206,5.41781109 11.5552608,5.66212894 11.3966622,5.8292054 C11.1924182,6.04581709 10.8968833,6.09115442 10.6856764,6.09115442 C10.0419982,6.09115442 9.26293103,5.68983508 8.6540672,5.04503748 C8.05061892,4.40443778 7.67462423,3.59172414 7.67462423,2.92089955 C7.67539788,2.60857571 7.755084,2.36509745 7.91445623,2.19634183 Z M1.57824934,7.77115442 L7.62356322,7.77115442 L7.62356322,11.9413493 L1.57824934,11.9413493 L1.57824934,7.77115442 Z M3.58355438,13.6205097 L7.62433687,13.6205097 L7.62433687,22.085997 L3.58355438,22.085997 L3.58355438,13.6205097 Z M21.2344164,22.085997 L17.193634,22.085997 L17.193634,13.6205097 L21.2344164,13.6205097 L21.2344164,22.085997 Z M23.2404951,11.9413493 L17.193634,11.9413493 L17.193634,7.77115442 L23.2397215,7.77115442 L23.2397215,11.9413493 L23.2404951,11.9413493 Z" id="Shape"></path>
                </g>
            </g>
        </g>
    </g>
</svg>