<?xml version="1.0" encoding="UTF-8"?>
<svg width="15px" height="15px" viewBox="0 0 15 15" version="1.1" xmlns="http://www.w3.org/2000/svg" xmlns:xlink="http://www.w3.org/1999/xlink">
    <!-- Generator: sketchtool 51.2 (57519) - http://www.bohemiancoding.com/sketch -->
    <title>CB109FDC-10F5-4224-9DB9-7E5D6DA77945</title>
    <desc>Created with sketchtool.</desc>
    <defs></defs>
    <g id="FRONTEND" stroke="none" stroke-width="1" fill="none" fill-rule="evenodd">
        <g id="Actividades---MenuAbierto" transform="translate(-1213.000000, -239.000000)" fill="#A3A3A3" fill-rule="nonzero">
            <path d="M1227.80035,252.836136 L1223.93088,248.966647 C1224.8015,247.880064 1225.2749,246.528716 1225.27269,245.136363 C1225.27269,241.747386 1222.52548,239 1219.13635,239 C1215.74738,239 1213,241.747386 1213,245.136363 C1213,248.525341 1215.74738,251.272727 1219.13635,251.272727 C1220.5852,251.272727 1221.91679,250.770568 1222.96662,249.930738 L1226.8361,253.800227 C1226.9638,253.928293 1227.13728,254.000186 1227.31814,254 C1227.59389,254.00001 1227.8425,253.833916 1227.94806,253.579161 C1228.05361,253.324406 1227.99531,253.031154 1227.80035,252.836136 Z M1219.13635,249.909091 C1216.50044,249.909091 1214.36363,247.772273 1214.36363,245.136363 C1214.36363,242.500454 1216.50044,240.363636 1219.13635,240.363636 C1221.77242,240.363636 1223.90906,242.500454 1223.90906,245.136363 C1223.90906,247.772273 1221.77242,249.909091 1219.13635,249.909091 Z" id="Shape"></path>
        </g>
    </g>
</svg>