<?xml version="1.0" encoding="UTF-8"?>
<svg width="40px" height="40px" viewBox="0 0 40 40" version="1.1" xmlns="http://www.w3.org/2000/svg" xmlns:xlink="http://www.w3.org/1999/xlink">
    <!-- Generator: sketchtool 51.2 (57519) - http://www.bohemiancoding.com/sketch -->
    <title>EFFACE26-83B6-4769-BEF4-1AE70AB9190D</title>
    <desc>Created with sketchtool.</desc>
    <defs></defs>
    <g id="FRONTEND" stroke="none" stroke-width="1" fill="none" fill-rule="evenodd">
        <g id="ICONOS" transform="translate(-1373.000000, -899.000000)" fill="#19C6B7" fill-rule="nonzero">
            <g id="quemador" transform="translate(1335.000000, 818.000000)">
                <g id="ticket_v" transform="translate(38.000000, 81.000000)">
                    <path d="M38.3580874,22.2960183 L37.7230764,22.3458999 C36.7783365,22.4176048 35.9189164,21.8506463 35.6198524,20.9616838 L35.5483081,20.7479053 C35.2487998,19.8584974 35.59319,18.8804605 36.3850651,18.3696189 L36.9209806,18.0240102 L35.4696539,13.7101372 C35.3336753,13.3057394 35.1257081,12.9458788 34.8693041,12.6345638 C34.9115196,12.3570971 34.9239621,12.0733951 34.8964109,11.7865756 C34.8102023,10.877126 34.377826,10.0571962 33.6788251,9.47821258 L30.1464931,6.55256401 L29.6332407,6.93023946 C28.8746936,7.4891813 27.84019,7.46156823 27.1176372,6.86387903 L26.9447756,6.72046925 C26.2226672,6.12278005 26.0009244,5.10955879 26.4053051,4.25711681 L26.6785954,3.68036009 L23.1778139,0.780097731 C21.7309309,-0.417952905 19.5801589,-0.213081793 18.3834586,1.23660401 L15.5487944,4.67398499 L15.7727591,7.03178427 C15.7936447,7.25313414 15.6247824,7.45755988 15.4043727,7.47849237 L13.0518547,7.70251448 L0.778678501,22.5859554 C-0.417132979,24.036532 -0.21272076,26.1921324 1.23416225,27.3910738 L4.74027617,30.2948991 L5.24241923,29.9720044 C5.58103252,29.7542175 5.97074885,29.6535634 6.3586877,29.6548996 C6.57909739,29.8735772 6.75329215,30.1408004 6.85505389,30.4427626 L6.92659816,30.6560958 C7.20744278,31.4907229 6.90660132,32.4398106 6.19560229,32.9649041 L5.71523358,33.3194202 L7.18122469,37.6773851 C7.6598159,39.1003486 8.98938407,40 10.4113821,40 C10.7713254,40 11.1370455,39.942547 11.4961,39.8209605 L29.7518886,33.6521131 L30.8015009,31.5299156 C30.8659352,31.3994216 30.9770288,31.3455316 31.0374637,31.3254899 C31.0974543,31.3050028 31.2192129,31.2805073 31.3485258,31.3450862 L33.4659698,32.3970549 L37.6826383,30.9727553 C39.4619134,30.3715031 40.4208733,28.4314627 39.8214123,26.6481933 L38.3580874,22.2960183 Z M4.90247282,28.303641 L2.27577582,26.1279988 C1.52344998,25.504478 1.4172445,24.3839221 2.03892427,23.6299074 L13.880613,9.26933312 L15.5585707,9.10944457 C15.9669507,9.07069721 16.334004,8.91080867 16.6335123,8.67208928 C16.5944074,8.94510231 16.691281,9.2314765 16.919245,9.42031422 L18.4945522,10.7252541 C18.6469727,10.8512944 18.831388,10.9127557 19.0149147,10.9127557 C19.2499887,10.9127557 19.4837296,10.8112109 19.6454819,10.6156926 C19.9329921,10.2669664 19.884111,9.75078023 19.5361658,9.46217918 L17.9608586,8.15723927 C17.7333389,7.96884692 17.4347193,7.92742733 17.1738716,8.01739247 C17.3516213,7.67801902 17.4391631,7.28609167 17.4000581,6.87679482 L17.2405277,5.19462483 L19.6437044,2.28055594 C20.2653842,1.52698655 21.3829858,1.41920653 22.1362004,2.04317268 L24.7006849,4.16759704 C24.322078,5.54914093 24.7726736,7.04737229 25.9018289,7.98220808 L26.0755793,8.1265086 C27.2065121,9.06268051 28.7591562,9.22301443 30.0411763,8.59058621 L32.6372115,10.7408421 C32.9993767,11.0410229 33.2237857,11.4672439 33.2691119,11.9411196 C33.3144381,12.4149954 33.1735714,12.8759554 32.8740631,13.2389336 L30.4708864,16.1530025 L28.7929287,16.312891 C28.2507919,16.3645542 27.760647,16.6255422 27.4122575,17.0477548 C27.0638679,17.4704128 26.9003382,18.002187 26.9518856,18.5455408 L27.111416,20.2277108 L15.2697273,34.5887304 C14.970219,34.9517086 14.5449527,35.1766214 14.0725827,35.221604 C13.5975465,35.2670319 13.1393965,35.125849 12.7772314,34.8261137 L10.1194281,32.6246399 C10.4127152,31.2880786 9.94789963,29.886493 8.86940299,28.9930768 L8.69654135,28.8501124 C7.61848909,27.9575869 6.15871922,27.7629594 4.90247282,28.303641 Z M37.1604984,29.4201885 L33.5859508,30.6280373 L32.0755223,29.8775856 C31.5875992,29.6353032 31.03302,29.5987827 30.5153238,29.7733685 C29.9971833,29.9483997 29.579027,30.3140501 29.3368429,30.8030685 L28.5880721,32.3168879 L10.9739601,38.2688391 C10.0501057,38.5819356 9.04226463,38.0813375 8.73075818,37.154073 L7.62915407,33.8792528 C7.91177618,33.5879795 8.133519,33.2530598 8.30371439,32.8963169 L8.19839766,33.1595317 L11.7356178,36.089634 C12.3497432,36.5982488 13.1065128,36.869035 13.8966104,36.869035 C14.0059265,36.869035 14.1161314,36.8636905 14.2267806,36.8534469 C15.1346375,36.7670448 15.9522864,36.3336978 16.5299731,35.6331277 L20.1289612,31.2684823 L25.8022891,29.3516012 L25.2797048,27.7990345 L22.1055385,28.8714902 L27.2500608,22.6327195 L27.8273031,24.347847 C27.9423961,24.6898927 28.2610125,24.9054527 28.6018477,24.9054527 C28.6880563,24.9054527 28.7764868,24.8916462 28.8631398,24.8622516 C29.2910724,24.7175057 29.5203696,24.2529828 29.3763923,23.8240895 L28.7231619,21.8831584 C28.6458408,21.6537919 28.4760898,21.4836598 28.2703444,21.3950307 L28.8027049,20.7496867 L28.5787402,18.3918875 C28.5649646,18.2466962 28.6311764,18.1424791 28.6716145,18.0934882 C28.7124969,18.0444973 28.8022606,17.9594313 28.9471266,17.9456247 L31.2996446,17.7216026 L33.9938865,14.4543538 L34.9830639,17.3942542 C33.9352291,18.3687281 33.5299597,19.8798753 33.9983303,21.2716627 L34.0698746,21.4849959 L34.0698746,21.4854413 C34.5382452,22.8772287 35.773606,23.8343331 37.1960484,23.9741799 L38.2718788,27.1728415 C38.584274,28.0987698 38.0856859,29.1075374 37.1604984,29.4201885 Z" id="Shape"></path>
                    <path d="M30.3917783,26.6232661 C30.265912,26.1444309 29.8618967,25.8870943 29.4862401,26.0478675 C29.1125259,26.2096361 28.9116837,26.728789 29.03755,27.208122 L29.6082217,29.3768174 C29.708837,29.7590891 29.986986,30 30.2853358,30 C30.3607002,30 30.438007,29.9845698 30.5137599,29.9517183 C30.8874741,29.7899496 31.0883163,29.2707967 30.96245,28.7914638 L30.3917783,26.6232661 Z" id="Shape"></path>
                    <path d="M22.7493744,13.8088716 C22.8918147,13.9373498 23.0641551,14 23.2356649,14 C23.4553469,14 23.6737831,13.896491 23.8249443,13.6971909 C24.0936291,13.3417193 24.0479486,12.8155488 23.7227859,12.5213654 L22.2506256,11.1911845 C21.9262935,10.8979091 21.4445711,10.9473937 21.1750557,11.3028652 C20.9063709,11.6583368 20.9520514,12.1845073 21.2772141,12.4786907 L22.7493744,13.8088716 Z" id="Shape"></path>
                    <path d="M26.7493744,16.8088716 C26.8918147,16.9373498 27.0641551,17 27.2356649,17 C27.4553469,17 27.6737831,16.896491 27.8249443,16.6971909 C28.0936291,16.3417193 28.0479486,15.8155488 27.7227859,15.5213654 L26.2506256,14.1911845 C25.9262935,13.8979091 25.4449864,13.9473937 25.1750557,14.3028652 C24.9063709,14.6583368 24.9520514,15.1845073 25.2772141,15.4786907 L26.7493744,16.8088716 Z" id="Shape"></path>
                    <rect id="Rectangle-path" transform="translate(13.000000, 18.000000) rotate(39.570808) translate(-13.000000, -18.000000) " x="12" y="12" width="2" height="12"></rect>
                    <rect id="Rectangle-path" transform="translate(14.000000, 23.000000) rotate(-50.424776) translate(-14.000000, -23.000000) " x="11" y="22" width="6" height="2"></rect>
                    <rect id="Rectangle-path" transform="translate(19.000000, 23.000000) rotate(129.570808) translate(-19.000000, -23.000000) " x="13" y="22" width="12" height="2"></rect>
                </g>
            </g>
        </g>
    </g>
</svg>