<?xml version="1.0" encoding="UTF-8"?>
<svg width="186px" height="101px" viewBox="0 0 186 101" version="1.1" xmlns="http://www.w3.org/2000/svg" xmlns:xlink="http://www.w3.org/1999/xlink">
    <!-- Generator: sketchtool 51.2 (57519) - http://www.bohemiancoding.com/sketch -->
    <title>376CE079-0740-4121-BAAB-548A9334EECC</title>
    <desc>Created with sketchtool.</desc>
    <defs></defs>
    <g id="FRONTEND" stroke="none" stroke-width="1" fill="none" fill-rule="evenodd">
        <g id="HOME" transform="translate(-906.000000, -2480.000000)">
            <g id="if_account_friend_human_man_member_person_profile_user_users_392531" transform="translate(910.000000, 2480.000000)">
                <g id="Group-5">
                    <g id="Group-9" transform="translate(78.500000, 50.500000) rotate(-360.000000) translate(-78.500000, -50.500000) ">
                        <path d="M11,35.3484848 L11,57.7493121" id="Line" stroke="#4A4A4A" stroke-width="7" stroke-linecap="round"></path>
                        <path d="M22,47 C22,47 14.6666667,47 2.27373675e-12,47" id="Line" stroke="#4A4A4A" stroke-width="7" stroke-linecap="round"></path>
                        <path d="M74.4456864,57.9711111 C78.4277846,53.5101852 80.8727679,47.6357407 80.8727679,41.1851852 C80.8727679,27.2987037 69.637115,16 55.828125,16 C42.019135,16 30.7834821,27.2987037 30.7834821,41.1851852 C30.7834821,55.0716667 42.019135,66.3703704 55.828125,66.3703704 C60.6961775,66.3703704 65.2292578,64.9442593 69.0798717,62.517037 C82.6978962,67.6768519 92.0739844,80.2096296 93.2667355,94.7037037 L18.3926451,94.7037037 C19.2034654,84.9475926 23.7553292,75.8494444 31.1591518,69.357963 C32.4646038,68.2151852 32.5992188,66.2287037 31.4628181,64.9159259 C30.329548,63.6062963 28.3510212,63.4677778 27.0455692,64.6105556 C17.4816462,72.9909259 12,85.105 12,97.8518519 C12,99.5927778 13.4025,101 15.1305804,101 L96.5256696,101 C98.2568806,101 99.65625,99.5927778 99.65625,97.8518519 C99.65625,80.5811111 89.7010045,65.1583333 74.4456864,57.9711111 Z M37.0446429,41.1851852 C37.0446429,30.767963 45.4690346,22.2962963 55.828125,22.2962963 C66.1872154,22.2962963 74.6116071,30.767963 74.6116071,41.1851852 C74.6116071,51.6024074 66.1872154,60.0740741 55.828125,60.0740741 C45.4690346,60.0740741 37.0446429,51.6024074 37.0446429,41.1851852 Z" id="Shape" fill="#4A4A4A" fill-rule="nonzero"></path>
                        <path d="M137.883861,41.9711111 C141.865959,37.5101852 144.310942,31.6357407 144.310942,25.1851852 C144.310942,11.2987037 133.075289,-4.54747351e-13 119.266299,-4.54747351e-13 C105.457309,-4.54747351e-13 94.2216563,11.2987037 94.2216563,25.1851852 C94.2216563,39.0716667 105.457309,50.3703704 119.266299,50.3703704 C124.134352,50.3703704 128.667432,48.9442593 132.518046,46.517037 C140.501462,49.5419213 147.027026,55.1007166 151.300639,62.1031003 C154.316909,67.0453068 137.883861,78.7037037 137.094424,78.7037037 C125.269447,78.7037037 106.848246,78.7037037 81.8308193,78.7037037 C82.6416396,68.9475926 87.1935034,59.8494444 94.597326,53.357963 C95.902778,52.2151852 96.0373929,50.2287037 94.9009923,48.9159259 C93.7677222,47.6062963 91.7891954,47.4677778 90.4837434,48.6105556 C80.9198204,56.9909259 75.4381742,69.105 75.4381742,81.8518519 C75.4381742,83.5927778 76.8406742,85 78.5687545,85 C103.913497,85 122.922053,85 135.594424,85 C137.883861,85 158.094424,62.1031003 156.574762,58.7140114 C155.0551,55.3249225 145.725172,45.6653803 137.883861,41.9711111 Z M100.482817,25.1851852 C100.482817,14.767963 108.907209,6.2962963 119.266299,6.2962963 C129.62539,6.2962963 138.049781,14.767963 138.049781,25.1851852 C138.049781,35.6024074 129.62539,44.0740741 119.266299,44.0740741 C108.907209,44.0740741 100.482817,35.6024074 100.482817,25.1851852 Z" id="Shape-Copy-2" fill="#4A4A4A" fill-rule="nonzero" transform="translate(116.047212, 42.500000) scale(-1, 1) translate(-116.047212, -42.500000) "></path>
                        <path d="M45,45 C48.6666667,48.3333333 52.3333333,50 56,50 C59.6666667,50 63.3333333,48.3333333 67,45" id="Path-4" stroke="#4A4A4A" stroke-width="4"></path>
                        <path d="M102,29 C105.666667,32.3333333 109.333333,34 113,34 C116.666667,34 120.333333,32.3333333 124,29" id="Path-4-Copy" stroke="#4A4A4A" stroke-width="4" transform="translate(113.000000, 31.500000) scale(-1, 1) translate(-113.000000, -31.500000) "></path>
                    </g>
                    <g id="coin-01" transform="translate(145.000000, 4.000000)" fill-rule="nonzero" stroke="#4A4A4A">
                        <circle id="Oval" stroke-width="5.32000017" stroke-linecap="round" cx="16.7317031" cy="16.7317031" r="16.7317031"></circle>
                        <path d="M6.66324474,16.719372 C11.1782115,18.6360444 14.7804905,22.2337131 16.71931,26.7856074 C18.6416218,22.261155 22.2516489,18.6546621 26.8148813,16.7211829 C22.2999145,14.8045105 18.6976356,11.2068418 16.7588161,6.65494739 C14.8365042,11.1793999 11.2264771,14.7858927 6.66324474,16.719372 Z M17.3458308,28.4695777 C17.3502944,28.4835199 17.3547431,28.4974696 17.3591768,28.5114267 C17.3532753,28.4894606 17.3463064,28.4680047 17.3383349,28.4471088 Z M16.1536603,28.328942 C16.1311888,28.366281 16.1142841,28.4053384 16.1039005,28.4450872 C16.1180812,28.4005976 16.1324188,28.3561812 16.1469126,28.3118385 Z M4.97066957,17.3449928 C4.95733742,17.3492262 4.94399856,17.3534459 4.93065299,17.3576519 C4.95230619,17.3518345 4.9734636,17.3449799 4.99407755,17.3371501 Z" id="Shape" stroke-width="3"></path>
                    </g>
                </g>
            </g>
        </g>
    </g>
</svg>