<?xml version="1.0" encoding="UTF-8"?>
<svg width="108px" height="99px" viewBox="0 0 108 99" version="1.1" xmlns="http://www.w3.org/2000/svg" xmlns:xlink="http://www.w3.org/1999/xlink">
    <!-- Generator: sketchtool 51.2 (57519) - http://www.bohemiancoding.com/sketch -->
    <title>490B7CFD-19E9-4FD3-A271-337F1483D0AF</title>
    <desc>Created with sketchtool.</desc>
    <defs></defs>
    <g id="FRONTEND" stroke="none" stroke-width="1" fill="none" fill-rule="evenodd">
        <g id="HOME" transform="translate(-283.000000, -2084.000000)">
            <g id="usuario_azul" transform="translate(283.000000, 2086.000000)">
                <g id="if_00-ELASTOFONT-STORE-READY_user_2703063">
                    <path d="M33.5682198,60.7986389 C38.1490004,57.6236088 41.2193707,51.9453114 41.2193707,45.4615338 C41.2193707,35.5240976 34.0325687,27.4393424 25.2,27.4393424 C16.3674313,27.4393424 9.18062926,35.5240976 9.18062926,45.4615338 C9.18062926,51.9453114 12.2509996,57.6236088 16.8317802,60.7986389 C6.94066197,63.2946452 0,70.1130187 0,78.3644669 C-9.77034121e-16,85.1168891 15.8410437,86.9187453 25.2,86.9187453 C34.5589563,86.9187453 50.4,85.1168891 50.4,78.3644666 C50.4,70.1130187 43.4593378,63.2946452 33.5682198,60.7986389 Z M12.4807571,45.4615338 C12.4807571,37.5740267 18.1872283,31.1568051 25.2,31.1568051 C32.2127717,31.1568051 37.9192429,37.5740267 37.9192429,45.4615338 C37.9192429,53.3490409 32.2127717,59.7650521 25.2,59.7650521 C18.1872283,59.7650521 12.4807571,53.3490407 12.4807571,45.4615338 Z M25.2,83.2012826 C11.7465002,83.2012826 3.69330731,80.0043192 3.30106797,78.3519118 C3.31127351,70.1518934 13.1316246,63.4825148 25.2,63.4825148 C37.2671669,63.4825148 47.0867123,70.1506833 47.0987978,78.3494914 C46.7163612,80.0006887 38.6623626,83.2012826 25.2,83.2012826 Z" id="Shape" fill="#1EB2E8" fill-rule="nonzero"></path>
                    <path d="M90.5670848,69.9944663 C95.3114647,66.711808 98.4914911,60.841026 98.4914911,54.1374593 C98.4914911,43.8631609 91.0480176,35.5043462 81.9,35.5043462 C72.7519824,35.5043462 65.3085089,43.8631609 65.3085089,54.1374593 C65.3085089,60.841026 68.4885353,66.711808 73.2329152,69.9944663 C62.9885427,72.5750829 55.8,79.6245878 55.8,88.1557461 C55.8,95.137064 72.2067953,97 81.9,97 C91.5932047,97 108,95.137064 108,88.1557458 C108,79.6245878 100.811457,72.5750829 90.5670848,69.9944663 Z M69.3,54.1552859 C69.3,46.0948022 74.952973,39.5368481 81.9,39.5368481 C88.847027,39.5368481 94.5,46.0948022 94.5,54.1552859 C94.5,62.2157696 88.847027,68.7724868 81.9,68.7724868 C74.952973,68.7724868 69.3,62.2157693 69.3,54.1552859 Z M81.9000689,92.9674981 C68.0772637,92.9674981 59.8030065,89.6985918 59.4,88.0089994 C59.4104857,79.6244518 69.5004105,72.8049887 81.9000689,72.8049887 C94.2984857,72.8049887 104.387583,79.6232144 104.4,88.0065246 C104.007065,89.6948796 95.7319803,92.9674981 81.9000689,92.9674981 Z" id="Shape-Copy" fill="#1EB2E8" fill-rule="nonzero"></path>
                    <path d="M25.2,23.4068405 C27.9,-8.98148148 81.9,-8.98148148 81.9,32.3333333" id="Path-2" stroke="#1EB2E8" stroke-width="3.6" stroke-dasharray="8.1,1.8"></path>
                </g>
            </g>
        </g>
    </g>
</svg>